<?xml version="1.0" encoding="utf-8"?>
<!-- Generator: Adobe Illustrator 25.2.1, SVG Export Plug-In . SVG Version: 6.00 Build 0)  -->
<svg version="1.1"
	 id="svg8" xmlns:cc="http://creativecommons.org/ns#" xmlns:dc="http://purl.org/dc/elements/1.1/" xmlns:inkscape="http://www.inkscape.org/namespaces/inkscape" xmlns:rdf="http://www.w3.org/1999/02/22-rdf-syntax-ns#" xmlns:sodipodi="http://sodipodi.sourceforge.net/DTD/sodipodi-0.dtd" xmlns:svg="http://www.w3.org/2000/svg"
	 xmlns="http://www.w3.org/2000/svg" xmlns:xlink="http://www.w3.org/1999/xlink" x="0px" y="0px" viewBox="0 0 149 142.5"
	 style="enable-background:new 0 0 149 142.5;" xml:space="preserve">
<style type="text/css">
	.st0{fill:url(#SVGID_1_);}
	.st1{fill:url(#SVGID_2_);}
	.st2{opacity:0.76;}
	.st3{fill:#00FFFF;}
	.st4{fill:#435CC0;}
	.st5{fill:#FFFFFF;}
	.st6{fill:url(#SVGID_3_);}
	.st7{fill:url(#SVGID_4_);}
	.st8{fill:url(#SVGID_5_);}
	.st9{fill:url(#SVGID_6_);}
	.st10{opacity:0.59;fill:#FFFFFF;enable-background:new    ;}
</style>
<radialGradient id="SVGID_1_" cx="74.6" cy="1008.8147" r="74.6817" gradientTransform="matrix(1 0 0 1 0 -937.6147)" gradientUnits="userSpaceOnUse">
	<stop  offset="7.408410e-03" style="stop-color:#FF00FF"/>
	<stop  offset="0.2144" style="stop-color:#FFD475"/>
	<stop  offset="0.4704" style="stop-color:#B2F2CC"/>
	<stop  offset="0.6408" style="stop-color:#50EAFF"/>
	<stop  offset="0.8325" style="stop-color:#4E7BFB"/>
	<stop  offset="1" style="stop-color:#7D01FF"/>
</radialGradient>
<circle class="st0" cx="74.6" cy="71.2" r="66"/>
<radialGradient id="SVGID_2_" cx="74.6" cy="1008.8147" r="71.5634" gradientTransform="matrix(1 0 0 1 0 -937.6147)" gradientUnits="userSpaceOnUse">
	<stop  offset="0" style="stop-color:#7D01FF"/>
	<stop  offset="0.1675" style="stop-color:#4E7BFB"/>
	<stop  offset="0.3592" style="stop-color:#50EAFF"/>
	<stop  offset="0.5296" style="stop-color:#B2F2CC"/>
	<stop  offset="0.7856" style="stop-color:#FFA3FF"/>
	<stop  offset="0.9926" style="stop-color:#FF00FF"/>
</radialGradient>
<circle class="st1" cx="74.6" cy="71.2" r="63.2"/>
<g class="st2">
	<g>
		<path class="st3" d="M98.9,12.9c-1.8-0.8-3.7-1.8-5.5-2.4c3.7,7.6,3.4,18.1-4.2,23.6c-2.9,2.1-6.1,3.4-8.9,5.5
			C77.4,42,75.6,44.9,74,48c-3.4,7.3-2.6,15.7,0.5,23.1c-2.1-6.5-2.4-13.3,0.8-19.6c2.4-4.5,5.5-8.1,10.5-9.2
			c5-1.3,9.4-3.1,12.8-6.8c2.1-2.6,3.7-5.5,4.7-8.9c1-3.7,0.8-7.6,0.5-11.3C102.1,14.7,100.8,13.4,98.9,12.9L98.9,12.9z"/>
	</g>
	<g>
		<path class="st3" d="M118.3,25.7c-1.3-1.3-2.9-2.9-4.2-4.2c0,1.6,0.2,2.9-0.2,4.5c-0.2,1-0.5,1.8-0.8,2.9
			c-1.8,5.8-6.3,10.5-12.1,12.3c-4.5,1-8.9,0.8-12.8,2.9c-2.6,1.6-5.3,2.9-7.1,5.3c-1.6,2.1-3.1,4.2-4.2,6.5
			c-2.1,4.7-2.6,10-2.4,15.2c0-9.2,4.5-18.6,13.1-22.3c0.8-0.2,1.6-0.5,2.4-0.8c3.4-0.8,6.8,0,10.2,0c4.7,0,9.2-2.1,13.1-5
			c4.2-3.7,7.3-7.8,8.1-13.3c0.2-0.8-0.8-1.3-1.6-1.8C119.4,27.3,118.9,26.5,118.3,25.7L118.3,25.7z"/>
	</g>
	<g>
		<path class="st3" d="M130.7,43.3c-0.8-1.8-1.3-3.4-2.1-5.3c-3.1,8.6-12.1,15.2-21.5,14.4c-5-1.6-10.5-2.6-15.7-1
			c-8.7,2.9-14.7,11-16.8,19.6c0.5-2.1,1.8-3.7,2.9-5.8c0.2-0.8,1-1.6,1.6-2.4c2.4-2.9,5-5.3,8.4-6.5c0.8-0.2,1.6-0.5,2.4-0.8
			c5.5-1.6,10.8,1,15.7,2.9c10.2,3.4,21.5-2.4,27.3-11C132,46.2,131.5,44.6,130.7,43.3L130.7,43.3z"/>
	</g>
	<g>
		<path class="st3" d="M136.7,61.9c0-1.8-0.2-3.7-0.5-5.5c-3.1,4.5-7.3,7.6-12.4,9.4c-7.1,2.1-14.7,0.2-19.9-4.7
			c-5.8-3.1-12.8-2.9-18.6,0c-4.5,2.4-7.9,6-10.8,10c1.3-1,1.8-2.4,3.1-3.4c0.8-0.5,1.6-1,2.4-1.8c5.5-4.2,12.8-5.5,18.9-1.6
			c4.7,3.1,8.1,7.1,13.6,8.6c8.9,2.4,18.4-0.2,24.9-6.5C137.5,64.8,137,63.5,136.7,61.9L136.7,61.9z"/>
	</g>
	<g>
		<path class="st3" d="M136.4,83.7c0.8-1.8,0.8-3.9,1.3-6c-6.5,5.8-17.1,8.1-24.2,1.8c-4.7-4.5-8.4-10-14.7-12.1
			c-8.1-2.9-17.1-0.5-24.4,3.7c6.8-3.4,15.2-5,22.6-1.3c3.1,1.8,6.1,3.9,7.6,7.1c2.1,5,4.7,9.4,9.7,12.1c6.5,3.4,14.2,3.1,21,0.2
			C135.6,87.3,136.2,85.4,136.4,83.7L136.4,83.7z"/>
	</g>
	<g>
		<path class="st3" d="M127.3,105.9c1.3-1.6,2.4-3.4,3.7-5c-7.9,1.8-16.5-0.2-21.2-7.3c-2.4-3.9-2.9-8.1-5-12.1
			c-3.9-6.5-10.5-10.2-17.9-11.3c-4.2-0.5-8.1,0-12.4,0.8c3.7-0.2,7.6-0.8,11.3,0.5c0.5,0.2,1,0,1.6,0.2c2.9,0.8,5.3,2.1,7.6,3.9
			c0.5,0.5,1,1.3,1.8,1.8c3.9,4.2,4.7,10,5.5,15.5c0,1.3,0.2,2.6,1,3.9c0.5,0.8,0.8,1.6,1.3,2.4c4.2,6.8,11.8,10.2,19.4,10.8
			C125.2,108.8,126.2,107.2,127.3,105.9L127.3,105.9z"/>
	</g>
	<g>
		<path class="st3" d="M111.8,121.9c1.6-1,3.1-2.1,4.7-3.1c-7.6-1.3-14.7-6.8-16.8-14.7c-0.8-3.4-0.2-6.5-0.2-10
			c0.2-13.1-12.4-22.5-25-23c6.3,1.3,12.4,3.9,16.5,9.4c2.4,3.7,3.9,7.6,3.1,11.8c-0.2,3.4-1.6,6.8-1.6,10.2c0,9.4,6.3,18.4,14.9,22
			C108.9,123.4,110.5,122.7,111.8,121.9L111.8,121.9z"/>
	</g>
	<g>
		<path class="st3" d="M93.4,131.1c1.8-0.5,3.4-1,5.3-1.3c-2.6-1.8-5.3-3.4-7.3-6c-1.6-2.1-2.6-3.9-3.7-6.3
			c-1.6-4.2-1.6-8.6-0.2-12.8c1.3-2.9,3.1-5.5,3.4-8.6c0-1.3,0.5-2.6,0.2-3.9c-0.8-9.7-7.9-17.3-16.5-21c8.7,4.5,15.5,14.9,11,24.4
			c-2.1,5-5.8,9.4-6.1,14.9c-0.2,4.2,0.2,8.4,2.1,12.3c1.8,3.7,4.2,6.8,7.1,9.7C90.3,132.1,91.8,131.3,93.4,131.1L93.4,131.1z"/>
	</g>
	<g>
		<path class="st3" d="M74.3,134.2c1.8,0,3.9,0,5.8,0c-6.1-5.3-10.8-13.6-8.4-21.7c0.2-0.8,0.5-1.6,0.8-2.4c0.2-1.3,1.3-2.1,1.8-3.1
			c1.6-2.1,3.7-3.4,5.3-5.8c1.8-2.9,3.1-5.8,3.4-9.2c0.8-7.8-2.4-15.5-7.9-21c1.8,2.1,2.9,4.5,3.9,6.8c1,2.4,1.6,4.7,1.8,7.1
			c0.2,2.6-0.5,5.3-1.3,7.8c-1.6,3.9-5,6.5-8.4,8.9c-2.4,1.8-3.9,3.9-5.3,6.5c-0.5,0.8-0.8,1.6-1,2.6s-0.5,1.8-0.8,2.9
			c-1.3,7.3,0.8,14.7,5.3,20.4C70.9,134.2,72.7,134.2,74.3,134.2L74.3,134.2z"/>
	</g>
	<g>
		<path class="st3" d="M50.1,129.5c2.1,0.5,3.7,1.8,5.8,2.4c-4.2-8.1-2.9-18.8,5-24.4c6.5-2.9,12.6-7.6,14.9-14.7
			c2.4-7.1,1.8-14.9-1.3-21.7c1.8,4.7,2.1,9.4,1,14.4c-1,6.8-5.3,13.1-12.4,14.7c-6.3,1.6-12.1,4.7-15.2,10.2
			c-2.6,5.3-3.7,11-2.6,16.8C47,128.1,48.8,128.1,50.1,129.5L50.1,129.5z"/>
	</g>
	<g>
		<path class="st3" d="M31,116.4c1,1.6,2.4,3.1,3.9,4.5c0-5.3,1.8-10.5,5.3-14.4c1.3-1.6,2.9-2.9,4.7-3.9c4.2-2.4,9.2-1.8,13.6-3.1
			c5.8-1.8,10.2-6.3,13.1-11.5c0.5-1,0.8-1.8,1.3-2.9c1.6-4.5,2.4-9.2,1.6-13.9c0.5,8.6-3.9,17.8-11.8,22c-4.2,2.1-8.9,1.6-13.6,1.3
			c-10.5,0-18.9,8.6-21.5,18.4C28.6,114,29.6,115.4,31,116.4L31,116.4z"/>
	</g>
	<g>
		<path class="st3" d="M18.4,99.1c0.8,1.8,1.3,3.7,2.4,5.3c1.8-4.7,4.7-8.6,8.9-11.5c0.8-0.5,1.6-0.8,2.4-1.3
			c4.2-1.6,9.2-2.4,13.6-0.5c2.6,0.8,5.3,1,8.1,0.8c1.8-0.2,3.7-0.8,5.5-1.6c7.9-2.9,13.6-10.8,15.2-19.1
			c-2.1,7.3-7.6,13.6-15.2,15.7c-5.5,1.3-10.5-1-15.5-2.6c-10.2-3.7-21.2,2.1-27.3,10.5C17.3,96,17.6,97.8,18.4,99.1L18.4,99.1z"/>
	</g>
	<g>
		<path class="st3" d="M12.3,80.5c0.2,1.8,0.2,3.7,0.8,5.5c4.7-7.1,13.1-11.5,21.8-10.2c3.4,0.8,6.3,2.4,9.2,4.7
			c0.8,0.5,1.6,0.8,2.4,1.3c10.5,5,22.8-1,28.1-10.8c-3.4,5-8.9,8.4-15.2,9.2c-4.5,0.2-8.9-1-12.1-4.2c-5.3-5.5-12.6-7.8-19.9-7.3
			c-6.1,0.5-11,3.7-15.7,7.1C12.1,77.4,12.1,78.9,12.3,80.5L12.3,80.5z"/>
	</g>
	<g>
		<path class="st3" d="M12.6,58.5c-0.2,2.1-0.8,4.2-1,6.3c4.2-3.9,10-5.8,15.5-5.5c1.8,0.2,3.7,1,5.5,1.6c1.6,0.5,2.4,2.1,3.9,2.6
			c3.1,3.9,6.3,7.8,11,10.2c8.7,4.5,19.4,2.9,27-2.6C69,74.2,62.4,75.6,56.1,74c-4.5-1.3-8.4-3.4-11-7.3c-1.6-2.4-2.1-4.5-3.4-6.8
			c-3.1-5-8.1-7.8-13.6-8.6c-5-0.5-9.7,0.2-14.2,2.1C13.7,55.1,12.9,56.6,12.6,58.5L12.6,58.5z"/>
	</g>
	<g>
		<path class="st3" d="M22.1,36.5c-0.8,0.5-1.3,1.3-1.8,2.4c-0.2,0.5-0.8,0.8-1,1c-0.2,0.5-0.5,0.8-0.8,1.3c6.3-1,13.1-0.2,18.1,4.2
			c4.5,3.7,5,9.2,7.3,14.1c1.3,2.6,3.1,5,5.5,6.8c0.8,0.5,1.6,1,2.4,1.8c0.8,0.8,1.8,1,2.9,1.3c0.5,0.2,0.8,0.5,1.3,0.8
			c6.1,2.1,12.6,2.6,18.6,0.8c-11.6,2.6-25.4-4.2-27-16.5c0.5-12-10.6-22.2-22.4-22.2C24.1,33.6,23.1,35.1,22.1,36.5L22.1,36.5z"/>
	</g>
	<g>
		<path class="st3" d="M37.5,20.5c-1.6,1.3-3.4,2.1-5,3.1c8.4,1.6,16.3,8.1,17.3,17c0.2,2.9-0.5,6-0.2,8.9c0.5,4.5,1.8,8.4,4.7,11.8
			c2.6,2.9,5.3,5.5,8.7,6.8c1,0.2,1.8,0.8,2.9,1.3c2.9,0.8,5.5,1.8,8.7,1.6c-4.7-0.5-8.9-2.4-12.6-5.3c-1.6-1.6-3.1-2.9-4.5-5
			c-3.1-5.3-3.1-11-1.6-16.8c0.8-2.4,0.8-4.7,0.5-7.1c-0.5-2.4-1-4.7-2.1-7.1c-2.6-5.5-7.3-9.4-12.6-12.1
			C40.2,18.7,38.9,19.4,37.5,20.5L37.5,20.5z"/>
	</g>
	<g>
		<path class="st3" d="M55.9,11.3c-1.8,0.2-3.4,1-5.3,1.3c8.1,4.7,14.4,14.1,11.6,23.9c-1.3,3.7-3.7,7.1-3.9,11
			c-0.8,8.1,3.4,15.7,10.2,20.4c1,0.5,1.8,1,2.9,1.8s2.1,1,3.1,1.3c-5-2.6-9.4-6.8-11.3-12.3c-0.2-0.8-0.5-1.6-0.8-2.4
			c-0.5-2.9-0.5-5.8,0.5-8.4c2.4-5.3,6.3-10,6.5-16c0.2-4.7-0.2-9.4-2.6-13.9c-0.5-1-1.3-1.8-1.8-2.9c-1.3-2.1-2.9-3.7-4.7-5.3
			C58.8,10.3,57.5,11,55.9,11.3L55.9,11.3z"/>
	</g>
	<g>
		<path class="st3" d="M75.1,8.2c-1.8,0-3.9,0-5.8,0c7.6,6,11.6,17.3,6.3,26.2c-3.9,4.5-8.1,8.6-9.2,14.7c-0.8,4.7,0,9.4,1.8,13.6
			c1.6,3.1,3.4,6,6.1,8.4c-4.2-4.5-6.3-10.5-5.8-16.5c0.5-4.7,2.4-8.9,6.3-11.8c3.1-2.1,5.8-4.2,7.6-7.3c5.3-8.9,3.7-19.6-2.4-27.2
			C78.5,8.2,76.6,8.2,75.1,8.2L75.1,8.2z"/>
	</g>
</g>
<g>
	<g>
		<g>
			<path class="st4" d="M73.9,55.5c2.5-2.6,2.1-9.8,2-12.6c-0.3-9.7,0.2-15,0-18.6c-0.2-2.9,0.2-5-0.9-7.5c-1.2,2.3-1.7,16-1.8,20.2
				c-0.1,3.7-0.1,7.3-0.2,11C72.9,50.5,72.5,53.4,73.9,55.5z"/>
			<g>
				<path class="st4" d="M91,51.4c0.2-0.4,0.4-0.9,0.5-1.1c2.8-6.3,4.4-13.7,6-20.4c0.1-0.7-0.9-1-1.2-0.3
					c-1.6,4.6-3.4,9.1-4.9,13.7c-0.3,1.1-4.2,8.6-1.7,9C90.2,52.4,90.7,51.9,91,51.4z"/>
				<path class="st4" d="M102.2,59c0.3,1,1.8,0.7,1.9-0.2c0.1-1.2,1.3-2.1,1.9-3.1c0.7-1.4,1.6-2.7,2.4-4c1.8-2.9,3.1-6.1,4.9-9
					c0,0,0-0.1-0.1-0.1c-2.6,2.7-4.5,5.9-6.6,8.8c-1.1,1.5-1.9,3.2-3.1,4.6C102.6,56.8,101.7,57.8,102.2,59z"/>
				<path class="st4" d="M117.4,67.6c0.2-0.3,1.5-0.8,1.9-1.1c0.8-0.6,1.7-1.2,2.5-1.9c1.7-1.4,3.5-2.8,5.1-4.3
					c3.3-2.9,6.2-6.4,10.4-8.5c0.3-0.1,0.1-0.6-0.2-0.5c-4.4,1.4-7.6,4.5-11,7.3c-1.9,1.6-3.9,3-5.8,4.6c-1.1,0.9-2.4,1.8-3.7,2.5
					c-0.4,0.3-1.1,0.5-1.2,1.1C115.2,68,116.7,68.5,117.4,67.6z"/>
			</g>
			<g>
				<path class="st4" d="M58,51.2c-0.2-0.4-0.4-0.9-0.5-1.1c-2.7-6.4-4.3-13.7-5.9-20.4c-0.1-0.7,0.9-1,1.2-0.3
					c1.5,4.6,3.3,9.1,4.8,13.8c0.3,1.1,4.1,8.6,1.6,9C58.7,52.2,58.3,51.8,58,51.2z"/>
				<path class="st4" d="M46.8,58.8c-0.3,1-1.8,0.7-1.9-0.2c-0.1-1.2-1.3-2.1-1.8-3.2c-0.7-1.4-1.6-2.7-2.4-4.1
					c-1.8-2.9-3-6.1-4.8-9c0,0,0-0.1,0.1-0.1c2.6,2.7,4.4,5.9,6.5,8.9c1,1.5,1.9,3.2,3.1,4.6C46.3,56.6,47.2,57.6,46.8,58.8z"/>
				<path class="st4" d="M31.4,67.2c-0.2-0.3-1.5-0.8-1.9-1.1c-0.8-0.6-1.6-1.3-2.5-1.9c-1.7-1.4-3.4-2.9-5.1-4.4
					c-3.3-3-6.2-6.5-10.3-8.6c-0.3-0.1-0.1-0.6,0.2-0.5c4.4,1.4,7.5,4.5,10.9,7.4c1.9,1.6,3.9,3.1,5.8,4.7c1.1,0.9,2.4,1.8,3.6,2.6
					c0.4,0.3,1.1,0.5,1.2,1.1C33.6,67.6,32.1,68.2,31.4,67.2z"/>
			</g>
		</g>
		<g>
			<path class="st4" d="M74.3,85.7c-2.5,0.9-1.7,7.8-1.5,10.1c0.1,2.1-0.1,11.9,0,14.8c0.1,2.3-0.2,4,0.6,6
				c0.9-1.9,1.3-12.8,1.4-16.1c0.1-2.9,0.1-5.9,0.2-8.8C75.1,89.7,75.4,87.4,74.3,85.7z"/>
			<g>
				<path class="st4" d="M59.8,84.8c-0.2,0.3-0.4,0.7-0.5,0.9c-2.5,5.2-4,11.2-5.4,16.6c-0.1,0.6,0.8,0.8,1,0.2
					c1.4-3.8,3-7.4,4.4-11.2c0.3-0.9,3.7-7,1.5-7.3C60.5,84,60.1,84.4,59.8,84.8z"/>
				<path class="st4" d="M46.4,85.1c-0.3-0.8-1.6-0.6-1.7,0.2c-0.1,0.9-1.2,1.7-1.7,2.6c-0.7,1.1-1.4,2.2-2.2,3.3
					c-1.6,2.4-2.7,5-4.4,7.3c0,0,0,0.1,0.1,0.1c2.3-2.2,4-4.8,6-7.2c1-1.2,1.7-2.6,2.8-3.7C46,86.9,46.8,86,46.4,85.1z"/>
				<path class="st4" d="M30.5,75.9c-0.2,0.2-1.3,0.6-1.7,0.9c-0.7,0.5-1.5,1-2.2,1.6c-1.5,1.1-3.1,2.3-4.6,3.5
					c-3,2.4-5.6,5.3-9.3,6.9c-0.3,0.1-0.1,0.5,0.2,0.4c4-1.2,6.8-3.6,9.8-6c1.7-1.3,3.5-2.5,5.2-3.7c1-0.7,2.1-1.4,3.3-2.1
					c0.4-0.2,1-0.4,1.1-0.9C32.6,75.6,31.2,75.1,30.5,75.9z"/>
			</g>
			<g>
				<path class="st4" d="M86.4,84c0.2,0.3,0.4,0.7,0.5,0.9c2.5,5.2,3.9,11.2,5.3,16.7c0.1,0.6-0.9,0.8-1,0.2
					c-1.4-3.8-3-7.4-4.3-11.2c-0.3-0.9-3.7-7-1.5-7.3C85.7,83.2,86.1,83.6,86.4,84z"/>
				<path class="st4" d="M99.9,85.1c0.3-0.8,1.6-0.6,1.7,0.2c0.1,0.9,1.2,1.7,1.7,2.6c0.6,1.1,1.4,2.2,2.1,3.3
					c1.6,2.4,2.7,5,4.3,7.4c0,0,0,0.1-0.1,0.1c-2.3-2.2-4-4.8-5.9-7.2c-0.9-1.2-1.7-2.6-2.8-3.8C100.3,86.9,99.5,86.1,99.9,85.1z"/>
				<path class="st4" d="M115.3,75.9c0.2,0.3,1.3,0.6,1.7,0.9c0.7,0.5,1.5,1,2.2,1.6c1.5,1.1,3.1,2.3,4.6,3.6c2.9,2.4,5.5,5.3,9.2,7
					c0.3,0.1,0.1,0.5-0.2,0.4c-4-1.2-6.7-3.7-9.7-6.1c-1.7-1.3-3.5-2.5-5.2-3.8c-1-0.7-2.1-1.4-3.3-2.1c-0.4-0.2-1-0.4-1.1-0.9
					C113.3,75.6,114.6,75.1,115.3,75.9z"/>
			</g>
		</g>
	</g>
	<g>
		<path class="st5" d="M92.3,56.7c-4.3-2-9-3.4-14-3.3c-2.5-0.3-5-0.6-7.4-0.7c-13.2-0.6-23.4,6-33.2,12.5c-1.8,1.1-1.7,2.7-0.7,3.9
			c-2.3,2.1-3.5,4.9-1.8,7.8c3.6,6.3,13,10,20.4,12.3c18.3,5.7,41.7,3.1,56.5-7.7c4.7-3.4,6.4-8.5,1.7-12.4c-1.7-1.4-3.8-2.4-6-3.3
			C103.8,61.8,98.3,58.8,92.3,56.7z"/>
		
			<linearGradient id="SVGID_3_" gradientUnits="userSpaceOnUse" x1="-703.3416" y1="-1645.4446" x2="-675.1968" y2="-1616.2998" gradientTransform="matrix(0.5153 -0.857 -0.857 -0.5153 -966.4197 -1360.4429)">
			<stop  offset="0" style="stop-color:#FFFFFF"/>
			<stop  offset="0.1534" style="stop-color:#AEE9FF"/>
			<stop  offset="0.5169" style="stop-color:#00FCFF"/>
			<stop  offset="0.7753" style="stop-color:#009AB7"/>
			<stop  offset="0.9888" style="stop-color:#00829D"/>
		</linearGradient>
		<path class="st6" d="M87.8,52.8c-0.4-0.1-0.8-0.3-1.3-0.5c-8.4-2.9-22-1.4-28.6,4.2c-1.7,0.9-3.1,2.3-3.7,3.9
			c-2.2,5.4-0.8,11.2,1.3,16.5C59.8,87,73.9,95.4,86.1,88.3c5.6-3.2,8.1-8.8,8.1-14.6c2.1-3.8,2.8-8.5,1.9-12.4
			c-0.8-3.3-2.8-5.6-5.8-7.2c-0.1-0.3-0.3-0.6-0.5-0.9C89.5,52.4,88.5,52.4,87.8,52.8z"/>
		<g>
			
				<linearGradient id="SVGID_4_" gradientUnits="userSpaceOnUse" x1="-476.6664" y1="1329.3082" x2="-298.6059" y2="1488.4913" gradientTransform="matrix(0.9301 -0.3672 0.3672 0.9301 -139.772 -1402.8022)">
				<stop  offset="0" style="stop-color:#0433FF"/>
				<stop  offset="0.2822" style="stop-color:#C13AFF"/>
				<stop  offset="0.4847" style="stop-color:#5E34FF"/>
				<stop  offset="0.7239" style="stop-color:#2B156C"/>
				<stop  offset="0.9755" style="stop-color:#170951"/>
			</linearGradient>
			<path class="st7" d="M82.2,48.4c-2.4-0.4-4.9-0.5-7.3-0.6c-2.4,0-4.9,0.2-7.3,0.6c-8.7,1.4-16.9,4.9-24.5,9.4
				c-3.9,2.3-7.7,4.8-11.4,7.4c-1.2,0.9-2.5,1.7-3.7,2.6c-1.4,1-2.8,2.1-4.2,3.2c-0.4,0.3-0.8,0.7-1.2,1c-1.3,0-2.6,0.1-3.9,0.6
				s-1.3,2.4,0,2.9c1.9,0.7,4,0.6,6,0.5c1.3-0.1,2.7-0.2,4-0.6c1.9,1.6,3.8,3.1,5.8,4.6c4.8,4.1,10.2,7.2,16,9.2
				c8.1,2.7,16.5,4.6,24.9,4.2v-1.5l0,0v1.5c8.5,0.2,16.8-1.7,24.8-4.5c5.8-2,11.1-5.2,15.8-9.4c2-1.5,3.9-3.1,5.7-4.6
				c1.3,0.3,2.7,0.4,4.1,0.5c2,0.1,4.1,0.1,6-0.5c1.3-0.5,1.3-2.4,0-2.9c-1.3-0.4-2.6-0.5-3.9-0.5c-0.4-0.3-0.8-0.7-1.3-1
				c-1.4-1.1-2.8-2.1-4.3-3.1c-1.2-0.9-2.5-1.7-3.8-2.6c-3.8-2.6-7.6-5.1-11.6-7.3C99.2,53.1,90.9,49.7,82.2,48.4z M79.5,55
				c2.5-0.4,5.5-0.3,6.2,2c1.1,3.2,0.4,8.7-0.1,12c-0.5,3-1.4,4-2.9,5.9c-0.3,0.3-0.6,0.7-0.9,1c-0.8,0.9-2,1.9-3.1,2.2
				c-1.5,0.4-3.4,0.9-5.1,0.6c-0.2,0-0.5-0.1-0.8-0.2l0,0c-0.1,0-0.2,0-0.3-0.1l0,0c-0.4-0.1-0.8-0.1-1.1-0.3c-1-0.5-2-1.2-2.8-2.1
				c-0.3-0.3-0.6-0.7-0.9-1c-0.6-0.8-1.1-1.7-1.5-2.8c-0.2-0.5-0.3-1-0.4-1.5s-0.1-1-0.3-1.5c-0.1-0.3-0.4-0.7,0-0.9
				c0.2-0.1,0.5,0.1,0.6,0.3c0.1,0.3,0.2,0.8,0.2,1.2c0,0.2-0.1,0.6,0.2,0.6c0.2,0,0.3-0.4,0.4-0.6c0.2-0.5,0.5-1,1.1-1.1
				c0.8-0.1,1.8,0.3,2.3,1c0.5,0.8,0.9,2.2,0.3,3.1c-0.5,0.8-1.4,0.2-2.2,0.1c-0.5,0-0.8,0.1-0.6,0.7c0.2,0.7,0.9,1.3,1.5,1.8
				c0.3,0.2,0.7,0.5,1,0.8c0.1,0.1,0.3,0.3,0.5,0.4c0.7,0.5,1.5,0.6,2.4,0.7c1.3,0.1,2.6,0.3,3.9-0.1c0.7-0.2,1.3-0.5,2-0.8
				c0.4-0.1,0.8-0.4,1.3-0.5c1.2-0.4,2.1-1.8,2.8-3c0.5-0.9,1.2-3.9,1.3-4.3c0-0.6,0.1-1.2,0.1-1.8c-1,0.3-1.8,0.5-2.8,0
				c-1.2-0.6-2.3-1.3-3.2-2.4c-0.6-0.6-1.2-1.4-1.3-2.3C76,56.7,78,55.3,79.5,55z M35.4,65.3c4.5-3.1,9-6,13.8-8.4
				c2.9-1.4,5.8-2.7,8.8-3.7c-1,0.4-1.9,0.9-2.9,1.5c-1.3,0.7-2.6,1.6-3.9,2.5c-2,0.8-4,1.7-5.9,2.8c-4.3,2.4-8.1,5.4-12.2,8.1
				c-1.5,1-3,1.8-4.6,2.4C30.8,68.7,33.1,66.9,35.4,65.3z M60.2,87.1c0.9,0.9,2,1.8,3,2.5c-0.6-0.3-2.1-0.3-2.8-0.4
				c-1.9-0.2-4-0.6-5.8-1.1c-1.7-0.4-3.5-1-5.1-1.8c-1.2-0.6-2.4-1.2-3.6-1.9c-4.1-2.4-8.2-5.1-11.7-8c-0.6-0.5-1.9-1.2-2.5-2
				c3.2-1.4,6.2-3,9.1-4.9c1.1-0.7,2.3-1.3,3.4-2c1.2-0.9,2.2-2,3.4-3c1.1-0.9,2.7-2.5,4.1-3c-0.5,1.8-0.2,3.5-0.1,5.3
				c0.1,2.6,0.4,5.4,1.3,7.8c0.3,0.7,0.6,1.5,0.9,2.2c0.6,1.6,1.4,3.1,2.4,4.4C57.3,83.4,58.6,85.4,60.2,87.1z M101.8,63.2
				c0.4,0.3,0.8,0.7,1.2,1c1.8,1.4,3.6,2.9,5.6,4.2c0.8,0.5,9.7,5.9,10,5.4c-0.6,0.8-1.9,1.6-2.5,2.1c-1.7,1.5-3.6,2.9-5.4,4.4
				c-1.4,1.2-3,2.3-4.5,3.3c-2.2,1.1-4.2,2.7-6.6,3.6c-1.1,0.4-2.2,0.7-3.4,1c-2.5,0.6-6.5-0.1-8.7,1.3c1-0.7,2-1.5,3-2.5
				c1.6-1.7,2.8-3.7,3.8-5.9c0.9-1.3,1.7-2.9,2.3-4.5c0.3-0.7,0.6-1.4,0.9-2.2c0.8-2.5,1.1-5.3,1.1-7.9c0-1.1,0.3-2,0-3.1
				c-0.1-0.4-0.2-2.7-0.5-2.9C99.5,61.3,100.6,62.3,101.8,63.2z M95,63.1c0.1,3.5-1,7.1-1.6,10.7c-0.3,2.2-1,4.3-2,6.3
				c-1.4,2.8-3.6,5.6-6.6,7.4c-2.4,1.4-6.3,2.6-9.3,2.5c-5.1-0.3-10.1-1.5-13.6-6c-1.4-1.8-2.9-4-4-6c-0.5-1-0.9-2-1.3-3
				c-1-2.8-1.9-6-2.3-8.9c-0.4-2.7,0-5.6,2.8-7.3c1.4-0.8,5.7-3.6,7.1-2.3c-0.2,0.9,0,1.9-0.2,2.8c-0.2,1.3-0.3,2.4-0.3,3.7
				c0.1,5.1-0.5,10,3.7,14.1c1.7,1.6,3.1,2.2,5.5,2.9c0.4,0.1,0.8,0.1,1.3,0.2c1.9,0.1,3.5,0.3,5.3-0.4c1.6-0.6,2.8-1.7,3.9-2.8
				c3.7-3.9,3.5-8.7,4-13.3c0.1-1.1-0.1-6.2,1.2-6.7c0.3-0.1,2,0.3,2.4,0.4c0.8,0.2,1.6,0.5,2.3,0.8C95.5,59.4,94.9,61.1,95,63.1z
				 M114.8,64.8c1.4,0.9,2.8,2,4.2,3c0.8,0.5,3.1,1.7,3.3,2.6c-1.7,0.5-4.5-1.1-5.9-1.8c-2.7-1.3-5.1-3.2-7.4-4.9
				c-2.1-1.6-4.4-3-6.6-4.6c-1.8-1.2-3.5-2.4-5.6-3.4c-1.7-0.8-3.2-2-5.1-2.8c3,1,6,2.2,8.9,3.6C105.6,58.9,110.2,61.8,114.8,64.8z"
				/>
			
				<linearGradient id="SVGID_5_" gradientUnits="userSpaceOnUse" x1="-753.6469" y1="-1683.8212" x2="-670.4418" y2="-1609.437" gradientTransform="matrix(0.5153 -0.857 -0.857 -0.5153 -966.4197 -1360.4429)">
				<stop  offset="0" style="stop-color:#0433FF"/>
				<stop  offset="0.2822" style="stop-color:#C13AFF"/>
				<stop  offset="0.4847" style="stop-color:#5E34FF"/>
				<stop  offset="0.7239" style="stop-color:#2B156C"/>
				<stop  offset="0.9755" style="stop-color:#170951"/>
			</linearGradient>
			<path class="st8" d="M114.1,84.9c-1.1,0.7-2.3,1.5-3.5,2.2c-2.3,1.4-4.7,2.7-7.2,3.7c-8,3.2-17.1,4.4-25.6,4.4
				c-0.8,0-1.6,0-2.4,0l0,0c-0.8,0-1.6,0-2.4,0c-8.5,0.1-17.6-0.9-25.7-4.1c-2.5-1-4.9-2.2-7.3-3.6c-1.2-0.7-2.4-1.4-3.5-2.1
				c-0.2-0.1-1-0.9-1.3-0.9c-0.4,0-0.1,0.6,0,0.9c0.7,0.9,1.7,1.4,2.6,2c1,0.7,2.1,1.4,3.1,2c2.1,1.3,4.3,2.5,6.5,3.3
				c7.8,3,16.6,4.2,24.9,4.1c1,0,2,0,3-0.1v-1v1c1,0,2,0,3,0c8.3,0,17.1-1.3,24.8-4.4c2.2-0.9,4.4-2.1,6.4-3.4c1-0.6,2.1-1.3,3.1-2
				c0.9-0.6,1.9-1.1,2.6-2c0.1-0.2,0.4-0.8,0-0.9C115.1,84,114.4,84.8,114.1,84.9z"/>
			
				<linearGradient id="SVGID_6_" gradientUnits="userSpaceOnUse" x1="-718.639" y1="-1713.177" x2="-645.8315" y2="-1648.088" gradientTransform="matrix(0.5153 -0.857 -0.857 -0.5153 -966.4197 -1360.4429)">
				<stop  offset="0" style="stop-color:#0433FF"/>
				<stop  offset="0.2822" style="stop-color:#C13AFF"/>
				<stop  offset="0.4847" style="stop-color:#5E34FF"/>
				<stop  offset="0.7239" style="stop-color:#2B156C"/>
				<stop  offset="0.9755" style="stop-color:#170951"/>
			</linearGradient>
			<path class="st9" d="M122.8,78.3c-1.9,1.3-3.8,2.7-5.5,4.3c-0.1,0.1,0,0.4,0.2,0.3c1.9-1.2,3.9-2.3,6-3.4
				C124.2,79,123.5,77.8,122.8,78.3z"/>
		</g>
		<path class="st5" d="M77.2,58.2c-1.5,2.1-0.7,5,1.9,6.2c2.5,1.3,6,0.6,7.4-1.5c1.5-2.1,0.7-5-1.9-6.2
			C82.1,55.4,78.7,56.1,77.2,58.2z"/>
		<path class="st5" d="M64.7,69.9c-1.2,1.7-0.5,3.9,1.5,5c2,1,4.7,0.4,5.9-1.2c1.2-1.7,0.5-3.9-1.5-4.9
			C68.6,67.7,65.9,68.2,64.7,69.9z"/>
		<path class="st10" d="M91.8,69.8c-2.3,5.4-5,10.1-10.7,13.5c-4.7,2.8-9.5,0.8-14.6,1.7c-1.8,0.3-2.2,2.1-1.1,3.2
			c4.7,5,14.9,3.5,20.1,0.1c6.1-4,10.7-12.2,8-18.6C93.2,69,92.1,69,91.8,69.8z"/>
		<path class="st5" d="M74.1,75.6c-0.7,1-0.3,2.3,0.8,2.9c1.2,0.6,2.7,0.2,3.5-0.7c0.7-1,0.3-2.3-0.8-2.9
			C76.3,74.3,74.8,74.6,74.1,75.6z"/>
	</g>
</g>
</svg>
