<?xml version="1.0" encoding="utf-8"?>
<!-- Generator: Adobe Illustrator 25.2.1, SVG Export Plug-In . SVG Version: 6.00 Build 0)  -->
<svg version="1.1" id="Layer_1" xmlns="http://www.w3.org/2000/svg" xmlns:xlink="http://www.w3.org/1999/xlink" x="0px" y="0px"
	 viewBox="0 0 91 94" style="enable-background:new 0 0 91 94;" xml:space="preserve">
<style type="text/css">
	.st0{fill:url(#SVGID_1_);}
	.st1{opacity:0.39;}
	.st2{fill:#0340FF;}
	.st3{opacity:0.79;fill:#FFFFFF;}
	.st4{opacity:0.5;fill:#FFFFFF;}
	.st5{fill:#D7FAFF;}
	.st6{fill:url(#SVGID_2_);}
</style>
<g>
	
		<linearGradient id="SVGID_1_" gradientUnits="userSpaceOnUse" x1="406.0703" y1="-168.2583" x2="406.0703" y2="-63.3309" gradientTransform="matrix(0.9611 0.2761 -0.2761 0.9611 -375.6723 49.0369)">
		<stop  offset="0" style="stop-color:#FCFAD9"/>
		<stop  offset="0.2515" style="stop-color:#A8FDFC"/>
		<stop  offset="0.7055" style="stop-color:#FF9DFB"/>
		<stop  offset="0.9816" style="stop-color:#00FCFF"/>
	</linearGradient>
	<path class="st0" d="M83.74,64.58c-4.22,4.39-10,7.32-16.54,7.86C52.92,73.62,40.4,63,39.22,48.73
		c-1.18-14.27,9.44-26.8,23.71-27.97c6.55-0.54,12.73,1.4,17.61,5.04C72.71,14.15,58.99,6.98,44.02,8.21
		C22.01,10.03,5.64,29.35,7.46,51.35C9.28,73.36,28.59,89.73,50.6,87.92C65.57,86.68,77.93,77.35,83.74,64.58z"/>
	<g class="st1">
		<path class="st2" d="M81.08,69.69c-0.09,0.08-0.18,0.15-0.28,0.22c0,0,0,0,0,0C81.16,69.67,81.17,69.64,81.08,69.69z"/>
		<path class="st2" d="M63.54,67.25c-0.19-0.01-0.38-0.02-0.56-0.03C63.16,67.23,63.35,67.24,63.54,67.25z"/>
		<path class="st2" d="M80.79,69.92C80.79,69.92,80.79,69.93,80.79,69.92C80.79,69.92,80.8,69.92,80.79,69.92
			c0.01-0.01,0.01-0.01,0.01-0.01C80.8,69.92,80.8,69.92,80.79,69.92z"/>
		<path class="st3" d="M72.86,18.18c-2.39-1.54-4.96-2.66-7.71-3.4c-2.73-0.74-5.63-0.74-8.42-0.41c-5.6,0.67-10.88,2.57-15.78,5.35
			c-2.11,1.2-4.11,2.62-5.93,4.23c-2.09,1.84-4.02,3.8-5.61,6.09c-1.58,2.27-2.94,4.66-3.83,7.29c-0.84,2.51-1.42,4.98-1.56,7.62
			c-0.14,2.71-0.11,5.35,0.34,8.03c0.45,2.7,1.13,5.39,2.12,7.94c1.94,4.94,5.04,9.62,9.18,12.98c2.11,1.72,4.53,3.15,7.12,4.02
			c1.65,0.55,3.28,1.03,5,1.31c1.76,0.29,3.54,0.37,5.32,0.44c2.74,0.1,5.49-0.11,8.2-0.48c3.07-0.42,6.21-0.96,9.13-2
			c1.76-0.63,3.41-1.5,5.05-2.37c1.03-0.54,2.04-1.13,3.02-1.76c0.81-1.01,1.57-2.06,2.28-3.15c0,0-0.01,0.01-0.01,0.01c0,0,0,0,0,0
			c0,0,0.01,0,0.01-0.01c1.11-1.69,2.09-3.48,2.93-5.33c-4.22,4.39-10,7.32-16.54,7.86C52.92,73.62,40.4,63,39.22,48.73
			c-1.18-14.27,9.44-26.8,23.71-27.97c6.55-0.54,12.73,1.4,17.61,5.04c-1.41-2.11-3.02-4.07-4.8-5.86
			c-0.43-0.25-0.87-0.49-1.31-0.71C73.91,18.87,73.39,18.52,72.86,18.18z"/>
	</g>
	<path class="st4" d="M43.11,73.81c-0.12-1.52-1.5-2.68-3.01-2.55c-1.52,0.12-2.68,1.5-2.55,3.01c0.12,1.52,1.5,2.68,3.01,2.56
		C42.07,76.7,43.23,75.33,43.11,73.81z"/>
	<path class="st4" d="M36.06,69.15c0.56-0.65,0.83-1.73,0.45-2.55c-0.3-0.64-0.68-1.08-1.2-1.52c-0.1-0.08-0.19-0.18-0.29-0.27
		c-0.04-0.05-0.09-0.09-0.13-0.14c-0.07-0.07-0.15-0.16-0.24-0.26c-0.01-0.01-0.03-0.03-0.04-0.04c-0.05-0.06-0.23-0.25-0.29-0.33
		c-0.25-0.31-0.49-0.62-0.72-0.94c-0.85-1.17-1.68-2.37-2.49-3.57c-1.01-1.5-1.99-3-2.62-4.7c-0.66-1.78-1.11-3.69-1.17-5.6
		C27.33,49,26.99,49,26.94,49.21c-0.42,1.93-0.39,3.84-0.07,5.78c0.33,1.98,0.73,3.97,1.21,5.92c0.37,1.49,0.81,2.93,1.4,4.35
		c0.37,0.87,0.79,1.72,1.28,2.52c0.58,0.96,1.7,2.1,2.85,2.24C34.55,70.13,35.44,69.89,36.06,69.15z"/>
	<path class="st4" d="M59.89,80.45c1.14-0.2,2.29-0.37,3.4-0.68c1.55-0.43,3.39-1.08,4.54-2.26c0.12-0.12-0.04-0.35-0.19-0.27
		c-1.48,0.7-3.3,0.47-4.89,0.63c-2.22,0.21-4.49,0-6.7-0.04c-0.13,0-0.26-0.01-0.39-0.01c-0.01,0-0.01,0-0.02,0
		c-0.08-0.01-0.16-0.01-0.24-0.02c-0.37-0.02-0.74-0.06-1.11-0.09c-0.81-0.08-1.63-0.2-2.43-0.36c-0.4-0.08-0.8-0.17-1.19-0.27
		c-0.16-0.04-0.32-0.09-0.48-0.14c-0.1-0.04-0.21-0.07-0.31-0.11c-0.29-0.11-0.58-0.25-0.85-0.4c-0.02-0.02-0.04-0.03-0.07-0.06
		c-0.52-0.4-1.12-0.5-1.74-0.29c-0.49,0.18-0.99,0.69-1.04,1.23c0,0.01-0.01,0.03-0.01,0.04c-0.05,0.58,0.05,1.26,0.58,1.62
		c1.41,0.98,3.12,1.34,4.8,1.56c1.59,0.2,3.22,0.28,4.83,0.22c0.58-0.02,1.16,0.01,1.75-0.03C58.71,80.68,59.31,80.55,59.89,80.45z"
		/>
	<path class="st5" d="M40.35,37.96c0.64-1.4,1.52-2.61,2.33-3.91c0.79-1.27,1.61-2.52,2.41-3.78c0.75-1.18,1.56-2.3,2.52-3.32
		c0.98-1.03,2.15-1.84,3.36-2.58c2.37-1.45,5.19-2.51,7.97-3.21c0.14-0.03,0.28-0.07,0.42-0.1c-0.02,0.01,0.34-0.07,0.34-0.07
		c0.34-0.07,0.69-0.13,1.04-0.19c0.75-0.13,1.51-0.22,2.27-0.29c0.7-0.06,1.4-0.1,2.1-0.11c0.36-0.01,0.72-0.02,1.08-0.01
		c0.19,0,0.38,0.01,0.57,0.02c0.09,0,0.15,0.01,0.18,0.01c0.1,0.01,0.2,0.01,0.3,0.02c2.48,0.17,4.93,0.72,7.42,0.72
		c0.79,0,1.09-1.12,0.5-1.58c-2.6-2.05-6.04-2.51-9.25-2.66c-2.99-0.14-6.12,0.5-8.97,1.36c-2.9,0.88-5.61,2.28-8.03,4.09
		c-1.22,0.91-2.34,1.94-3.3,3.13c-0.92,1.14-1.69,2.41-2.43,3.68c-0.78,1.34-1.55,2.67-2.31,4.02c-0.76,1.35-1.27,2.92-1.64,4.41
		C39.07,38.25,40.08,38.56,40.35,37.96z"/>
	<path class="st4" d="M18.09,23.78c0.65-0.86,1.35-1.67,2.16-2.36c0.84-0.72,1.72-1.41,2.61-2.07c1.79-1.33,3.74-2.52,5.71-3.56
		c1.97-1.04,4.04-1.84,6.12-2.6c1.02-0.37,2.02-0.75,3.05-1.08c1.05-0.34,2.16-0.59,3.01-1.33c0.44-0.38,0.33-1.06-0.26-1.21
		c-1.14-0.29-2.28,0.05-3.39,0.35c-1.09,0.3-2.17,0.63-3.24,1c-2.26,0.77-4.46,1.92-6.52,3.11c-2.03,1.17-3.86,2.52-5.53,4.16
		c-1.6,1.57-2.89,3.47-3.97,5.42C17.76,23.76,17.99,23.92,18.09,23.78z"/>
	<path class="st4" d="M76.1,21.37c-0.11-0.26-0.23-0.52-0.37-0.77c-0.16-0.28-0.51-0.55-0.74-0.78c-0.45-0.45-0.94-0.87-1.43-1.27
		c-1-0.81-2.07-1.53-3.14-2.23c-2.4-1.57-4.87-3.02-7.45-4.27c-2.52-1.22-5.25-2.2-8.03-2.61c-2.77-0.41-5.59-0.27-8.37,0.01
		c-0.54,0.06-0.47,0.87,0.07,0.84c2.64-0.15,5.28-0.15,7.89,0.31c2.75,0.48,5.27,1.65,7.76,2.87c2.4,1.17,4.71,2.53,6.93,4
		c1.02,0.68,2.03,1.37,2.99,2.13c1,0.78,1.81,1.78,2.83,2.51C75.54,22.47,76.39,22.03,76.1,21.37z"/>
	<path class="st4" d="M29.18,81.35c-0.64-0.43-1.34-0.73-1.98-1.16c-0.68-0.46-1.33-0.97-1.97-1.48c-1.29-1.01-2.64-1.95-3.88-3.03
		c-1.27-1.12-2.41-2.43-3.53-3.71c-0.59-0.67-1.14-1.37-1.65-2.1c-0.54-0.76-1.17-1.45-1.68-2.24c-0.08-0.11-0.24-0.02-0.2,0.1
		c0.24,0.84,0.53,1.65,0.87,2.45c0.36,0.84,0.97,1.63,1.5,2.37c0.53,0.75,1.13,1.45,1.76,2.12c0.62,0.67,1.21,1.35,1.87,1.97
		c1.24,1.17,2.64,2.14,3.96,3.21c0.68,0.55,1.37,1.1,2.09,1.6c0.68,0.47,1.42,0.99,2.26,1.09C29.22,82.62,29.8,81.76,29.18,81.35z"
		/>
	<path class="st4" d="M33.07,83.97c0.23-0.48-0.07-1.07-0.59-1.16c-0.03,0-0.24-0.06-0.23-0.05c-0.12-0.05-0.24-0.11-0.36-0.16
		c-0.28-0.14-0.55-0.32-0.88-0.3c0,0-0.01,0-0.02,0c-0.01,0-0.02,0-0.03,0l0,0c-0.06,0-0.11,0.02-0.17,0.04
		c-0.32,0.11-0.53,0.51-0.39,0.83c0.16,0.35,0.45,0.52,0.74,0.73c0.26,0.18,0.52,0.35,0.82,0.46C32.39,84.5,32.86,84.4,33.07,83.97z
		"/>
	<path class="st4" d="M50.87,87.12c0.99-0.14,1.97-0.31,2.96-0.46c1.01-0.16,2.12-0.29,3.07-0.67c0.32-0.13,0.28-0.59-0.05-0.66
		c-0.93-0.2-1.98-0.09-2.92,0.04c-0.99,0.14-1.98,0.29-2.97,0.43c-1.99,0.28-4.01,0.49-6.03,0.35c-1.73-0.12-3.49-0.37-5.21-0.62
		c-0.89-0.13-1.77-0.32-2.65-0.5c-0.4-0.08-0.83-0.09-1.24-0.15c-0.46-0.07-0.92-0.18-1.37-0.3c-0.14-0.04-0.17,0.15-0.07,0.22
		c0.75,0.48,1.53,0.91,2.33,1.3c0.76,0.38,1.76,0.5,2.58,0.67c1.78,0.37,3.57,0.53,5.38,0.71C46.74,87.68,48.85,87.41,50.87,87.12z"
		/>
	<path class="st4" d="M60.49,84.77c0.05-0.02,0.02-0.09-0.03-0.07c-0.59,0.22-1.2,0.44-1.83,0.5c-0.01,0-0.01,0.01,0,0.01
		C59.27,85.13,59.87,84.97,60.49,84.77z"/>
	<path class="st4" d="M13.15,65.14c-1.35-1.52-1.67-3.82-2.2-5.72c-0.36-1.3-0.74-2.58-1-3.92c-0.28-1.44-0.68-2.85-0.99-4.28
		c-0.04-0.19-0.3-0.17-0.31,0.03c-0.07,1.52-0.12,3.05,0.11,4.56c0.2,1.38,0.47,2.76,0.86,4.1c0.61,2.06,1.11,4.44,2.62,6.05
		C12.73,66.46,13.61,65.66,13.15,65.14z"/>
	<g>
		
			<linearGradient id="SVGID_2_" gradientUnits="userSpaceOnUse" x1="365.7019" y1="-117.7151" x2="446.4283" y2="-117.7151" gradientTransform="matrix(0.9611 0.2761 -0.2761 0.9611 -375.6723 49.0369)">
			<stop  offset="6.134950e-03" style="stop-color:#FFEE4D"/>
			<stop  offset="0.5521" style="stop-color:#F47BFB"/>
			<stop  offset="1" style="stop-color:#9B60FF"/>
		</linearGradient>
		<path class="st6" d="M6.89,51.4C6,40.6,9.36,30.11,16.37,21.84c7.01-8.27,16.81-13.31,27.61-14.2
			c14.64-1.21,28.83,5.62,37.03,17.84c0.16,0.23,0.12,0.54-0.08,0.73c-0.2,0.19-0.51,0.21-0.74,0.05
			c-4.95-3.69-11.07-5.44-17.22-4.93c-13.93,1.15-24.34,13.42-23.19,27.36c1.15,13.93,13.42,24.34,27.36,23.19
			c6.15-0.51,11.9-3.24,16.18-7.68c0.19-0.2,0.5-0.23,0.73-0.08c0.23,0.16,0.31,0.46,0.2,0.71c-6.09,13.39-18.96,22.46-33.61,23.67
			c-10.8,0.89-21.3-2.47-29.56-9.48C12.82,72,7.78,62.2,6.89,51.4z M78.22,23.59C70.07,13.32,57.26,7.69,44.07,8.78
			C22.41,10.57,6.24,29.65,8.03,51.31C9.82,72.97,28.9,89.13,50.56,87.35c13.19-1.09,24.9-8.74,31.26-20.21
			c-4.13,3.37-9.2,5.43-14.57,5.88c-14.56,1.2-27.39-9.67-28.59-24.23c-1.2-14.56,9.67-27.39,24.23-28.59
			C68.25,19.74,73.59,20.94,78.22,23.59z"/>
	</g>
</g>
</svg>
