<?xml version="1.0" encoding="utf-8"?>
<!-- Generator: Adobe Illustrator 25.2.1, SVG Export Plug-In . SVG Version: 6.00 Build 0)  -->
<svg version="1.1" id="Layer_1" xmlns="http://www.w3.org/2000/svg" xmlns:xlink="http://www.w3.org/1999/xlink" x="0px" y="0px"
	 viewBox="0 0 163 152" style="enable-background:new 0 0 163 152;" xml:space="preserve">
<style type="text/css">
	.st0{fill:url(#SVGID_1_);}
	.st1{fill:#00D0FF;}
	.st2{fill:url(#SVGID_2_);}
	.st3{opacity:0.39;}
	.st4{fill:#0433FF;}
	.st5{fill:#A5FDFF;}
	.st6{fill:#00FCFF;}
	.st7{fill:url(#SVGID_3_);}
	.st8{fill:#435CC0;}
	.st9{fill:#FFFFFF;}
	.st10{fill:url(#SVGID_4_);}
	.st11{fill:url(#SVGID_5_);}
	.st12{fill:url(#SVGID_6_);}
	.st13{fill:url(#SVGID_7_);}
	.st14{opacity:0.59;fill:#FFFFFF;}
</style>
<g>
	<g>
		
			<linearGradient id="SVGID_1_" gradientUnits="userSpaceOnUse" x1="-277.2433" y1="-1326.91" x2="-259.577" y2="-1326.91" gradientTransform="matrix(0.9997 -0.0227 0.0227 0.9997 405.6339 1339.7979)">
			<stop  offset="0" style="stop-color:#80E5E4"/>
			<stop  offset="1" style="stop-color:#FAF7CC"/>
		</linearGradient>
		<polygon class="st0" points="109.85,10.24 110.47,16.56 116.02,19.64 110.2,22.18 108.99,28.42 104.77,23.66 98.46,24.44 
			101.68,18.96 99,13.2 105.2,14.57 		"/>
		<path class="st1" d="M109.12,28.91l-4.44-5.01l-6.64,0.82l3.38-5.78l-2.82-6.06l6.53,1.44l4.9-4.57l0.65,6.66l5.86,3.24
			l-6.14,2.68L109.12,28.91z M104.86,23.42l3.99,4.5l1.15-5.9l5.52-2.41l-5.27-2.91l-0.59-5.98l-4.39,4.1l-5.88-1.3l2.55,5.46
			l-3.05,5.18L104.86,23.42z"/>
	</g>
	<g>
		<g>
			
				<radialGradient id="SVGID_2_" cx="576.7228" cy="-387.7662" r="82.983" gradientTransform="matrix(-0.9463 -0.3233 -0.3233 0.9463 500.496 626.9709)" gradientUnits="userSpaceOnUse">
				<stop  offset="0" style="stop-color:#FFFFFF"/>
				<stop  offset="0.5583" style="stop-color:#00D6FF"/>
				<stop  offset="0.9202" style="stop-color:#3E61FF"/>
			</radialGradient>
			<path class="st2" d="M70.39,11.24c-8.59,4.91-15.5,12.85-18.95,22.95c-7.52,22.01,4.23,45.96,26.25,53.48
				c22.01,7.53,45.96-4.23,53.49-26.24c3.45-10.1,2.84-20.6-0.94-29.74c15.23,16.94,21.09,41.41,13.2,64.51
				c-11.6,33.95-48.53,52.08-82.48,40.47c-33.96-11.6-52.07-48.53-40.48-82.49C28.37,31.08,47.97,15.32,70.39,11.24z"/>
			<g class="st3">
				<path class="st4" d="M61.29,13.4c-0.16,0.11-0.32,0.22-0.46,0.34c0,0-0.01,0-0.01,0C61.36,13.28,61.41,13.28,61.29,13.4z"/>
				<path class="st4" d="M58.18,42c-0.06,0.3-0.12,0.6-0.18,0.9C58.05,42.6,58.11,42.3,58.18,42z"/>
				<path class="st4" d="M60.81,13.76C60.81,13.76,60.8,13.76,60.81,13.76c0-0.01,0-0.01,0.01-0.01c0,0,0,0,0.01,0
					C60.82,13.75,60.81,13.75,60.81,13.76z"/>
				<path class="st5" d="M139.19,46.79c1.49,4.38,2.22,8.88,2.3,13.5c0.08,4.59-1.06,9.17-2.7,13.43
					c-3.29,8.57-8.38,16.13-14.7,22.73c-2.73,2.85-5.77,5.43-9.02,7.66c-3.73,2.56-7.58,4.82-11.82,6.41
					c-4.21,1.59-8.51,2.78-13,3.13c-4.28,0.33-8.41,0.27-12.63-0.57c-4.32-0.85-8.47-1.96-12.52-3.72
					c-4.08-1.78-8.04-3.92-11.66-6.5c-7.02-5.01-13.15-11.76-16.82-19.61c-1.87-4.01-3.17-8.4-3.5-12.82
					c-0.21-2.82-0.32-5.58-0.08-8.39c0.25-2.88,0.82-5.73,1.42-8.55c0.93-4.36,2.35-8.61,4.01-12.74c1.88-4.67,3.97-9.41,6.78-13.59
					c1.69-2.51,3.71-4.77,5.73-7.01c1.27-1.4,2.59-2.76,3.97-4.06c1.91-0.87,3.87-1.65,5.86-2.34c-0.01,0.01-0.01,0.01-0.02,0.02
					c0,0,0.01-0.01,0.01,0c0,0,0.01-0.01,0.02-0.02c3.11-1.07,6.3-1.91,9.56-2.5c-8.59,4.91-15.5,12.85-18.95,22.95
					c-7.52,22.01,4.23,45.96,26.25,53.48c22.01,7.53,45.96-4.23,53.49-26.24c3.45-10.1,2.84-20.6-0.94-29.74
					c2.76,3.07,5.2,6.38,7.32,9.89c0.22,0.77,0.42,1.56,0.6,2.35C138.51,44.87,138.86,45.83,139.19,46.79z"/>
			</g>
			<path class="st6" d="M39.72,71.59c2.34,0.8,3.63,3.42,2.83,5.76c-0.8,2.34-3.42,3.62-5.76,2.83c-2.34-0.8-3.63-3.42-2.83-5.76
				C34.76,72.07,37.38,70.79,39.72,71.59z"/>
			<path class="st6" d="M44.26,84.53c1.25-0.61,3.06-0.61,4.19,0.3c0.9,0.72,1.44,1.49,1.93,2.49c0.1,0.19,0.2,0.37,0.31,0.56
				c0.05,0.09,0.11,0.17,0.16,0.26c0.09,0.13,0.2,0.29,0.32,0.48c0.02,0.02,0.03,0.05,0.05,0.07c0.07,0.11,0.31,0.46,0.4,0.59
				c0.38,0.52,0.78,1.02,1.2,1.51c1.51,1.8,3.07,3.59,4.64,5.34c1.96,2.19,3.94,4.33,6.37,6c2.54,1.74,5.37,3.21,8.35,4.06
				c0.36,0.1,0.23,0.64-0.12,0.62c-3.2-0.1-6.22-0.9-9.14-2.18c-2.99-1.31-5.96-2.72-8.85-4.25c-2.2-1.17-4.3-2.44-6.29-3.94
				c-1.23-0.92-2.4-1.93-3.47-3.02c-1.27-1.3-2.64-3.51-2.39-5.38C42.13,86.53,42.85,85.22,44.26,84.53z"/>
			<path class="st6" d="M35.92,42.51c0.77-1.71,1.49-3.46,2.42-5.1c1.29-2.28,3.04-4.91,5.37-6.26c0.23-0.14,0.53,0.19,0.36,0.41
				c-1.69,2.06-2.06,5.01-2.93,7.46c-1.22,3.41-1.78,7.06-2.6,10.57c-0.04,0.21-0.09,0.41-0.13,0.62c0,0.02,0,0.02-0.01,0.03
				c-0.03,0.12-0.05,0.25-0.07,0.38c-0.11,0.59-0.2,1.18-0.29,1.78c-0.19,1.32-0.33,2.64-0.4,3.97c-0.04,0.66-0.05,1.32-0.04,1.99
				c0,0.27,0.01,0.54,0.03,0.82c0.02,0.18,0.03,0.35,0.05,0.53c0.06,0.51,0.16,1.01,0.3,1.5c0.02,0.04,0.04,0.08,0.07,0.14
				c0.42,0.97,0.34,1.97-0.24,2.85c-0.47,0.72-1.47,1.3-2.36,1.16c-0.02,0-0.05,0-0.07-0.01c-0.93-0.15-1.96-0.58-2.33-1.56
				c-0.98-2.61-0.87-5.45-0.55-8.18c0.31-2.59,0.84-5.19,1.57-7.71c0.26-0.91,0.45-1.83,0.73-2.74
				C35.1,44.26,35.54,43.38,35.92,42.51z"/>
			<path class="st6" d="M95.11,90.16c2.46-0.45,4.71-1.36,7.08-2.11c2.32-0.74,4.62-1.54,6.93-2.3c2.15-0.72,4.24-1.54,6.22-2.65
				c2.01-1.13,3.75-2.66,5.39-4.27c3.22-3.16,6.01-7.18,8.21-11.28c0.11-0.21,0.22-0.42,0.33-0.63c-0.02,0.03,0.25-0.51,0.25-0.51
				c0.25-0.51,0.49-1.04,0.72-1.56c0.5-1.13,0.94-2.29,1.35-3.46c0.38-1.08,0.7-2.17,1-3.27c0.15-0.57,0.31-1.13,0.45-1.7
				c0.07-0.3,0.14-0.61,0.2-0.91c0.03-0.14,0.05-0.23,0.06-0.28c0.03-0.16,0.06-0.32,0.09-0.48c0.72-3.97,0.82-8.06,1.81-11.97
				c0.31-1.24,2.2-1.28,2.69-0.17c2.2,4.91,1.56,10.51,0.52,15.63c-0.96,4.77-3.21,9.44-5.7,13.59c-2.53,4.21-5.82,7.93-9.64,11.02
				c-1.92,1.56-3.98,2.93-6.23,3.96c-2.17,0.98-4.48,1.7-6.76,2.36c-2.41,0.69-4.83,1.38-7.25,2.04c-2.42,0.66-5.1,0.84-7.59,0.84
				C94.14,92.06,94.05,90.35,95.11,90.16z"/>
			<path class="st6" d="M108.61,130.86c1.61-0.69,3.16-1.46,4.59-2.47c1.47-1.03,2.91-2.14,4.3-3.28c2.8-2.3,5.45-4.89,7.87-7.59
				c2.42-2.68,4.51-5.63,6.52-8.61c0.98-1.46,1.98-2.89,2.91-4.38c0.95-1.52,1.78-3.16,3.28-4.21c0.78-0.54,1.79-0.1,1.79,0.89
				c0.01,1.92-0.98,3.57-1.9,5.2c-0.9,1.6-1.86,3.17-2.86,4.71c-2.11,3.25-4.8,6.26-7.49,9.04c-2.64,2.74-5.5,5.09-8.75,7.07
				c-3.1,1.9-6.61,3.17-10.12,4.11C108.5,131.4,108.36,130.97,108.61,130.86z"/>
			<path class="st6" d="M135.45,40.42c0.37,0.29,0.73,0.58,1.07,0.91c0.38,0.35,0.66,1.01,0.93,1.46c0.53,0.89,0.99,1.82,1.43,2.76
				c0.88,1.89,1.58,3.86,2.27,5.83c1.53,4.4,2.82,8.87,3.77,13.43c0.92,4.46,1.38,9.14,0.92,13.68c-0.46,4.52-1.79,8.92-3.35,13.18
				c-0.3,0.83-1.55,0.4-1.29-0.44c1.29-4.09,2.34-8.26,2.65-12.55c0.34-4.53-0.5-8.95-1.43-13.36c-0.9-4.24-2.11-8.42-3.55-12.51
				c-0.67-1.88-1.36-3.74-2.17-5.55c-0.83-1.88-2.08-3.56-2.83-5.46C133.49,40.87,134.52,39.71,135.45,40.42z"/>
			<path class="st6" d="M22.32,90.54c0.42,1.17,0.62,2.4,1.04,3.58c0.45,1.25,1,2.48,1.54,3.69c1.08,2.44,2.02,4.94,3.24,7.31
				c1.25,2.45,2.87,4.77,4.43,7.03c0.82,1.19,1.71,2.33,2.66,3.44c0.98,1.15,1.82,2.41,2.86,3.53c0.15,0.16-0.07,0.38-0.24,0.28
				c-1.23-0.71-2.4-1.5-3.51-2.35c-1.18-0.89-2.18-2.18-3.14-3.3c-0.97-1.14-1.84-2.35-2.65-3.61c-0.8-1.24-1.64-2.44-2.36-3.73
				c-1.34-2.42-2.32-5.02-3.48-7.52c-0.6-1.29-1.19-2.59-1.69-3.93c-0.46-1.26-0.99-2.63-0.81-3.99
				C20.33,89.96,21.91,89.4,22.32,90.54z"/>
			<path class="st6" d="M19.74,83.37c0.84-0.17,1.65,0.53,1.6,1.39c0,0.05,0.01,0.4,0,0.38c0.02,0.22,0.07,0.42,0.11,0.63
				c0.11,0.5,0.29,0.99,0.13,1.51c-0.01,0.01-0.01,0.02-0.01,0.03c-0.01,0.02-0.01,0.03-0.01,0.05c0,0,0,0,0,0
				c-0.03,0.09-0.07,0.17-0.12,0.26c-0.31,0.45-1.02,0.64-1.47,0.28c-0.49-0.38-0.64-0.91-0.86-1.46c-0.19-0.48-0.35-0.97-0.4-1.48
				C18.62,84.22,18.97,83.53,19.74,83.37z"/>
			<path class="st6" d="M21.84,54.07c0.62-1.5,1.27-2.99,1.9-4.49c0.64-1.53,1.29-3.22,2.27-4.57c0.33-0.45,1.04-0.21,1.02,0.35
				c-0.05,1.55-0.64,3.16-1.22,4.58c-0.61,1.51-1.25,3-1.86,4.5c-1.24,3.03-2.37,6.13-2.95,9.35c-0.5,2.78-0.8,5.65-1.09,8.46
				c-0.15,1.46-0.2,2.91-0.26,4.37c-0.03,0.66-0.2,1.35-0.26,2.01c-0.07,0.75-0.08,1.52-0.06,2.28c0,0.23-0.31,0.21-0.37,0.02
				c-0.45-1.37-0.83-2.77-1.13-4.18c-0.29-1.35-0.08-2.97-0.03-4.33c0.12-2.94,0.59-5.84,1.01-8.75
				C19.31,60.36,20.58,57.14,21.84,54.07z"/>
			<path class="st6" d="M29.36,39.86c0.04-0.06,0.14,0,0.1,0.07c-0.58,0.85-1.17,1.71-1.51,2.69c0,0.01-0.02,0-0.01-0.01
				C28.31,41.63,28.8,40.75,29.36,39.86z"/>
			<path class="st6" d="M41.49,122.22c1.86,2.72,5.36,4.15,8.14,5.73c1.91,1.08,3.77,2.2,5.77,3.14c2.15,1.01,4.21,2.2,6.35,3.26
				c0.29,0.14,0.15,0.54-0.16,0.47c-2.43-0.5-4.85-1.03-7.14-1.98c-2.1-0.87-4.16-1.83-6.12-2.99c-3-1.78-6.55-3.51-8.49-6.54
				C39.24,122.36,40.85,121.29,41.49,122.22z"/>
			<g>
				
					<linearGradient id="SVGID_3_" gradientUnits="userSpaceOnUse" x1="1280.9861" y1="-152.0417" x2="1412.8177" y2="-152.0417" gradientTransform="matrix(0.7709 -0.637 0.637 0.7709 -859.514 1050.3879)">
					<stop  offset="0" style="stop-color:#0433FF"/>
					<stop  offset="0.3252" style="stop-color:#31CCFF"/>
					<stop  offset="0.7178" style="stop-color:#778EFF"/>
					<stop  offset="1" style="stop-color:#2B156C"/>
				</linearGradient>
				<path class="st7" d="M22.79,104.21c-7.76-15.8-8.89-33.68-3.2-50.33c7.72-22.59,27.12-39.28,50.64-43.56
					c0.44-0.08,0.88,0.17,1.04,0.6c0.15,0.42-0.02,0.9-0.41,1.13c-8.71,4.97-15.28,12.94-18.53,22.44
					c-7.35,21.5,4.17,44.97,25.66,52.31c21.49,7.34,44.96-4.17,52.31-25.66c3.24-9.5,2.92-19.83-0.92-29.08
					c-0.17-0.42-0.02-0.91,0.36-1.15c0.38-0.24,0.89-0.17,1.19,0.16c15.98,17.77,21.11,42.84,13.4,65.43
					c-5.69,16.66-17.53,30.1-33.33,37.85c-15.8,7.76-33.68,8.89-50.34,3.2C43.99,131.85,30.55,120.02,22.79,104.21z M132.06,61.73
					c-7.68,22.47-32.2,34.5-54.66,26.82c-22.47-7.68-34.5-32.21-26.83-54.67c2.83-8.29,8.09-15.46,15.05-20.63
					c-20.6,5.46-37.3,20.88-44.26,41.22c-11.42,33.41,6.48,69.89,39.9,81.31c33.41,11.42,69.89-6.48,81.3-39.89
					c6.95-20.35,3.18-42.77-9.78-59.68C135.12,44.55,134.89,53.44,132.06,61.73z"/>
			</g>
		</g>
	</g>
	<g>
		<g>
			<g>
				<path class="st8" d="M71.52,101.83c1.92-0.84,3.22-4.82,3.78-6.36c1.9-5.28,3.28-8.02,3.91-10.02c0.5-1.58,1.2-2.64,1.13-4.24
					c-1.16,1-4.33,8.27-5.28,10.48c-0.84,1.95-1.65,3.92-2.47,5.88C72.03,98.93,71.22,100.39,71.52,101.83z"/>
				<g>
					<path class="st8" d="M81.59,103.23c0.23-0.17,0.43-0.39,0.55-0.5c2.86-2.83,5.29-6.42,7.57-9.69c0.24-0.34-0.3-0.74-0.58-0.42
						c-1.82,2.14-3.77,4.18-5.57,6.34c-0.43,0.52-4.06,3.73-2.83,4.49C80.98,103.6,81.31,103.45,81.59,103.23z"/>
					<path class="st8" d="M85.98,109.71c-0.02,0.62,0.82,0.8,1.1,0.29c0.32-0.6,1.16-0.86,1.68-1.29c0.69-0.58,1.43-1.12,2.16-1.66
						c1.58-1.19,2.94-2.63,4.53-3.81c0.04-0.03,0-0.1-0.05-0.08c-1.98,0.91-3.65,2.19-5.45,3.35c-0.9,0.58-1.71,1.3-2.65,1.81
						C86.7,108.63,86,108.98,85.98,109.71z"/>
					<path class="st8" d="M92.4,117.59c0.21-0.12,0.96-0.11,1.26-0.19c0.59-0.15,1.17-0.32,1.74-0.51c1.22-0.4,2.46-0.79,3.66-1.23
						c2.41-0.88,4.7-2.15,7.37-2.37c0.2-0.02,0.19-0.32-0.02-0.33c-2.68-0.17-5.03,0.78-7.44,1.61c-1.35,0.46-2.75,0.81-4.11,1.23
						c-0.82,0.25-1.65,0.45-2.51,0.59c-0.31,0.05-0.72,0.06-0.9,0.34C91.1,117.31,91.78,117.94,92.4,117.59z"/>
				</g>
				<g>
					<path class="st8" d="M63.88,96.15c-0.05-0.29-0.04-0.58-0.05-0.74c-0.12-4.02,0.6-8.3,1.2-12.24c0.06-0.41,0.73-0.33,0.7,0.1
						c-0.16,2.81-0.15,5.63-0.34,8.43c-0.04,0.67,0.36,5.5-1.04,5.21C64.06,96.83,63.94,96.5,63.88,96.15z"/>
					<path class="st8" d="M56.23,97.81c-0.41,0.46-1.15,0.02-1-0.55c0.19-0.66-0.25-1.42-0.33-2.09c-0.1-0.9-0.27-1.8-0.42-2.69
						c-0.33-1.96-0.32-3.93-0.66-5.89c-0.01-0.05,0.07-0.07,0.09-0.02c0.81,2.03,1.13,4.1,1.64,6.19c0.25,1.04,0.34,2.12,0.68,3.14
						C56.46,96.54,56.72,97.27,56.23,97.81z"/>
					<path class="st8" d="M46.15,99.1c-0.07-0.24-0.62-0.75-0.78-1.01c-0.32-0.52-0.62-1.04-0.91-1.57
						c-0.62-1.13-1.24-2.27-1.81-3.42c-1.14-2.3-1.92-4.8-3.71-6.8c-0.14-0.15,0.08-0.36,0.24-0.23c2.06,1.72,3.1,4.04,4.28,6.29
						c0.66,1.26,1.43,2.48,2.13,3.73c0.42,0.74,0.89,1.46,1.41,2.15c0.19,0.26,0.48,0.54,0.41,0.87
						C47.28,99.78,46.36,99.78,46.15,99.1z"/>
				</g>
			</g>
			<g>
				<path class="st8" d="M65.32,118.19c-1.55-0.06-2.56,3.85-2.97,5.09c-0.37,1.14-2.61,6.39-3.12,7.98
					c-0.4,1.26-0.95,2.1-0.92,3.37c0.9-0.81,3.42-6.61,4.17-8.37c0.67-1.56,1.32-3.12,1.96-4.69
					C64.9,120.5,65.53,119.33,65.32,118.19z"/>
				<g>
					<path class="st8" d="M57.69,114.59c-0.2,0.14-0.37,0.31-0.47,0.4c-2.45,2.26-4.5,5.16-6.43,7.79c-0.2,0.28,0.29,0.62,0.52,0.36
						c1.55-1.72,3.22-3.35,4.75-5.08c0.37-0.42,3.49-2.97,2.38-3.63C58.22,114.3,57.93,114.42,57.69,114.59z"/>
					<path class="st8" d="M50.45,111.91c0-0.51-0.75-0.69-0.98-0.27c-0.26,0.49-1.01,0.67-1.45,1.02c-0.6,0.46-1.24,0.88-1.87,1.31
						c-1.37,0.94-2.53,2.09-3.91,3.02c-0.04,0.02,0.01,0.08,0.05,0.07c1.73-0.69,3.17-1.71,4.73-2.61c0.78-0.45,1.48-1.02,2.3-1.41
						C49.85,112.79,50.45,112.52,50.45,111.91z"/>
					<path class="st8" d="M43.86,103.59c-0.18,0.09-0.85,0.07-1.11,0.12c-0.52,0.11-1.03,0.23-1.53,0.37
						c-1.08,0.29-2.16,0.59-3.21,0.92c-2.11,0.66-4.1,1.65-6.46,1.75c-0.18,0.01-0.16,0.26,0.03,0.28c2.38,0.21,4.43-0.51,6.54-1.12
						c1.18-0.34,2.41-0.59,3.6-0.9c0.72-0.18,1.45-0.32,2.2-0.42c0.28-0.03,0.64-0.03,0.79-0.26
						C45.01,103.86,44.4,103.31,43.86,103.59z"/>
				</g>
				<g>
					<path class="st8" d="M72.2,119.82c0.05,0.24,0.06,0.48,0.07,0.62c0.22,3.32-0.3,6.84-0.72,10.07c-0.05,0.34-0.64,0.25-0.62-0.1
						c0.06-2.32-0.02-4.64,0.06-6.95c0.02-0.55-0.48-4.56,0.77-4.27C72.02,119.25,72.14,119.53,72.2,119.82z"/>
					<path class="st8" d="M79.2,123.31c0.35-0.37,1.02,0.02,0.9,0.48c-0.14,0.54,0.26,1.18,0.35,1.74c0.12,0.74,0.29,1.49,0.44,2.23
						c0.34,1.63,0.4,3.26,0.75,4.88c0.01,0.04-0.06,0.06-0.08,0.02c-0.78-1.7-1.12-3.42-1.63-5.16c-0.25-0.86-0.36-1.76-0.69-2.61
						C79.03,124.35,78.78,123.74,79.2,123.31z"/>
					<path class="st8" d="M89.47,121.62c0.07,0.2,0.57,0.63,0.72,0.86c0.3,0.44,0.58,0.88,0.85,1.32c0.58,0.95,1.16,1.91,1.69,2.88
						c1.07,1.93,1.84,4.02,3.47,5.72c0.12,0.13-0.07,0.3-0.21,0.18c-1.87-1.48-2.86-3.42-3.96-5.32c-0.62-1.06-1.34-2.09-1.99-3.14
						c-0.4-0.63-0.83-1.23-1.31-1.82c-0.18-0.22-0.44-0.46-0.39-0.73C88.45,121.02,89.27,121.05,89.47,121.62z"/>
				</g>
			</g>
		</g>
		<g>
			<path class="st9" d="M81.17,106.38c-1.88-2.01-4.15-3.74-6.84-4.74c-1.28-0.72-2.56-1.37-3.82-1.94
				c-6.99-3.16-13.88-1.76-20.53-0.34c-1.2,0.25-1.49,1.12-1.22,1.97c-1.69,0.66-2.91,1.89-2.63,3.85c0.58,4.18,4.9,8.15,8.37,10.95
				c8.6,6.94,21.77,10.54,32.06,7.87c3.25-0.85,5.27-3.21,3.56-6.35c-0.62-1.13-1.52-2.11-2.52-3.03
				C86.31,111.58,83.99,108.8,81.17,106.38z"/>
			
				<linearGradient id="SVGID_4_" gradientUnits="userSpaceOnUse" x1="1149.8286" y1="-183.1557" x2="1166.1115" y2="-200.0171" gradientTransform="matrix(0.794 -0.6079 0.6079 0.794 -733.464 966.5084)">
				<stop  offset="0" style="stop-color:#FFFFFF"/>
				<stop  offset="0.1534" style="stop-color:#AEE9FF"/>
				<stop  offset="0.5169" style="stop-color:#00FCFF"/>
				<stop  offset="0.7753" style="stop-color:#009AB7"/>
				<stop  offset="0.9888" style="stop-color:#00829D"/>
			</linearGradient>
			<path class="st10" d="M79.59,103.34c-0.19-0.18-0.38-0.35-0.58-0.53c-3.9-3.35-11.52-5.44-16.26-3.84
				c-1.1,0.11-2.15,0.59-2.84,1.3c-2.33,2.4-2.85,5.86-2.79,9.13c0.13,6.36,5.96,13.84,14.03,12.65c3.71-0.54,6.25-3.03,7.49-6.13
				c1.94-1.57,3.32-3.96,3.65-6.23c0.28-1.96-0.32-3.61-1.55-5.13c-0.02-0.19-0.04-0.39-0.07-0.58
				C80.59,103.48,80.05,103.26,79.59,103.34z"/>
			<g>
				
					<linearGradient id="SVGID_5_" gradientUnits="userSpaceOnUse" x1="1042.4827" y1="-288.1732" x2="1086.1848" y2="-327.2422" gradientTransform="matrix(0.9144 -0.4049 0.4049 0.9144 -785.9159 836.6969)">
					<stop  offset="0" style="stop-color:#0433FF"/>
					<stop  offset="0.2822" style="stop-color:#C13AFF"/>
					<stop  offset="0.4847" style="stop-color:#5E34FF"/>
					<stop  offset="0.7239" style="stop-color:#2B156C"/>
					<stop  offset="0.9755" style="stop-color:#170951"/>
				</linearGradient>
				<path class="st11" d="M77.51,99.78c-1.23-0.72-2.51-1.34-3.83-1.87c-1.32-0.5-2.69-0.9-4.08-1.2
					c-4.97-1.07-10.11-0.95-15.18-0.17c-2.58,0.4-5.15,0.94-7.7,1.58c-0.85,0.21-1.7,0.42-2.55,0.64c-0.98,0.25-1.95,0.52-2.92,0.83
					c-0.3,0.1-0.6,0.2-0.9,0.3c-0.72-0.26-1.45-0.49-2.23-0.51c-0.81-0.02-1.2,1.01-0.59,1.55c0.89,0.78,2,1.19,3.12,1.53
					c0.74,0.22,1.51,0.43,2.3,0.53c0.67,1.24,1.39,2.48,2.16,3.69c1.69,3.21,3.95,6.05,6.66,8.33c3.77,3.18,7.89,5.94,12.52,7.56
					l0.31-0.81l0,0l-0.31,0.81c4.52,1.93,9.41,2.66,14.32,2.84c3.53,0.13,7.1-0.44,10.48-1.69c1.37-0.38,2.73-0.82,4.05-1.28
					c0.65,0.45,1.36,0.82,2.06,1.16c1.05,0.5,2.15,0.95,3.33,0.97c0.81,0.02,1.21-1.01,0.59-1.55c-0.59-0.51-1.28-0.83-1.99-1.13
					c-0.15-0.28-0.31-0.55-0.47-0.83c-0.52-0.88-1.06-1.74-1.62-2.59c-0.48-0.74-0.98-1.46-1.47-2.2c-1.47-2.2-3.01-4.33-4.67-6.37
					C85.65,105.91,81.91,102.35,77.51,99.78z M74.65,102.78c1.46,0.31,2.99,1,2.94,2.41c-0.08,1.97-1.62,4.78-2.6,6.42
					c-0.9,1.5-1.61,1.83-2.8,2.58c-0.23,0.14-0.47,0.27-0.71,0.38c-0.64,0.29-1.47,0.6-2.16,0.53c-0.91-0.1-2.02-0.25-2.87-0.76
					c-0.13-0.09-0.27-0.19-0.4-0.29c0,0,0,0,0,0c-0.05-0.04-0.1-0.08-0.15-0.12c-0.01,0-0.01,0.01-0.01,0.01
					c-0.2-0.13-0.4-0.26-0.55-0.43c-0.44-0.51-0.81-1.1-1.08-1.73c-0.11-0.25-0.2-0.5-0.27-0.76c-0.17-0.58-0.25-1.19-0.24-1.81
					c0-0.3,0.03-0.61,0.07-0.91c0.04-0.29,0.14-0.59,0.14-0.88c0-0.17-0.07-0.48,0.18-0.52c0.18-0.03,0.24,0.17,0.24,0.32
					c0.01,0.23-0.05,0.47-0.15,0.68c-0.05,0.11-0.22,0.29-0.03,0.35c0.13,0.05,0.28-0.15,0.37-0.24c0.25-0.25,0.49-0.43,0.85-0.35
					c0.49,0.11,0.89,0.55,1,1.05c0.12,0.57,0.04,1.36-0.46,1.74c-0.46,0.35-0.83-0.2-1.21-0.41c-0.26-0.14-0.49-0.11-0.51,0.24
					c-0.03,0.46,0.23,0.91,0.44,1.28c0.13,0.22,0.28,0.45,0.38,0.69c0.06,0.12,0.1,0.23,0.17,0.34c0.26,0.42,0.7,0.68,1.11,0.91
					c0.67,0.37,1.34,0.74,2.12,0.77c0.43,0.01,0.85-0.01,1.27,0c0.27,0.01,0.55-0.03,0.83-0.02c0.77,0.04,1.54-0.53,2.14-1.01
					c0.48-0.38,1.49-1.84,1.6-2.05c0.17-0.32,0.32-0.64,0.44-0.98c-0.63-0.02-1.08-0.1-1.54-0.59c-0.55-0.58-0.94-1.21-1.22-1.98
					c-0.17-0.48-0.36-1-0.25-1.51C72.43,102.91,73.79,102.6,74.65,102.78z M48.73,98.93c3.06-0.72,6.14-1.32,9.25-1.59
					c1.84-0.16,3.68-0.22,5.52-0.15c-0.62,0.03-1.25,0.1-1.89,0.19c-0.88,0.13-1.75,0.3-2.63,0.49c-1.27,0.01-2.52,0.1-3.76,0.27
					c-2.8,0.39-5.5,1.17-8.27,1.75c-1.01,0.21-2,0.31-2.98,0.34C45.55,99.78,47.13,99.31,48.73,98.93z M57.44,115.9
					c0.3,0.72,0.68,1.38,1.11,1.98c-0.23-0.32-1.06-0.62-1.42-0.82c-0.95-0.54-1.99-1.18-2.86-1.83c-0.83-0.62-1.67-1.28-2.35-2.03
					c-0.53-0.58-1.04-1.17-1.51-1.78c-1.68-2.15-3.32-4.45-4.6-6.77c-0.21-0.38-0.75-1.06-0.93-1.64c2-0.1,4-0.28,5.91-0.69
					c0.73-0.16,1.54-0.19,2.25-0.39c0.84-0.23,1.62-0.63,2.46-0.87c0.79-0.23,1.99-0.76,2.82-0.75c-0.67,0.85-0.86,1.84-1.21,2.83
					c-0.5,1.43-0.93,2.99-0.96,4.51c-0.01,0.47,0.01,0.93,0.04,1.4c0.01,0.99,0.12,1.97,0.36,2.9
					C56.65,113.32,56.92,114.66,57.44,115.9z M84.88,111.89c0.15,0.27,0.3,0.54,0.45,0.8c0.68,1.17,1.31,2.32,2.1,3.44
					c0.32,0.46,3.95,5.2,4.26,5.02c-0.52,0.31-1.38,0.46-1.78,0.59c-1.26,0.43-2.54,0.79-3.81,1.2c-1.02,0.33-2.08,0.6-3.14,0.81
					c-1.42,0.14-2.84,0.59-4.31,0.52c-0.68-0.03-1.34-0.08-2.02-0.17c-1.49-0.19-3.51-1.46-4.96-1.15c0.72-0.16,1.43-0.39,2.13-0.72
					c1.21-0.56,2.31-1.38,3.29-2.34c0.8-0.53,1.53-1.18,2.2-1.91c0.33-0.32,0.65-0.65,0.96-1.01c0.99-1.15,1.71-2.6,2.28-4
					c0.24-0.57,0.57-1.01,0.69-1.64c0.05-0.25,0.46-1.51,0.35-1.69C84.06,110.39,84.46,111.14,84.88,111.89z M81.24,110.41
					c-0.67,1.94-2.06,3.63-3.12,5.39c-0.66,1.09-1.47,2.1-2.44,2.98c-1.36,1.22-3.12,2.25-5.15,2.55c-1.59,0.23-3.95,0.09-5.52-0.65
					c-2.67-1.26-5.11-2.98-6.04-6.09c-0.39-1.29-0.74-2.75-0.87-4.05c-0.06-0.63-0.07-1.27-0.05-1.89c0.03-1.75,0.25-3.61,0.66-5.29
					c0.38-1.55,1.17-3.01,3.03-3.33c0.92-0.16,3.79-0.72,4.33,0.26c-0.29,0.46-0.42,1.01-0.71,1.49c-0.39,0.64-0.72,1.24-0.98,1.94
					c-1.02,2.73-2.39,5.27-1.03,8.4c0.55,1.25,1.19,1.85,2.32,2.75c0.22,0.18,0.39,0.25,0.65,0.37c1,0.45,1.8,0.89,2.91,0.88
					c0.98-0.01,1.88-0.31,2.7-0.68c2.84-1.3,3.74-3.92,4.96-6.34c0.29-0.59,1.25-3.38,2.07-3.34c0.21,0.01,1,0.6,1.21,0.76
					c0.38,0.29,0.74,0.64,1.08,0.96C82.32,108.51,81.62,109.33,81.24,110.41z M91.54,115.53c0.57,0.82,1.1,1.66,1.63,2.5
					c0.3,0.47,1.28,1.59,1.25,2.1c-1.02-0.05-2.18-1.53-2.77-2.19c-1.16-1.29-2.06-2.8-2.94-4.22c-0.81-1.3-1.74-2.58-2.6-3.86
					c-0.7-1.04-1.38-2.07-2.25-3.02c-0.76-0.84-1.32-1.76-2.13-2.59c1.41,1.19,2.75,2.48,4,3.84
					C87.85,110.4,89.75,112.93,91.54,115.53z"/>
				
					<linearGradient id="SVGID_6_" gradientUnits="userSpaceOnUse" x1="1120.7513" y1="-160.9387" x2="1168.8964" y2="-203.9796" gradientTransform="matrix(0.794 -0.6079 0.6079 0.794 -733.464 966.5084)">
					<stop  offset="0" style="stop-color:#0433FF"/>
					<stop  offset="0.2822" style="stop-color:#C13AFF"/>
					<stop  offset="0.4847" style="stop-color:#5E34FF"/>
					<stop  offset="0.7239" style="stop-color:#2B156C"/>
					<stop  offset="0.9755" style="stop-color:#170951"/>
				</linearGradient>
				<path class="st12" d="M86.91,126.22c-0.78,0.15-1.56,0.3-2.34,0.43c-1.54,0.26-3.09,0.44-4.65,0.45
					c-5,0.04-10.12-1.25-14.7-3.07c-0.43-0.17-0.86-0.34-1.29-0.52l0,0c-0.44-0.16-0.87-0.32-1.31-0.48
					c-4.61-1.75-9.27-4.25-12.96-7.66c-1.14-1.06-2.17-2.25-3.15-3.48c-0.49-0.62-0.97-1.26-1.45-1.9c-0.1-0.14-0.35-0.71-0.51-0.75
					c-0.24-0.06-0.23,0.32-0.18,0.48c0.18,0.64,0.62,1.13,0.98,1.65c0.42,0.59,0.83,1.18,1.26,1.76c0.85,1.14,1.76,2.23,2.79,3.17
					c3.59,3.28,8.06,5.79,12.54,7.52c0.54,0.21,1.09,0.41,1.64,0.6l0.21-0.56l-0.21,0.56c0.54,0.23,1.07,0.45,1.61,0.66
					c4.47,1.74,9.46,2.89,14.3,2.89c1.4,0,2.8-0.2,4.18-0.47c0.7-0.14,1.4-0.29,2.1-0.45c0.62-0.14,1.27-0.21,1.82-0.56
					c0.14-0.09,0.4-0.35,0.18-0.47C87.64,125.93,87.08,126.19,86.91,126.22z"/>
				
					<linearGradient id="SVGID_7_" gradientUnits="userSpaceOnUse" x1="1140.9827" y1="-143.9808" x2="1183.1113" y2="-181.6432" gradientTransform="matrix(0.794 -0.6079 0.6079 0.794 -733.464 966.5084)">
					<stop  offset="0" style="stop-color:#0433FF"/>
					<stop  offset="0.2822" style="stop-color:#C13AFF"/>
					<stop  offset="0.4847" style="stop-color:#5E34FF"/>
					<stop  offset="0.7239" style="stop-color:#2B156C"/>
					<stop  offset="0.9755" style="stop-color:#170951"/>
				</linearGradient>
				<path class="st13" d="M93.03,124.46c-1.31,0.32-2.6,0.67-3.86,1.16c-0.12,0.04-0.06,0.22,0.05,0.2c1.3-0.23,2.61-0.42,3.92-0.58
					C93.62,125.19,93.51,124.34,93.03,124.46z"/>
			</g>
			<path class="st9" d="M72.71,104c-1.27,0.82-1.42,2.53-0.32,3.75c1.09,1.23,3.07,1.57,4.33,0.75c1.27-0.82,1.42-2.53,0.32-3.75
				C75.95,103.52,73.98,103.18,72.71,104z"/>
			<path class="st9" d="M63.52,107.63c-1,0.65-1.12,2-0.26,2.97c0.87,0.97,2.43,1.24,3.43,0.59c1-0.65,1.12-2,0.25-2.97
				C66.09,107.25,64.53,106.98,63.52,107.63z"/>
			<path class="st14" d="M78.13,113.3c-2.4,2.38-4.85,4.37-8.63,5.01c-3.11,0.53-5.31-1.57-8.22-2.17c-1.06-0.22-1.62,0.7-1.29,1.51
				c1.48,3.66,7.25,5.05,10.81,4.32c4.09-0.85,8.36-4.27,8.26-8.28C79.05,113.23,78.46,112.98,78.13,113.3z"/>
			<path class="st9" d="M67.34,112.7c-0.59,0.38-0.66,1.17-0.15,1.74c0.51,0.57,1.42,0.73,2.01,0.35c0.59-0.38,0.66-1.17,0.15-1.74
				C68.84,112.47,67.93,112.32,67.34,112.7z"/>
		</g>
	</g>
</g>
</svg>
