<?xml version="1.0" encoding="utf-8"?>
<!-- Generator: Adobe Illustrator 25.2.1, SVG Export Plug-In . SVG Version: 6.00 Build 0)  -->
<svg version="1.1" id="Layer_1" xmlns="http://www.w3.org/2000/svg" xmlns:xlink="http://www.w3.org/1999/xlink" x="0px" y="0px"
	 viewBox="0 0 718 735" style="enable-background:new 0 0 718 735;" xml:space="preserve">
<style type="text/css">
	.st0{fill:url(#SVGID_1_);}
	.st1{fill:url(#SVGID_2_);}
	.st2{fill:url(#SVGID_3_);}
	.st3{fill:url(#SVGID_4_);}
	.st4{fill:url(#SVGID_5_);}
	.st5{fill:url(#SVGID_6_);}
	.st6{fill:url(#SVGID_7_);}
	.st7{fill:url(#SVGID_8_);}
	.st8{fill:url(#SVGID_9_);}
	.st9{fill:url(#SVGID_10_);}
	.st10{fill:url(#SVGID_11_);}
	.st11{fill:url(#SVGID_12_);}
	.st12{fill:url(#SVGID_13_);}
	.st13{fill:url(#SVGID_14_);}
	.st14{fill:url(#SVGID_15_);}
	.st15{fill:url(#SVGID_16_);}
	.st16{fill:url(#SVGID_17_);}
	.st17{fill:url(#SVGID_18_);}
	.st18{fill:url(#SVGID_19_);}
	.st19{fill:url(#SVGID_20_);}
	.st20{fill:#7C00FF;}
	.st21{fill:#95F2E5;}
	.st22{fill:url(#SVGID_21_);}
	.st23{fill:url(#SVGID_22_);}
	.st24{fill:url(#SVGID_23_);}
	.st25{fill:url(#SVGID_24_);}
	.st26{fill:url(#SVGID_25_);}
	.st27{fill:url(#SVGID_26_);}
	.st28{fill:url(#SVGID_27_);}
	.st29{fill:url(#SVGID_28_);}
	.st30{fill:url(#SVGID_29_);}
	.st31{fill:url(#SVGID_30_);}
	.st32{fill:url(#SVGID_31_);}
	.st33{fill:url(#SVGID_32_);}
	.st34{fill:url(#SVGID_33_);}
	.st35{fill:url(#SVGID_34_);}
	.st36{fill:url(#SVGID_35_);}
	.st37{fill:url(#SVGID_36_);}
	.st38{fill:url(#SVGID_37_);}
	.st39{fill:url(#SVGID_38_);}
	.st40{fill:url(#SVGID_39_);}
	.st41{fill:url(#SVGID_40_);}
	.st42{fill:url(#SVGID_41_);}
	.st43{fill:url(#SVGID_42_);}
	.st44{fill:url(#SVGID_43_);}
	.st45{fill:url(#SVGID_44_);}
	.st46{fill:url(#SVGID_45_);}
	.st47{fill:url(#SVGID_46_);}
	.st48{fill:url(#SVGID_47_);}
	.st49{fill:url(#SVGID_48_);}
	.st50{fill:url(#SVGID_49_);}
	.st51{fill:url(#SVGID_50_);}
	.st52{fill:url(#SVGID_51_);}
	.st53{opacity:0.36;}
	.st54{fill:#FFFFFF;}
	.st55{display:none;opacity:0.49;}
	.st56{display:inline;fill:#FFFC94;}
	.st57{fill:url(#SVGID_52_);}
	.st58{fill:url(#SVGID_53_);}
	.st59{fill:url(#SVGID_54_);}
	.st60{fill:url(#SVGID_55_);}
	.st61{fill:url(#SVGID_56_);}
	.st62{fill:url(#SVGID_57_);}
	.st63{fill:url(#SVGID_58_);}
	.st64{fill:url(#SVGID_59_);}
	.st65{fill:url(#SVGID_60_);}
	.st66{fill:url(#SVGID_61_);}
	.st67{fill:url(#SVGID_62_);}
	.st68{fill:url(#SVGID_63_);}
	.st69{fill:url(#SVGID_64_);}
	.st70{fill:url(#SVGID_65_);}
	.st71{fill:url(#SVGID_66_);}
	.st72{fill:url(#SVGID_67_);}
	.st73{fill:url(#SVGID_68_);}
	.st74{fill:url(#SVGID_69_);}
	.st75{fill:url(#SVGID_70_);}
	.st76{fill:url(#SVGID_71_);}
	.st77{opacity:0.36;fill:#FFF490;enable-background:new    ;}
</style>
<g>
	<g>
		
			<radialGradient id="SVGID_1_" cx="-1791.4089" cy="-217.2252" r="62.5766" gradientTransform="matrix(0.963 0.2694 0.2694 -0.963 2103.1987 534.9711)" gradientUnits="userSpaceOnUse">
			<stop  offset="0" style="stop-color:#CCFAFA"/>
			<stop  offset="0.3994" style="stop-color:#81F2F2"/>
			<stop  offset="1" style="stop-color:#4E7BFB"/>
		</radialGradient>
		<path class="st0" d="M359.6,227.9c-5.5,6.3-4.1,24.6-2.9,30.8c4.2,22.3,13,41.9,25.5,57.6c-1.5-0.4-3-0.9-4.5-1.3
			c-4.2-1.1-8.5-2.3-12.3-4.3c-30-16.3-47.6-33.1-58.8-56.3c-3.4-7.1-4.8-14.7-6.2-22.1c-1-5.4-2-11-3.8-16.4
			c-0.1-0.3-0.3-0.4-0.6-0.5l-0.3,0c-0.3,0-0.5,0.1-0.7,0.4c-5.2,9.8,4.4,32.5,7.5,39.3c12.7,27.7,37.2,51.1,63.9,61.1
			c0.3,0.1,0.5,0.2,0.8,0.3c-1.6,0.1-3.3,0.1-5,0.2c-8.5,0.3-17.4,0.7-26.2-1.8c-36.9-10.3-62.9-36.5-75.3-75.7
			c-2.2-7-2.6-14.8-3-22.4c-0.2-3.5-0.4-6.9-0.7-10.1c18.6-1.7,37.9,0,57.9,5C329.5,215.3,344.3,220.7,359.6,227.9z"/>
		
			<radialGradient id="SVGID_2_" cx="-1822.8994" cy="-289.2441" r="62.7155" gradientTransform="matrix(0.963 0.2694 0.2694 -0.963 2103.1987 534.9711)" gradientUnits="userSpaceOnUse">
			<stop  offset="0" style="stop-color:#CCFAFA"/>
			<stop  offset="0.3994" style="stop-color:#81F2F2"/>
			<stop  offset="1" style="stop-color:#4E7BFB"/>
		</radialGradient>
		<path class="st1" d="M197.6,286.6c-1.6-3.1-2.8-6.3-4-9.5c6.4,9.2,14.7,18,24.4,25.8c19.3,15.4,37.7,28.9,59.9,35.1
			c8.4,2.4,17.4,3.7,27.2,3.6c16.3-0.1,31.7-5,46.5-9.9c1.6-0.5,3.3-1.1,4.9-1.6c-2,1.6-3.6,3.4-5.2,5.2c-1.8,2.1-3.8,4.2-6.3,6.1
			c-6.4,4.8-17.6,7.8-25.9,9.1C271.3,357.6,219.1,330.2,197.6,286.6z"/>
		
			<radialGradient id="SVGID_3_" cx="-1742.7515" cy="-291.3355" r="1.0892" gradientTransform="matrix(0.963 0.2694 0.2694 -0.963 2103.1987 534.9711)" gradientUnits="userSpaceOnUse">
			<stop  offset="0" style="stop-color:#CCFAFA"/>
			<stop  offset="0.3994" style="stop-color:#81F2F2"/>
			<stop  offset="1" style="stop-color:#4E7BFB"/>
		</radialGradient>
		<path class="st2" d="M345.5,347.3c0.5-0.9,1-1.7,1.7-2.4c0,0,0.1-0.1,0.1-0.1c0,0,0,0.1,0,0.1
			C346.7,345.7,346.1,346.5,345.5,347.3z"/>
		
			<radialGradient id="SVGID_4_" cx="-1697.5579" cy="-215.9318" r="247.6308" gradientTransform="matrix(0.963 0.2694 0.2694 -0.963 2103.1987 534.9711)" gradientUnits="userSpaceOnUse">
			<stop  offset="0" style="stop-color:#FBA559"/>
			<stop  offset="0.3152" style="stop-color:#F97ACF"/>
			<stop  offset="0.6429" style="stop-color:#A42CDC"/>
			<stop  offset="1" style="stop-color:#00FFFF"/>
		</radialGradient>
		<path class="st3" d="M606.9,443.7c-57.6,18.9-128.4,14.4-187.6-11.4c2.3,0.2,4.5,0.2,6.1,0.1l0-0.5c2,1.4,4.1,2.4,6,3
			c0.2,0.1,0.4,0.1,0.5,0.2c3.1,0.9,6.2,0.8,9.1,0.8c2.3,0,4.7-0.1,7.1,0.4l0.1-0.7l0-0.2c3.1,1.5,6.4,2.7,9.8,3.7
			c8.8,2.5,18.4,3.1,27.4,1.8c1.8,0.7,3.7,1.3,5.5,1.8c14.1,3.9,28.9,3.3,42.4-1.9c28.1,0.1,57.5-9.4,78.4-25.2
			c6.2-3.1,11.7-7,16.4-11.5l0.1,0.2c12-7,21.9-26,22.1-42.4c0.1-6.7-1.4-15.5-8.3-21.6c2.5,1.4,4.9,3.1,6.8,5.3
			c14.6,16.3,3.1,40.6-11.1,56.5c-17.2,19.2-44.4,28.9-63.3,34.6l0.5,2.1c23-5.7,54.3-17.9,72.9-43.9c10.3-14.4,13.3-29.7,8.2-42
			c-4.2-10.2-14-17.3-27.5-20.2c-20.4-8.9-44.4-10.1-67.8-11.4c-20.6-1.1-41.9-2.2-60.6-8.5c-6.3-2.1-12.4-4.9-18.2-8.1
			c-3-1.6-5.9-3.4-8.7-5.2c-1.4-0.9-3.1-1.8-4.4-2.9c-2.1-1.9-4.6-3.2-6.9-4.9c-2.7-2-5.4-4.1-8.1-6.2c-5.4-4.3-10.7-8.7-16.1-13.2
			c-5.4-4.5-10.9-9.1-16.4-13.4c-60.9-47.7-120.7-66.3-177.8-55.3c-10.2,2-20.7,4.4-28.9,8.7c-13.8,4.7-26,12.7-30.6,28.7
			c-0.2,0.6-0.4,1.2-0.5,1.8c-1.3,4.4-2.8,9.3-1.2,13.9c0.1,2,1.2,4.1,2.3,6.1c1,5.8,3.2,10.8,5.4,15.9c1.1,2.4,2.2,4.9,3.2,7.6
			c7.9,20.5,23.7,38.5,44.9,51.3c0,0.1,0.1,0.2,0.1,0.3c1.6,2.1,2.9,4.5,4.2,6.7c2.1,3.7,4.3,7.6,7.9,10.6
			c5.6,4.6,11.2,8.1,16.7,10.6c3.7,3.9,8.4,7.1,13.9,9.5c3,4.6,7.5,7.9,13.1,9.5c1.9,0.5,3.9,0.9,6,1c5.5,0.4,11.2-0.7,16.3-2.8
			c0.3-0.1,0.5-0.2,0.8-0.4c-1.9,2.3-3.7,4.7-5.5,7c-27.4,2.3-51.9-11.8-76.7-27.8c-29.2-18.8-54.2-43.5-70.4-69.8
			c-19.2-31.2-26-64.1-19.4-95.3c12.3-58.2,63.9-74.4,113.9-90.2c9.4-2.9,18.2-5.7,26.9-8.8c21.3-7.6,40.3-19.3,58.7-30.7
			c10.4-6.4,21.1-13,32.1-18.9c20-10.6,41.3-15.2,61.4-19c25.9-4.9,49.3-1.9,67.6,8.7c11.9,6.9,21.2,16.3,30,26.4
			c5.1,8.6,9.1,18.1,13.1,27.5c2.8,6.7,5.8,13.6,9,19.9c3.2,6.2,6.3,12.4,9.5,18.6c17.7,34.8,36,70.8,58.5,103.7
			c6.2,9.1,13.7,18.3,20.9,27.1c21.1,26,43,52.8,42.7,87.2C689,395.6,663.6,425.1,606.9,443.7z"/>
		
			<radialGradient id="SVGID_5_" cx="-1720.124" cy="-218.1364" r="40.9838" gradientTransform="matrix(0.963 0.2694 0.2694 -0.963 2103.1987 534.9711)" gradientUnits="userSpaceOnUse">
			<stop  offset="0" style="stop-color:#CCFAFA"/>
			<stop  offset="0.3994" style="stop-color:#81F2F2"/>
			<stop  offset="1" style="stop-color:#4E7BFB"/>
		</radialGradient>
		<path class="st4" d="M386.7,242.3c-0.1-0.1-1.5,6.6-1.6,7.1c-0.2,2-1.1,5.2,0.5,6.9c0.6,0.6,1.7,0.8,2.3,0.1
			c0.6-0.8,0.4-3.3,0.5-4.3c0.2-1.8,0.5-3.7,0.7-5.5c0-0.2,0.3-1.2,0.5-2c0.1-0.2,0.1-0.3,0.1-0.5c6.5,3.9,13.2,8.2,19.9,12.7
			c4.8,3.2,9.5,6.8,14.1,10.4c-0.7,1.7-1.3,3.4-1.9,5c-6,16-10.4,27.5-11.2,47.2c-0.1,3,0.5,9.4,2.6,14.4
			c-9.8-8.2-18.8-19-22.3-33.5c-0.9-3.7-1.5-7.8-2-11.9c-0.8-6.1-1.7-12.4-3.8-17.7c-0.1-0.2-0.3-0.4-0.6-0.4l-0.5,0
			c-0.2,0-0.4,0-0.5,0.2c-3.7,3.5-1.6,11.2-0.1,16.9c0.4,1.6,0.8,3,1,4.1c2.6,15.2,8.9,27.6,19.6,38.3c-2.4-2.4-5.6-4.3-8.2-6.6
			c-2.6-2.3-5.1-4.6-7.4-7.1c-4.6-4.8-8.7-10-12.3-15.6c-6.8-10.6-12-23-14.4-35.5c-0.1-0.6-0.2-1.2-0.3-1.7
			c-1.9-11.1-1.6-22.7,1.1-33.6c-0.1,0.3,10.2,5.1,11.2,5.6C378.2,237.4,382.4,239.8,386.7,242.3z"/>
		
			<radialGradient id="SVGID_6_" cx="-1644.7683" cy="-314.0741" r="27.3096" gradientTransform="matrix(0.963 0.2694 0.2694 -0.963 2103.1987 534.9711)" gradientUnits="userSpaceOnUse">
			<stop  offset="0" style="stop-color:#CCFAFA"/>
			<stop  offset="0.3994" style="stop-color:#81F2F2"/>
			<stop  offset="1" style="stop-color:#4E7BFB"/>
		</radialGradient>
		<path class="st5" d="M417.3,415.7c-1.1-2.2-1.8-4.8-1.9-7.3c0-2.5-0.8-5-0.1-7.6c0.2-1,0.6-2,0.8-3c2.1-5.9,4.5-11.3,7.1-16.5
			c1.6-3,3.6-5.9,5.5-8.7c2.7-3.9,5.4-7.8,7.1-12.3l0.2-0.6c0.1-0.3,0.3-0.7,0.4-1c1,6.9-2.1,14.3-5.4,21.9
			c-2.8,6.6-5.7,13.4-5.9,20c-0.4,11.2,4.1,21,13.1,28.4c1.1,0.9,2.3,1.8,3.5,2.6C429.8,430.5,422,425.4,417.3,415.7z"/>
		
			<radialGradient id="SVGID_7_" cx="-1774.0645" cy="-313.5271" r="24.4752" gradientTransform="matrix(0.963 0.2694 0.2694 -0.963 2103.1987 534.9711)" gradientUnits="userSpaceOnUse">
			<stop  offset="0" style="stop-color:#CCFAFA"/>
			<stop  offset="0.3994" style="stop-color:#81F2F2"/>
			<stop  offset="1" style="stop-color:#4E7BFB"/>
		</radialGradient>
		<path class="st6" d="M277.7,369.2c24,5.9,46.2-5.9,65.5-21.1c-0.4,0.6-0.9,1.2-1.3,1.7c-3.7,4.9-7.5,9.9-12.3,13.1
			C311.4,375.3,295.7,377.3,277.7,369.2z"/>
		
			<radialGradient id="SVGID_8_" cx="-1815.9254" cy="-233.2137" r="67.5068" gradientTransform="matrix(0.963 0.2694 0.2694 -0.963 2103.1987 534.9711)" gradientUnits="userSpaceOnUse">
			<stop  offset="0" style="stop-color:#CCFAFA"/>
			<stop  offset="0.3994" style="stop-color:#81F2F2"/>
			<stop  offset="1" style="stop-color:#4E7BFB"/>
		</radialGradient>
		<path class="st7" d="M251.7,207.2c-0.3,5.2,1.3,12.9,2.5,18.7c0.3,1.5,0.6,3,0.8,4.1c7.8,42.6,38.4,77,79.7,89.8
			c0.7,0.2,1.4,0.4,2.1,0.6c7.9,2.2,16.2,3.2,24.4,3c-0.7,0.2-1.3,0.3-2,0.5c-3.4,1.1-6.7,2.3-10,3.5c-1.1,0.2-2.2,0.4-3.1,0.5
			c-24.8,3.4-47.2-1.1-68.5-13.5c-19.6-11.5-47.2-49.2-49.7-59.8c-0.5-2.1-1-4.2-1.6-6.4c-2.2-8.6-4.2-16.6-4.5-26.4
			c-0.1-2.6,0.5-5.1,1.1-7.9c0-0.1,0-0.2,0.1-0.4C232.4,210.6,241.9,208.4,251.7,207.2z"/>
		
			<radialGradient id="SVGID_9_" cx="-1840.5049" cy="-249.1622" r="67.2208" gradientTransform="matrix(0.963 0.2694 0.2694 -0.963 2103.1987 534.9711)" gradientUnits="userSpaceOnUse">
			<stop  offset="0" style="stop-color:#CCFAFA"/>
			<stop  offset="0.3994" style="stop-color:#81F2F2"/>
			<stop  offset="1" style="stop-color:#4E7BFB"/>
		</radialGradient>
		<path class="st8" d="M217.2,215.8c-1,5.3,0.2,13.1,0.9,18c0.2,1.1,0.3,2,0.4,2.7c3.9,32.4,29.8,63.8,52.3,79.3
			c9.5,6.6,19.9,11.6,30,14.4c0.3,0.1,0.6,0.2,0.9,0.2c9.8,2.6,20.5,3.6,31.8,3c-4.4,1.4-8.9,2.5-13.8,3.2
			c-24.5,3.5-49.1-2.6-77.4-19.3c-13-7.7-24.5-18.1-34.5-29.3c-3.7-4.1-6.9-9.1-10.9-12.9c-4-3.8-7.8-8-9.4-13.4
			c-2-6.9-0.3-14.5,2.3-21c2.5-6.1,6.4-11.5,11.4-15.9c1.5-1.3,3.2-2.5,4.9-3.7c0.9-0.6,1.8-1.2,2.8-1.8c0.6-0.3,2.2-1.6,2.8-1.5
			c0.1,0,0.2,0,0.3-0.1C213.7,217.1,215.4,216.5,217.2,215.8z"/>
		
			<radialGradient id="SVGID_10_" cx="-1637.4685" cy="-240.5512" r="28.347" gradientTransform="matrix(0.963 0.2694 0.2694 -0.963 2103.1987 534.9711)" gradientUnits="userSpaceOnUse">
			<stop  offset="0" style="stop-color:#CCFAFA"/>
			<stop  offset="0.3994" style="stop-color:#81F2F2"/>
			<stop  offset="1" style="stop-color:#4E7BFB"/>
		</radialGradient>
		<path class="st9" d="M467,301.8c9.3,6.5,19.2,12.2,29.7,16c-33.8,25.5-59.1,25.5-72.5,22.5c14.9-1.8,31.5-18.2,38-30
			c0.4-0.7,0.9-1.5,1.4-2.4C464.8,306,466,303.9,467,301.8z"/>
		
			<radialGradient id="SVGID_11_" cx="-1771.0405" cy="-329.4273" r="12.1903" gradientTransform="matrix(0.963 0.2694 0.2694 -0.963 2103.1987 534.9711)" gradientUnits="userSpaceOnUse">
			<stop  offset="0" style="stop-color:#CCFAFA"/>
			<stop  offset="0.3994" style="stop-color:#81F2F2"/>
			<stop  offset="1" style="stop-color:#4E7BFB"/>
		</radialGradient>
		<path class="st10" d="M292,378.1c3.1,0.9,6.9,0.7,10,0.6c3.6-0.1,7.3-0.7,10.8-1.6c3.8-1,7.5-2.4,11-4.2c0.6-0.3,1.3-0.6,2-0.9
			c-1,1.2-2,2.4-2.9,3.5c-0.9,0.4-1.8,0.9-2.8,1.3c-3.1,1.4-6.4,2.5-9.9,3.1c-3.1,0.6-6.3,0.7-9.5,0.4C297.7,380,295,379,292,378.1z
			"/>
		
			<radialGradient id="SVGID_12_" cx="-1798.9722" cy="-314.1867" r="31.8243" gradientTransform="matrix(0.963 0.2694 0.2694 -0.963 2103.1987 534.9711)" gradientUnits="userSpaceOnUse">
			<stop  offset="0" style="stop-color:#CCFAFA"/>
			<stop  offset="0.3994" style="stop-color:#81F2F2"/>
			<stop  offset="1" style="stop-color:#4E7BFB"/>
		</radialGradient>
		<path class="st11" d="M246.5,343.7c-0.6-0.9-1.1-1.9-1.7-2.8c0.2,0.1,0.4,0.2,0.5,0.3c8,4.2,16.5,7.5,25.1,9.9
			c16.7,4.7,33.9,5.9,49.8,3.4c2-0.3,6.1-1.1,11-2.5c-19,12.8-39.5,20-64.4,7.7c-5.4-2.7-12.2-6.3-16.3-10.4
			C248.8,347.7,247.7,345.8,246.5,343.7z"/>
		
			<radialGradient id="SVGID_13_" cx="-1664.769" cy="-228.3284" r="27.339" gradientTransform="matrix(0.963 0.2694 0.2694 -0.963 2103.1987 534.9711)" gradientUnits="userSpaceOnUse">
			<stop  offset="0" style="stop-color:#CCFAFA"/>
			<stop  offset="0.3994" style="stop-color:#81F2F2"/>
			<stop  offset="1" style="stop-color:#4E7BFB"/>
		</radialGradient>
		<path class="st12" d="M439.1,279.8c7.7,6.5,15.6,13,23.8,19c-0.8,1.5-1.7,3.2-2.8,5.4c-0.9,1.7-1.7,3.3-2,3.7
			c-8.4,10.9-18.9,22.7-33.5,27.1c-1.5,0.4-2.7,0.3-3.8-0.5c-3.5-2.6-4.5-11.2-4.4-15.8c0.1-14.8,3.9-27,7.8-39.9
			c0.9-3,1.8-6,2.7-9.1C431,273,435.1,276.5,439.1,279.8z"/>
		
			<radialGradient id="SVGID_14_" cx="-1549.4707" cy="-259.262" r="79.5058" gradientTransform="matrix(0.963 0.2694 0.2694 -0.963 2103.1987 534.9711)" gradientUnits="userSpaceOnUse">
			<stop  offset="0" style="stop-color:#CCFAFA"/>
			<stop  offset="0.3994" style="stop-color:#81F2F2"/>
			<stop  offset="1" style="stop-color:#4E7BFB"/>
		</radialGradient>
		<path class="st13" d="M568.6,421.9c-22.7-0.2-47.5-7.3-71.7-20.7c-17.9-9.9-33.9-22.5-46.4-36.2c8.3,5.5,16.8,10.5,25.8,14.2
			c7.3,3,14.6,5.5,21.9,7.5c21.8,6.1,43.1,7.8,62.6,5c3.7-0.5,7.3-1.2,10.9-2c11.9-2.8,23.3-7.5,33.8-13.8c5.3-3.2,10.3-6.8,15-10.8
			c2.4-2,4.8-4.2,7.1-6.4c2.2-2.2,4.6-4.4,6.2-7c0.3-0.5,0.5-1,0.2-1.5c-0.3-0.5-1.1-0.5-1.7-0.4c-1,0.3-1.9,0.7-2.8,1.3
			c-4.6,3.4-8.7,7.6-13.3,11.1c-4.4,3.3-8.9,6.5-13.6,9.3c-8.9,5.4-18.4,9.7-28.4,12.6c-9.8,2.9-19.9,4.5-30.1,4.8
			c-10.8,0.3-21.6-0.8-32.1-3c-11.7-2.4-23.2-6.1-34.3-10.6c-12.1-4.9-23.3-12.5-34.1-19.9c-1.1-0.7-2.2-1.5-3.3-2.2
			c0.7,0.2,1.4,0.5,2.2,0.7c9.9,4.8,20.2,9.4,31,12.7c1,0.3,2,0.6,3,0.9c24.9,7,54.9,9.1,82.8,5.8c22.7-2.7,54.5-10.2,78-30.6
			c0.8,0.6,1.6,1.2,2.3,1.9c4.4,4.1,6.6,9.9,6.5,17.2c-0.2,10.2-5.1,21.9-11.2,30.8C618.6,411.9,595.7,422,568.6,421.9z"/>
		
			<radialGradient id="SVGID_15_" cx="-1619.5769" cy="-317.8003" r="27.9313" gradientTransform="matrix(0.963 0.2694 0.2694 -0.963 2103.1987 534.9711)" gradientUnits="userSpaceOnUse">
			<stop  offset="0" style="stop-color:#CCFAFA"/>
			<stop  offset="0.3994" style="stop-color:#81F2F2"/>
			<stop  offset="1" style="stop-color:#4E7BFB"/>
		</radialGradient>
		<path class="st14" d="M438.8,422.9c-5.5-5.7-8.1-13-7.8-21.8c0.2-6.6,2.7-13.2,5.1-19.6c1.4-3.7,2.8-7.4,3.7-11
			c0.1,2.6,0.1,5.3,0.1,7.9c0,6.9-0.1,14,2.1,19.8c6.5,16.9,19.3,30.9,35.6,39.2C463.4,436.2,447.9,432.5,438.8,422.9z"/>
		
			<radialGradient id="SVGID_16_" cx="-1560.9532" cy="-307.0609" r="59.3043" gradientTransform="matrix(0.963 0.2694 0.2694 -0.963 2103.1987 534.9711)" gradientUnits="userSpaceOnUse">
			<stop  offset="0" style="stop-color:#CCFAFA"/>
			<stop  offset="0.3994" style="stop-color:#81F2F2"/>
			<stop  offset="1" style="stop-color:#4E7BFB"/>
		</radialGradient>
		<path class="st15" d="M578.6,430c-29.6,11-77.6,8.3-101.9-13.2c-11.8-10.5-18.8-26-25.6-41c-1.6-3.5-3.1-7-4.7-10.3
			c19.9,25.7,49.9,45.1,82,54.1c14.2,4,28.8,5.9,43.1,5.4c9.5-0.3,18.3-1.7,26.3-4C590.9,424.8,584.6,427.7,578.6,430z"/>
		
			<radialGradient id="SVGID_17_" cx="-1593.8571" cy="-314.059" r="39.6163" gradientTransform="matrix(0.963 0.2694 0.2694 -0.963 2103.1987 534.9711)" gradientUnits="userSpaceOnUse">
			<stop  offset="0" style="stop-color:#CCFAFA"/>
			<stop  offset="0.3994" style="stop-color:#81F2F2"/>
			<stop  offset="1" style="stop-color:#4E7BFB"/>
		</radialGradient>
		<path class="st16" d="M446.5,396.8c-2-5.3-2.1-12-2.2-18.4c0-3.2-0.1-6.5-0.4-9.7c0.5,1.3,1,2.6,1.6,3.9c7,17.4,14.2,35.4,28,47.6
			c9.1,8,19.9,13.5,31.6,16.8c6.6,1.8,13.5,3,20.5,3.5C489.7,445.5,458.6,428.7,446.5,396.8z"/>
		
			<radialGradient id="SVGID_18_" cx="-1655.1467" cy="-344.4966" r="6.9606" gradientTransform="matrix(0.963 0.2694 0.2694 -0.963 2103.1987 534.9711)" gradientUnits="userSpaceOnUse">
			<stop  offset="0" style="stop-color:#CCFAFA"/>
			<stop  offset="0.3994" style="stop-color:#81F2F2"/>
			<stop  offset="1" style="stop-color:#4E7BFB"/>
		</radialGradient>
		<path class="st17" d="M409.4,422.2c0-0.3,0-0.6,0-0.9c0.7-3.1,1.5-6.1,2.2-9c0,0.5,0,1.1,0.1,1.6c0.6,5.7,5.6,11.3,9.8,15
			c-0.5-0.5-3-0.4-3.8-0.5c-1.3-0.2-2.6-0.6-3.8-1.1C411.8,426.3,409.7,424.7,409.4,422.2z"/>
		
			<radialGradient id="SVGID_19_" cx="-1562.6244" cy="-240.0936" r="72.1014" gradientTransform="matrix(0.963 0.2694 0.2694 -0.963 2103.1987 534.9711)" gradientUnits="userSpaceOnUse">
			<stop  offset="0" style="stop-color:#CCFAFA"/>
			<stop  offset="0.3994" style="stop-color:#81F2F2"/>
			<stop  offset="1" style="stop-color:#4E7BFB"/>
		</radialGradient>
		<path class="st18" d="M452.4,348.3c-0.2,0.1-1.6,1.4-1.4,1.5c2.6,1.6,5.8,0.6,8.6,0c2.6-0.5,5.1-1.1,7.7-1.8
			c11.5-3.4,20.7-10.5,29.9-17.8c3-2.4,6.1-4.9,9.7-7.7c0.3-0.2,0.3-0.6,0.2-0.9l-0.4-0.7c21.1,5.8,42.8,7.1,63.9,8.4
			c7.8,0.5,15.8,0.9,23.7,1.6l0.2,0c12.4,1.1,28.9,2.5,40.5,9.9c-20.4,15.1-46.8,25.1-76.5,28.9c-28.3,3.6-58.2,1.3-84.1-6.6
			c-5.6-1.7-11.2-3.8-16.6-6c24.5,3.6,49.6-0.2,65.3-3.8c17.1-3.8,33.6-8.2,46.3-19.2l-0.9-1l-0.8-1l-0.4-0.6
			c-20.7,13.8-64.6,33.5-131,16.5c-0.6-0.3-1.3-0.6-2-1c-0.3-0.3-0.6-0.6-0.9-0.9c23.7,2.4,52.4-13.8,67.3-27.1
			c1.7,0.5,3.4,1.1,5.1,1.5c-4.4,2.3-8.2,5.6-11.9,8.8c-2.5,2.1-5,4.3-7.7,6.1c-5.4,3.7-11.2,6.7-17.3,8.8c-3,1-6.1,1.8-9.1,2.5
			c-1.6,0.4-3.3,0.7-4.9,1C454,348,453.1,348,452.4,348.3z"/>
		<g>
			
				<radialGradient id="SVGID_20_" cx="-1691.911" cy="-154.4852" r="253.305" gradientTransform="matrix(0.963 0.2694 0.2694 -0.963 2103.1987 534.9711)" gradientUnits="userSpaceOnUse">
				<stop  offset="0" style="stop-color:#FF00B7"/>
				<stop  offset="0.3448" style="stop-color:#7D04D3"/>
				<stop  offset="0.6281" style="stop-color:#7C00FF"/>
				<stop  offset="0.9693" style="stop-color:#7C00FF"/>
			</radialGradient>
			<path class="st19" d="M406.6,433.7c-0.9-1.1-1.3-2.2-1.1-3.4c0-0.2,0.1-0.3,0.2-0.4l2.7-2.3c0.2-0.2,0.5-0.2,0.7-0.1
				c61,30,136.8,36.2,197.8,16.1c56.7-18.6,82.2-48.2,82.6-95.8c0.3-34.4-21.5-61.2-42.7-87.2c-7.2-8.8-14.7-18-20.9-27.1
				c-22.5-32.9-40.8-68.9-58.5-103.7c-3.2-6.2-6.3-12.4-9.5-18.6c-3.2-6.3-6.2-13.2-9-19.9c-4-9.3-8-18.9-13.1-27.4
				c-8.8-10.1-18.1-19.5-30-26.4C487.5,27,464.1,24,438.2,28.9c-20.1,3.8-41.3,8.4-61.4,19c-11.1,5.8-21.8,12.5-32.1,18.9
				c-18.4,11.4-37.4,23.2-58.7,30.7c-8.6,3.1-17.5,5.9-26.9,8.8c-50,15.7-101.6,32-113.9,90.2c-6.6,31.2,0.1,64.2,19.4,95.3
				c16.2,26.2,41.2,51,70.4,69.8c14.1,9,28.5,18,44.5,23.4c7.6,2.6,15.6,4.3,23.6,4.6c2.9,0.1,18.9-1.8,19.9,1.3
				c0.3,0.7-0.6,1.3-1.3,1.6c-6.2,2.3-12.1,0.5-18.4,0.5c-6.8,0.1-13.5-1-20-2.8c-17.6-4.9-34.3-15.5-48.7-24.6l-1.6-1
				c-32.3-20.4-61.5-51.5-78.3-83.4c-14.5-27.4-26.9-68.9-4.1-110.4c23.1-41.9,61.8-54.3,102.8-67.5c10.2-3.3,20.8-6.7,31-10.5
				c18.3-6.9,34.1-16.4,50.9-26.5c5.8-3.5,11.8-7.1,17.9-10.6c69.4-39.6,122.1-45.8,161.2-18.9c4,2.8,7.8,5.5,11.2,8.4l0.2-0.2
				c2.2,1.9,4.3,4,6.2,6.1c4,4.2,7.3,8.8,10,14.1c4.3,7.5,7.9,15.6,11.5,23.5c1,2.2,1.9,4.3,2.9,6.4c8.9,19.6,19.2,39.6,29,58.2
				c17.4,33.2,36.6,63.9,55.3,88.9c2.6,3.5,5.3,7.1,8,10.6c29.8,39,60.6,79.4,39.6,131.9c-13.4,33.5-42,56.4-85,68
				c-40.4,10.9-84,9.4-113.6,6.2l-1.7-0.2c-5.7-0.6-11.1-1.2-16.6-2.3l-1.2-0.2c-9-1.8-19.2-3.9-29-6.6c-8.4-2.4-16.6-5.2-23.5-8.9
				c-0.5-0.2-1.1-0.5-1.7-0.9c-6.5-3.2-14.2-8.3-13.2-16.7c0-0.3,0.1-0.6,0.3-0.8c0.6-0.7,1.7,0.1,2.2,0.8
				c3.4,4.2,6.8,8.4,10.1,12.6L406.6,433.7z"/>
		</g>
		<g>
			<path class="st20" d="M575.8,308.9c-15-1.4-30.3-2.8-44.3-6.7c-5.7-1.6-11.1-3.6-16.2-6.2c-0.3-0.1-0.4-0.5-0.3-0.8l0.5-1.3
				c0.1-0.2,0.2-0.3,0.4-0.4c0.2-0.1,0.3-0.1,0.5,0c15.1,5.6,33.4,7.5,52.8,9.6c32.1,3.5,65.4,7.1,84.7,28l-1,0.9c0,0,0,0,0,0
				l-0.6,0.5l0,0l-0.5,0.5C632.8,314.1,603.8,311.5,575.8,308.9z"/>
			<path class="st20" d="M489.6,276.3l-0.3,0.9c0,0,0,0,0,0l-0.2,0.6l0,0l0,0l-0.2,0.6c-22.5-7.5-41.9-21.8-60.6-35.7
				c-9.2-6.8-18.7-13.8-28.4-19.9c-18.1-11.4-38.7-18.5-58.6-25.4c-11.4-3.9-23.1-8-34.2-12.8c-0.3-0.1-0.5-0.5-0.4-0.8l0.1-0.4
				c0.1-0.3,0.4-0.5,0.7-0.5c8.3,0.1,16.5,3,24.4,5.8c3.6,1.3,7.4,2.6,11.1,3.6c23.9,6.5,47.9,17.6,65.8,30.6
				c5.7,4.1,11.4,8.5,17,12.7c20,15.2,40.7,30.9,64,39.9L489.6,276.3z"/>
			<path class="st20" d="M252.9,178c0-0.3,0.2-0.6,0.6-0.7c9.8-1.5,18.6-0.3,27.9,0.9c2.9,0.4,6,0.8,9.1,1.1l-0.1,0.7l-0.2,1.9l0,0
				l0,0.7c-5.8-0.3-11.6-1-17.2-1.7c-6.3-0.8-12.9-1.5-19.4-1.8c-0.1,0-0.1,0-0.2,0c-0.3-0.1-0.5-0.4-0.5-0.7L252.9,178z"/>
			<path class="st20" d="M170,282.6c0.1,0.2,0.2,0.4,0.1,0.5s-0.2,0.4-0.3,0.5l-0.5,0.3c-0.2,0.1-0.4,0.1-0.5,0.1
				c-0.1,0-0.2-0.1-0.3-0.2c-8.4-9.2-12.2-20.9-11.1-33.9c1.9-21.6,17-42.2,31-52.9c11.3-8.7,24.9-13.5,36.8-17.7l0.2,0.6l0,0l0,0
				l0.2,0.6c0,0-0.1,0-0.1,0l0.2,1.1l0,0l0.3,0.6c-2.7,1.2-5.5,2.4-8.1,3.6c-9.6,4.1-18.6,8-27,14.5
				C165.7,219.9,150.5,256.9,170,282.6z"/>
			<path class="st20" d="M258.7,369.1c0,0.2,0,0.4-0.1,0.5c-0.1,0.3-0.5,0.5-0.8,0.4c-0.9-0.2-1.7-0.4-2.6-0.6
				c-27.6-7.7-64.4-50.6-68.6-55.6l-1.6-1.9c-4.8-5.6-10.8-12.7-13-19.2l0.7-0.2l0.8-0.4c0,0,0-0.1,0-0.1l0.6-0.3l0,0l0,0l0.6-0.3
				c12.1,28,52.8,61.9,83.6,77.2C258.5,368.8,258.7,369,258.7,369.1z"/>
			<path class="st20" d="M669,386.5c-5.7,18.1-22.2,35-45.3,46.6c-17.6,8.8-40.3,13.5-62.2,17.6l-0.1-0.7l-0.2-1.1l-0.2-0.7l2.2-0.6
				c36.5-10.1,82-22.7,98-52.9c7.2-13.7,7.7-30.2,1.3-49c-0.1-0.3,0-0.7,0.4-0.8l0.4-0.2c0.3-0.1,0.7,0,0.9,0.3
				C671.6,359,673.3,372.9,669,386.5z"/>
		</g>
		<g>
			<path class="st21" d="M648,394.7c-18.6,25.9-49.9,38.2-72.9,43.9l-0.5-2.1c19-5.6,46.1-15.4,63.3-34.6
				c14.2-15.9,25.7-40.2,11.1-56.5c-4.9-5.5-12.4-8.1-19.6-10.5c-1.5-0.5-2.9-1-4.3-1.5c-0.3-0.1-0.5-0.4-0.4-0.8l0-0.2
				c0.1-0.4,0.4-0.6,0.8-0.6c15.2,2.5,26.1,9.9,30.7,20.8C661.3,365,658.4,380.3,648,394.7z"/>
			<path class="st21" d="M267.5,199.1l0,0.6l-4.3,0.1c-15.3,0.4-31.2,0.8-45.9,5.9c-11.2,3.9-21.1,10.7-28.5,19.7
				c-18.3,22-14.5,38.9,0.8,68.4c0.1,0.2,0.1,0.4,0,0.5c-0.1,0.2-0.2,0.3-0.3,0.4l-0.5,0.2c-0.1,0.1-0.3,0.1-0.5,0
				c-0.2,0-0.3-0.2-0.4-0.3c-19.3-34.9-23-55.9,8.3-81.2c5.8-4.7,12.8-8.4,20.2-10.9c16.4-5.4,33.5-5.1,50.1-4.7l1,0L267.5,199.1
				L267.5,199.1z"/>
		</g>
		<g>
			
				<radialGradient id="SVGID_21_" cx="-1700.0566" cy="-286.0189" r="265.3546" gradientTransform="matrix(0.963 0.2694 0.2694 -0.963 2103.1987 534.9711)" gradientUnits="userSpaceOnUse">
				<stop  offset="3.070000e-02" style="stop-color:#7C00FF"/>
				<stop  offset="0.4951" style="stop-color:#1C78FF"/>
				<stop  offset="0.6675" style="stop-color:#7C00FF"/>
				<stop  offset="1" style="stop-color:#7D04D3"/>
			</radialGradient>
			<path class="st22" d="M421.8,308.6c-1,6.6-1.2,13.3-0.9,19.9c0,0.3-0.2,0.6-0.5,0.7l-0.3,0.1c-0.1,0-0.2,0-0.3,0
				c-0.2-0.1-0.4-0.2-0.5-0.5c-2.1-6.7-2.1-13.7-0.8-20.5c0.6-3.4,1.6-6.8,2.6-10.1c0.4-1.5,1-2.8,1.6-4.3c0.4-0.9,0.7-1.8,1.2-2.7
				c0.3-0.5,1.3-1.8,1.3-2.3c0,1.3,0,2.5-0.1,3.8C424.4,298.1,422.6,303.4,421.8,308.6z"/>
			
				<radialGradient id="SVGID_22_" cx="-1700.0557" cy="-286.0185" r="265.3453" gradientTransform="matrix(0.963 0.2694 0.2694 -0.963 2103.1987 534.9711)" gradientUnits="userSpaceOnUse">
				<stop  offset="3.070000e-02" style="stop-color:#7C00FF"/>
				<stop  offset="0.4951" style="stop-color:#1C78FF"/>
				<stop  offset="0.6675" style="stop-color:#7C00FF"/>
				<stop  offset="1" style="stop-color:#7D04D3"/>
			</radialGradient>
			<path class="st23" d="M403.6,316.8c0,0.1,0,0.2-0.1,0.3c-0.2,0.2-0.5,0.1-0.7-0.1c-1.6-1-2.3-3-3.1-4.6c-0.9-1.8-1.8-3.6-2.5-5.4
				c-5.7-13.4-7.5-28.3-4.5-42.7c0.1-0.3,0.4-0.6,0.7-0.5l0.2,0c0.2,0,0.4,0.1,0.5,0.2c0.1,0.2,0.2,0.3,0.1,0.5
				c-0.3,2.8-0.6,5.7-0.6,8.6c-0.1,7.6,0.8,15.1,2.6,22.5c1,3.7,2.1,7.4,3.6,11c0.7,1.8,1.5,3.6,2.3,5.4c0.4,0.9,1,1.9,1.3,2.9
				C403.6,315.5,403.7,316.1,403.6,316.8z"/>
			
				<radialGradient id="SVGID_23_" cx="-1700.0552" cy="-286.0186" r="265.3453" gradientTransform="matrix(0.963 0.2694 0.2694 -0.963 2103.1987 534.9711)" gradientUnits="userSpaceOnUse">
				<stop  offset="3.070000e-02" style="stop-color:#7C00FF"/>
				<stop  offset="0.4951" style="stop-color:#1C78FF"/>
				<stop  offset="0.6675" style="stop-color:#7C00FF"/>
				<stop  offset="1" style="stop-color:#7D04D3"/>
			</radialGradient>
			<path class="st24" d="M310.3,226.7c3.3,32,23.6,50.4,45.1,70c5.5,5,11.1,9.5,17.9,12.8c0.7,0.4,1.6,1,1.4,1.8
				c-11.3-2.4-19.7-10.7-28.1-18.1c-9.6-8.5-18.8-17.8-25.8-28.8c-7.2-11.3-11.5-24.1-12.4-37.5c0-0.4,0.2-0.7,0.6-0.7l0.4,0
				C309.9,226,310.2,226.3,310.3,226.7z"/>
			
				<radialGradient id="SVGID_24_" cx="-1700.0541" cy="-286.0199" r="265.3508" gradientTransform="matrix(0.963 0.2694 0.2694 -0.963 2103.1987 534.9711)" gradientUnits="userSpaceOnUse">
				<stop  offset="3.070000e-02" style="stop-color:#7C00FF"/>
				<stop  offset="0.4951" style="stop-color:#1C78FF"/>
				<stop  offset="0.6675" style="stop-color:#7C00FF"/>
				<stop  offset="1" style="stop-color:#7D04D3"/>
			</radialGradient>
			<path class="st25" d="M310.7,300.4C310.7,300.4,310.7,300.5,310.7,300.4c-0.2-0.1-0.3-0.2-0.5-0.3l0,0
				c-5.2-3.8-9.9-8.6-14.3-13.3c-8.6-9.1-15.9-19.3-21.4-30.6c-5.8-11.9-9.6-24.7-12.1-37.7c-0.1-0.4,0.2-0.7,0.5-0.8l0.6-0.1
				c0.4-0.1,0.7,0.1,0.8,0.5c8.3,33.9,22.6,57.9,48,80.3l0,0c4.1,2.4,8.3,4.7,12.8,6.5c2.6,1,5.3,1.9,7.6,3.5
				c0.6,0.4,1.3,1.1,1.1,1.8C325.8,308.8,317.4,305.2,310.7,300.4z"/>
			
				<radialGradient id="SVGID_25_" cx="-1700.0547" cy="-286.0205" r="265.35" gradientTransform="matrix(0.963 0.2694 0.2694 -0.963 2103.1987 534.9711)" gradientUnits="userSpaceOnUse">
				<stop  offset="3.070000e-02" style="stop-color:#7C00FF"/>
				<stop  offset="0.4951" style="stop-color:#1C78FF"/>
				<stop  offset="0.6675" style="stop-color:#7C00FF"/>
				<stop  offset="1" style="stop-color:#7D04D3"/>
			</radialGradient>
			<path class="st26" d="M232.4,244.4c-0.1-0.3,0.1-0.7,0.5-0.8c0.4-0.1,0.8,0.1,1,0.4c0.9,2.7,2,5.3,3,8
				c5.6,13.5,13.2,26.2,22.7,37.3c8.9,10.3,19.5,19.1,31.5,25.6c12.6,6.8,27.1,11.9,41.5,10.9c0.7-0.1,1.5-0.1,2,0.5
				c-0.9,0.8-2.1,0.9-3.3,1c-8.1,0.6-16.3-0.2-24.2-2.4C273.1,315.3,239.6,280,232.4,244.4z"/>
			
				<radialGradient id="SVGID_26_" cx="-1700.0543" cy="-286.0216" r="265.3485" gradientTransform="matrix(0.963 0.2694 0.2694 -0.963 2103.1987 534.9711)" gradientUnits="userSpaceOnUse">
				<stop  offset="3.070000e-02" style="stop-color:#7C00FF"/>
				<stop  offset="0.4951" style="stop-color:#1C78FF"/>
				<stop  offset="0.6675" style="stop-color:#7C00FF"/>
				<stop  offset="1" style="stop-color:#7D04D3"/>
			</radialGradient>
			<path class="st27" d="M288.5,334.7c-5-0.7-10.2-3-14.9-4.8c-13.7-5.3-25.9-13.5-35.2-25c-0.2-0.3-0.2-0.7,0.1-0.9l0.3-0.3
				c0.1-0.1,0.3-0.2,0.5-0.2s0.4,0.1,0.5,0.2c6.6,7.5,14.7,13.5,23.5,18.1c6.9,3.6,14.1,6.3,21.5,8.8c3.8,1.3,7.4,2.1,11.4,2.7
				c1.1,0.2,13.2,1.2,13.2,1.3c0.1,0.7-0.9,1-1.6,0.9C301.5,335.3,294.8,335.6,288.5,334.7C288.6,334.7,288.5,334.7,288.5,334.7z"/>
			
				<radialGradient id="SVGID_27_" cx="-1700.0524" cy="-286.022" r="265.3526" gradientTransform="matrix(0.963 0.2694 0.2694 -0.963 2103.1987 534.9711)" gradientUnits="userSpaceOnUse">
				<stop  offset="3.070000e-02" style="stop-color:#7C00FF"/>
				<stop  offset="0.4951" style="stop-color:#1C78FF"/>
				<stop  offset="0.6675" style="stop-color:#7C00FF"/>
				<stop  offset="1" style="stop-color:#7D04D3"/>
			</radialGradient>
			<path class="st28" d="M222.9,289.8c-1.3-1.6-2.6-3.1-3.9-4.8c-2.3-2.9-4.5-6-6.6-9.1c-7.3-11-12.4-23.2-16.8-35.7
				c-0.1-0.4,0.1-0.7,0.4-0.9l0.3-0.1c0.3-0.1,0.6,0,0.8,0.3c2.9,4.5,4.8,9.7,6.7,14.7c1.6,4.2,3.2,8.5,5.3,12.4
				c3.9,7,9.2,13.3,14.4,19.4c0.5,0.6,5.8,6.2,2.6,6.9c-0.3,0.1-0.6,0-0.9-0.2C224.3,292.2,223.4,290.5,222.9,289.8z"/>
			
				<radialGradient id="SVGID_28_" cx="-1700.0535" cy="-286.0199" r="265.3526" gradientTransform="matrix(0.963 0.2694 0.2694 -0.963 2103.1987 534.9711)" gradientUnits="userSpaceOnUse">
				<stop  offset="3.070000e-02" style="stop-color:#7C00FF"/>
				<stop  offset="0.4951" style="stop-color:#1C78FF"/>
				<stop  offset="0.6675" style="stop-color:#7C00FF"/>
				<stop  offset="1" style="stop-color:#7D04D3"/>
			</radialGradient>
			<path class="st29" d="M350.7,276.3c-0.4,0.4-1.1,0.5-1.4,0c-0.1-0.2-0.1-0.4-0.2-0.5c-1-1.8-1.5-4-2-6.1
				c-3.8-14.1-5.5-28.2-1.7-42.5c0.1-0.3,0.3-0.5,0.6-0.5c0.2,0,0.4,0.1,0.6,0.2c0.1,0.2,0.2,0.4,0.2,0.6c-0.3,2.3-0.5,4.6-0.7,7
				c-0.5,7.5,0,15.1,1.1,22.6c0.6,3.8,1.3,7.6,2.2,11.4c0.4,2,1,3.9,1.4,5.9c0.1,0.3,0.2,0.7,0.2,1.1
				C350.9,275.7,350.9,276,350.7,276.3z"/>
			
				<radialGradient id="SVGID_29_" cx="-1700.0546" cy="-286.0227" r="265.3452" gradientTransform="matrix(0.963 0.2694 0.2694 -0.963 2103.1987 534.9711)" gradientUnits="userSpaceOnUse">
				<stop  offset="3.070000e-02" style="stop-color:#7C00FF"/>
				<stop  offset="0.4951" style="stop-color:#1C78FF"/>
				<stop  offset="0.6675" style="stop-color:#7C00FF"/>
				<stop  offset="1" style="stop-color:#7D04D3"/>
			</radialGradient>
			<path class="st30" d="M215.9,309.5c-0.2-0.3-0.2-0.7,0.1-0.9l0.2-0.2c0.1-0.1,0.3-0.2,0.5-0.2s0.4,0.1,0.5,0.2
				c1.1,1.2,2.2,2.4,3.4,3.5c9.6,9.5,21.2,17,33.5,22.6c12.5,5.7,26,9.6,39.7,11.2c6.5,0.8,13.1,1,19.6,0.5c3.1-0.2,6.2-0.6,9.3-1.1
				c3.5-0.6,6.6-1.9,10-2.7c0.7-0.2,1.4-0.3,2,0c0.1,0,0.2,0.1,0.2,0.1c0,0.1,0,0.2,0,0.3c-0.5,0.9-1.3,1.6-2.2,2
				c-3.9,2.1-8.8,2.9-13.1,3.6c-15.5,2.4-31.6,0.7-46.6-3.5c-1.5-0.4-3-0.9-4.4-1.3C246.2,336.6,227,324.2,215.9,309.5z"/>
			
				<radialGradient id="SVGID_30_" cx="-1700.0552" cy="-286.018" r="265.3497" gradientTransform="matrix(0.963 0.2694 0.2694 -0.963 2103.1987 534.9711)" gradientUnits="userSpaceOnUse">
				<stop  offset="3.070000e-02" style="stop-color:#7C00FF"/>
				<stop  offset="0.4951" style="stop-color:#1C78FF"/>
				<stop  offset="0.6675" style="stop-color:#7C00FF"/>
				<stop  offset="1" style="stop-color:#7D04D3"/>
			</radialGradient>
			<path class="st31" d="M437.7,416.2c-4.1-8.1-4.8-19.1-2.7-27.9c0.1-0.5,0.4-1.1,0.6-1.6c0.4-0.9,0.8-1.7,1.2-2.6
				c0.3-0.6,0.6-1.2,1.1-1.7c0,4.2-1,8.4-1.2,12.6c-0.1,3.5-0.1,7,0.4,10.5c1.4,10.1,6.6,19,16.8,22.1c0.4,0.1,0.6,0.5,0.5,0.8
				c-0.1,0.4-0.5,0.6-0.8,0.5C446.6,427,440.9,422.6,437.7,416.2z"/>
			
				<radialGradient id="SVGID_31_" cx="-1700.0553" cy="-286.0183" r="265.3506" gradientTransform="matrix(0.963 0.2694 0.2694 -0.963 2103.1987 534.9711)" gradientUnits="userSpaceOnUse">
				<stop  offset="3.070000e-02" style="stop-color:#7C00FF"/>
				<stop  offset="0.4951" style="stop-color:#1C78FF"/>
				<stop  offset="0.6675" style="stop-color:#7C00FF"/>
				<stop  offset="1" style="stop-color:#7D04D3"/>
			</radialGradient>
			<path class="st32" d="M428.6,374.7c0.2-0.2,0.4-0.4,0.6-0.4c0.2,0,0.4,0.3,0.4,0.5c0,0.2-0.1,0.4-0.2,0.6
				c-3.2,5.7-5.7,11.9-7.2,18.3c-1.2,4.8-1.6,9.9-0.2,14.7c0.7,2.6,1.9,5.1,3.4,7.4c0.9,1.4,2,2.7,3,4c0.6,0.8,1.2,1.5,1.6,2.4
				c0.6,1,1.5,1.8,2.1,2.8c0.3,0.5,0.4,1.1,0.3,1.7c-1.9-0.4-3.2-2.1-4.4-3.3c-1.4-1.4-2.6-3-3.7-4.6c-2.2-3.2-3.8-6.8-4.6-10.5
				c-1.1-5.5-0.5-11.1,1.1-16.4c1.5-5.3,3.6-11.3,6.9-15.8C427.8,375.6,428.2,375.2,428.6,374.7z"/>
			
				<radialGradient id="SVGID_32_" cx="-1700.0543" cy="-286.018" r="265.3478" gradientTransform="matrix(0.963 0.2694 0.2694 -0.963 2103.1987 534.9711)" gradientUnits="userSpaceOnUse">
				<stop  offset="3.070000e-02" style="stop-color:#7C00FF"/>
				<stop  offset="0.4951" style="stop-color:#1C78FF"/>
				<stop  offset="0.6675" style="stop-color:#7C00FF"/>
				<stop  offset="1" style="stop-color:#7D04D3"/>
			</radialGradient>
			<path class="st33" d="M522.6,427.2c-13.6-3.8-26.4-10.1-37.9-18.3c-5.5-4-10.8-8.3-15.7-13.1c-5.1-4.9-10.6-10.1-13.9-16.4
				c-0.2-0.3-0.4-0.8-0.1-1.1c0.2-0.2,0.5-0.2,0.7-0.2c0.2,0.1,0.5,0.3,0.7,0.4c3.1,2.8,5.7,6.2,8.6,9.2c3,3,6,5.9,9.1,8.6
				c5.6,4.9,11.6,9.5,17.9,13.6c10.1,6.5,21,11.8,32.5,15.2c8.2,2.4,16.7,3.9,25.2,4.3c3.1,0.1,6.1,0.1,9.2-0.1
				c0.4,0,0.7,0.2,0.7,0.6c0,0.4-0.2,0.7-0.6,0.7C548.3,431.9,535.8,431,522.6,427.2z"/>
			
				<radialGradient id="SVGID_33_" cx="-1700.0554" cy="-286.0183" r="265.3504" gradientTransform="matrix(0.963 0.2694 0.2694 -0.963 2103.1987 534.9711)" gradientUnits="userSpaceOnUse">
				<stop  offset="3.070000e-02" style="stop-color:#7C00FF"/>
				<stop  offset="0.4951" style="stop-color:#1C78FF"/>
				<stop  offset="0.6675" style="stop-color:#7C00FF"/>
				<stop  offset="1" style="stop-color:#7D04D3"/>
			</radialGradient>
			<path class="st34" d="M466.4,416.7c3.7,4.3,7.9,8.1,12.6,11.3c2.5,1.7,5,3.1,7.7,4.4c1.4,0.7,2.8,1.4,4.3,1.9
				c0.9,0.3,3.2,0.6,2.5,2.1c-0.1,0.2-0.2,0.4-0.3,0.6c-0.1,0.1-0.1,0.3-0.2,0.4c-0.2,0.1-0.4,0.1-0.6,0.1c-0.4,0-0.9-0.1-1.3-0.2
				c-11.4-3.3-21.6-11.5-28.6-20.8c-6.6-8.7-11-18.9-14.6-29.1c-0.1-0.3,0.1-0.7,0.4-0.9c0.3-0.1,0.8,0,0.9,0.3
				C453.7,397.4,458.9,407.9,466.4,416.7z"/>
			
				<radialGradient id="SVGID_34_" cx="-1700.0546" cy="-286.0183" r="265.3446" gradientTransform="matrix(0.963 0.2694 0.2694 -0.963 2103.1987 534.9711)" gradientUnits="userSpaceOnUse">
				<stop  offset="3.070000e-02" style="stop-color:#7C00FF"/>
				<stop  offset="0.4951" style="stop-color:#1C78FF"/>
				<stop  offset="0.6675" style="stop-color:#7C00FF"/>
				<stop  offset="1" style="stop-color:#7D04D3"/>
			</radialGradient>
			<path class="st35" d="M444.6,336.6c1.9-0.7,3.9-1.4,5.8-2.1c3.5-1.4,7-2.9,10.4-4.5c6.5-3.1,12.7-6.8,18.7-10.7
				c1.1-0.7,2.2-1.4,3.2-2.1c0.3-0.2,0.7-0.1,0.9,0.1l0.1,0.1c0.2,0.3,0.2,0.7,0,0.9c-9.9,10.6-23,16.1-36.5,20.5
				c-1.9,0.6-3.9,1.6-6,0.9c-0.1,0-0.2-0.1-0.2-0.1c-0.1-0.1-0.1-0.2-0.1-0.2c0-0.8,0.6-1.3,1.3-1.7
				C442.9,337.1,444,336.8,444.6,336.6z"/>
			
				<radialGradient id="SVGID_35_" cx="-1700.0544" cy="-286.0178" r="265.3451" gradientTransform="matrix(0.963 0.2694 0.2694 -0.963 2103.1987 534.9711)" gradientUnits="userSpaceOnUse">
				<stop  offset="3.070000e-02" style="stop-color:#7C00FF"/>
				<stop  offset="0.4951" style="stop-color:#1C78FF"/>
				<stop  offset="0.6675" style="stop-color:#7C00FF"/>
				<stop  offset="1" style="stop-color:#7D04D3"/>
			</radialGradient>
			<path class="st36" d="M512.8,349.5c-4.8,1.1-9.5,1.9-14.4,2.6c-4.9,0.7-10.1,1.7-15,0.9c-0.2,0-0.5-0.1-0.6-0.2
				c-0.2-0.1-0.3-0.4-0.2-0.6c0.1-0.1,0.2-0.1,0.3-0.2c1.6-0.9,3.3-0.8,5.1-1.1c2.2-0.3,4.3-0.6,6.5-0.9c4-0.6,8-1.3,11.9-2.1
				c6.9-1.4,13.8-3,20.5-5.1c0.7-0.2,1.5-0.5,2.2-0.7c3.2-1.1,6.4-2.7,9.4-4.2c3-1.5,6.1-3.1,9.4-4.2c0.3-0.1,0.7,0,0.8,0.3l0.1,0.2
				c0.2,0.3,0,0.7-0.2,0.9C537.9,342.3,525.4,346.6,512.8,349.5z"/>
			
				<radialGradient id="SVGID_36_" cx="-1700.0536" cy="-286.0165" r="265.3451" gradientTransform="matrix(0.963 0.2694 0.2694 -0.963 2103.1987 534.9711)" gradientUnits="userSpaceOnUse">
				<stop  offset="3.070000e-02" style="stop-color:#7C00FF"/>
				<stop  offset="0.4951" style="stop-color:#1C78FF"/>
				<stop  offset="0.6675" style="stop-color:#7C00FF"/>
				<stop  offset="1" style="stop-color:#7D04D3"/>
			</radialGradient>
			<path class="st37" d="M603.2,387.4c-29.8,14.5-63.6,17-98.2,7.3c-4-1.1-8.9-2-12.2-4.8c0.3-0.4,0.9-0.5,1.4-0.5
				c0.5,0,1,0.3,1.4,0.4c1.7,0.7,7.6,1.8,8.9,2.1c2.7,0.7,5.5,1.3,8.2,1.9c5.7,1.1,11.5,2,17.4,2.5c12.2,1,24.5,0.7,36.5-1.1
				c12.3-1.8,24.4-5.2,35.7-10.4c11.4-5.2,22-12.4,30.9-21.2c1.9-1.9,3.7-3.8,5.4-5.8c0.1-0.1,0.3-0.2,0.5-0.2s0.4,0.1,0.5,0.2
				l0.1,0.1c0.2,0.2,0.3,0.5,0.2,0.8C633.6,371.2,618.6,379.9,603.2,387.4z"/>
			
				<radialGradient id="SVGID_37_" cx="-1700.0533" cy="-286.0155" r="265.3462" gradientTransform="matrix(0.963 0.2694 0.2694 -0.963 2103.1987 534.9711)" gradientUnits="userSpaceOnUse">
				<stop  offset="3.070000e-02" style="stop-color:#7C00FF"/>
				<stop  offset="0.4951" style="stop-color:#1C78FF"/>
				<stop  offset="0.6675" style="stop-color:#7C00FF"/>
				<stop  offset="1" style="stop-color:#7D04D3"/>
			</radialGradient>
			<path class="st38" d="M635.2,386.9c-11.7,17.9-31.8,29.4-56.7,32.3c-13.6,1.6-27.8,0.4-40.7-3.2c-4.7-1.3-9.3-3-13.8-5
				c-2.2-1-4.3-2-6.4-3.2c-0.9-0.5-4.5-2-4.4-3.3c0-0.3,0.3-0.5,0.6-0.6c1.4-0.4,4,1.8,5.3,2.4c1.9,1,3.9,1.9,5.8,2.8
				c3.9,1.7,7.8,3.2,11.9,4.4c7.9,2.4,16.1,3.8,24.4,4c5.6,0.2,11.2-0.2,16.7-1c21.3-3.3,40.6-13.9,55.9-30.6
				c0.1-0.1,0.3-0.2,0.5-0.2c0.2,0,0.4,0.1,0.5,0.2l0.2,0.2C635.3,386.3,635.3,386.6,635.2,386.9z"/>
			
				<radialGradient id="SVGID_38_" cx="-1700.0544" cy="-286.0186" r="265.3479" gradientTransform="matrix(0.963 0.2694 0.2694 -0.963 2103.1987 534.9711)" gradientUnits="userSpaceOnUse">
				<stop  offset="3.070000e-02" style="stop-color:#7C00FF"/>
				<stop  offset="0.4951" style="stop-color:#1C78FF"/>
				<stop  offset="0.6675" style="stop-color:#7C00FF"/>
				<stop  offset="1" style="stop-color:#7D04D3"/>
			</radialGradient>
			<path class="st39" d="M360.2,292.2c-2.3-0.8-3.9-2.6-5.3-4.5c-1.3-1.9-3-4.2-3-6.6c0-0.7,0.8-1,1.3-0.5c1.6,1.6,2.4,4,3.7,5.9
				c1.2,1.9,2.7,3.6,3.5,5.6C360.4,292.2,360.3,292.3,360.2,292.2z"/>
			
				<radialGradient id="SVGID_39_" cx="-1700.0546" cy="-286.0183" r="265.3507" gradientTransform="matrix(0.963 0.2694 0.2694 -0.963 2103.1987 534.9711)" gradientUnits="userSpaceOnUse">
				<stop  offset="3.070000e-02" style="stop-color:#7C00FF"/>
				<stop  offset="0.4951" style="stop-color:#1C78FF"/>
				<stop  offset="0.6675" style="stop-color:#7C00FF"/>
				<stop  offset="1" style="stop-color:#7D04D3"/>
			</radialGradient>
			<path class="st40" d="M305.5,360.8c-5.4,2.4-11.8,2.3-17.6,1.8c-4.6-0.4-10.2-0.6-13.8-3.6c0,0,0,0,0,0c9.6,3.7,21.2,1.4,31,0.5
				C305.9,359.4,306.2,360.5,305.5,360.8z"/>
			
				<radialGradient id="SVGID_40_" cx="-1700.0559" cy="-286.0199" r="265.3419" gradientTransform="matrix(0.963 0.2694 0.2694 -0.963 2103.1987 534.9711)" gradientUnits="userSpaceOnUse">
				<stop  offset="3.070000e-02" style="stop-color:#7C00FF"/>
				<stop  offset="0.4951" style="stop-color:#1C78FF"/>
				<stop  offset="0.6675" style="stop-color:#7C00FF"/>
				<stop  offset="1" style="stop-color:#7D04D3"/>
			</radialGradient>
			<path class="st41" d="M348.7,335c-1.3,1.9-2.9,3.3-4.8,4.6c-1.7,1.2-4.2,2.7-6.4,2.5c-0.8-0.1-1.1-1-0.4-1.5
				c1.7-1.1,3.9-1.5,5.7-2.3c2-0.9,3.9-2.2,5.6-3.5C348.6,334.8,348.8,334.9,348.7,335z"/>
			
				<radialGradient id="SVGID_41_" cx="-1700.0557" cy="-286.0213" r="265.3498" gradientTransform="matrix(0.963 0.2694 0.2694 -0.963 2103.1987 534.9711)" gradientUnits="userSpaceOnUse">
				<stop  offset="3.070000e-02" style="stop-color:#7C00FF"/>
				<stop  offset="0.4951" style="stop-color:#1C78FF"/>
				<stop  offset="0.6675" style="stop-color:#7C00FF"/>
				<stop  offset="1" style="stop-color:#7D04D3"/>
			</radialGradient>
			<path class="st42" d="M354,314.4c-5.3,0.8-10.9-0.1-15.9-2c-1-0.4-0.6-1.8,0.4-1.6c5.1,1.2,10.4,2.2,15.5,3.5
				C354.1,314.3,354.1,314.4,354,314.4z"/>
			
				<radialGradient id="SVGID_42_" cx="-1700.0554" cy="-286.013" r="265.3301" gradientTransform="matrix(0.963 0.2694 0.2694 -0.963 2103.1987 534.9711)" gradientUnits="userSpaceOnUse">
				<stop  offset="3.070000e-02" style="stop-color:#7C00FF"/>
				<stop  offset="0.4951" style="stop-color:#1C78FF"/>
				<stop  offset="0.6675" style="stop-color:#7C00FF"/>
				<stop  offset="1" style="stop-color:#7D04D3"/>
			</radialGradient>
			<path class="st43" d="M385.8,264.5c-0.1,0-0.1,0.1-0.2,0.1c-0.8,0.5-1.8-0.1-2-1c-0.1-1,0.8-1.6,1.7-1.4c0.1,0,0.1,0,0.2,0
				C386.6,262.4,386.6,264,385.8,264.5z"/>
			
				<radialGradient id="SVGID_43_" cx="-1700.0485" cy="-286.0205" r="265.3562" gradientTransform="matrix(0.963 0.2694 0.2694 -0.963 2103.1987 534.9711)" gradientUnits="userSpaceOnUse">
				<stop  offset="3.070000e-02" style="stop-color:#7C00FF"/>
				<stop  offset="0.4951" style="stop-color:#1C78FF"/>
				<stop  offset="0.6675" style="stop-color:#7C00FF"/>
				<stop  offset="1" style="stop-color:#7D04D3"/>
			</radialGradient>
			<path class="st44" d="M231.4,239.8c-1.3-0.4-0.8-2.4,0.6-2.1C233.4,238.1,232.8,240.1,231.4,239.8z"/>
			
				<radialGradient id="SVGID_44_" cx="-1700.0509" cy="-286.0283" r="265.3644" gradientTransform="matrix(0.963 0.2694 0.2694 -0.963 2103.1987 534.9711)" gradientUnits="userSpaceOnUse">
				<stop  offset="3.070000e-02" style="stop-color:#7C00FF"/>
				<stop  offset="0.4951" style="stop-color:#1C78FF"/>
				<stop  offset="0.6675" style="stop-color:#7C00FF"/>
				<stop  offset="1" style="stop-color:#7D04D3"/>
			</radialGradient>
			<path class="st45" d="M310.1,223c-0.5,0.3-0.9,0.2-1.3-0.1c-0.4,0.1-0.8-0.4-0.4-0.8c0-0.5,0.1-0.9,0.6-1.2
				c0.6-0.3,1.3-0.1,1.6,0.4S310.6,222.7,310.1,223z"/>
			
				<radialGradient id="SVGID_45_" cx="-1700.0526" cy="-286.0266" r="265.3557" gradientTransform="matrix(0.963 0.2694 0.2694 -0.963 2103.1987 534.9711)" gradientUnits="userSpaceOnUse">
				<stop  offset="3.070000e-02" style="stop-color:#7C00FF"/>
				<stop  offset="0.4951" style="stop-color:#1C78FF"/>
				<stop  offset="0.6675" style="stop-color:#7C00FF"/>
				<stop  offset="1" style="stop-color:#7D04D3"/>
			</radialGradient>
			<path class="st46" d="M263.8,214.3c-0.1,0-0.1,0.1-0.2,0.1c-0.5,0.2-1,0.1-1.3-0.4c-0.1-0.1-0.1-0.1-0.1-0.2
				c-0.6-0.9,0.5-2.1,1.4-1.8C264.5,212.3,264.9,213.9,263.8,214.3z"/>
			
				<radialGradient id="SVGID_46_" cx="-1700.0509" cy="-286.0221" r="265.3538" gradientTransform="matrix(0.963 0.2694 0.2694 -0.963 2103.1987 534.9711)" gradientUnits="userSpaceOnUse">
				<stop  offset="3.070000e-02" style="stop-color:#7C00FF"/>
				<stop  offset="0.4951" style="stop-color:#1C78FF"/>
				<stop  offset="0.6675" style="stop-color:#7C00FF"/>
				<stop  offset="1" style="stop-color:#7D04D3"/>
			</radialGradient>
			<path class="st47" d="M232.5,300.2c-2.3-0.6-1.3-4.2,1-3.5C235.8,297.3,234.8,300.8,232.5,300.2z"/>
			
				<radialGradient id="SVGID_47_" cx="-1700.0503" cy="-286.0208" r="265.3541" gradientTransform="matrix(0.963 0.2694 0.2694 -0.963 2103.1987 534.9711)" gradientUnits="userSpaceOnUse">
				<stop  offset="3.070000e-02" style="stop-color:#7C00FF"/>
				<stop  offset="0.4951" style="stop-color:#1C78FF"/>
				<stop  offset="0.6675" style="stop-color:#7C00FF"/>
				<stop  offset="1" style="stop-color:#7D04D3"/>
			</radialGradient>
			<path class="st48" d="M230.8,231.3C230.8,231.3,230.7,231.3,230.8,231.3c-2.9-4.3-5-9.8-3.6-15c0.3-1.2,1.9-0.8,2,0.3
				C229.7,221.5,229.4,226.4,230.8,231.3z"/>
			
				<radialGradient id="SVGID_48_" cx="-1700.0515" cy="-286.0154" r="265.3358" gradientTransform="matrix(0.963 0.2694 0.2694 -0.963 2103.1987 534.9711)" gradientUnits="userSpaceOnUse">
				<stop  offset="3.070000e-02" style="stop-color:#7C00FF"/>
				<stop  offset="0.4951" style="stop-color:#1C78FF"/>
				<stop  offset="0.6675" style="stop-color:#7C00FF"/>
				<stop  offset="1" style="stop-color:#7D04D3"/>
			</radialGradient>
			<path class="st49" d="M476.4,353.2c-1.7-0.5-0.9-3.1,0.7-2.6C478.8,351.1,478,353.7,476.4,353.2z"/>
			
				<radialGradient id="SVGID_49_" cx="-1700.0574" cy="-286.0134" r="265.3319" gradientTransform="matrix(0.963 0.2694 0.2694 -0.963 2103.1987 534.9711)" gradientUnits="userSpaceOnUse">
				<stop  offset="3.070000e-02" style="stop-color:#7C00FF"/>
				<stop  offset="0.4951" style="stop-color:#1C78FF"/>
				<stop  offset="0.6675" style="stop-color:#7C00FF"/>
				<stop  offset="1" style="stop-color:#7D04D3"/>
			</radialGradient>
			<path class="st50" d="M427.2,284.9c-0.1,0-0.2,0-0.3,0c-1.3-0.2-0.7-2.5,0.6-2c0.1,0,0.2,0.1,0.3,0.1
				C428.9,283.5,428.4,285.1,427.2,284.9z"/>
			
				<radialGradient id="SVGID_50_" cx="-1700.0543" cy="-286.0186" r="265.3429" gradientTransform="matrix(0.963 0.2694 0.2694 -0.963 2103.1987 534.9711)" gradientUnits="userSpaceOnUse">
				<stop  offset="3.070000e-02" style="stop-color:#7C00FF"/>
				<stop  offset="0.4951" style="stop-color:#1C78FF"/>
				<stop  offset="0.6675" style="stop-color:#7C00FF"/>
				<stop  offset="1" style="stop-color:#7D04D3"/>
			</radialGradient>
			<path class="st51" d="M452.3,302.5c-4.2,10-11.9,17.5-21.1,22.9c-0.8,0.4-1.4-0.7-0.7-1.2c8.8-5.6,14.7-13.6,19.3-22.8
				C450.5,300.1,452.9,301.2,452.3,302.5z"/>
			
				<radialGradient id="SVGID_51_" cx="-1700.0526" cy="-286.0171" r="265.3442" gradientTransform="matrix(0.963 0.2694 0.2694 -0.963 2103.1987 534.9711)" gradientUnits="userSpaceOnUse">
				<stop  offset="3.070000e-02" style="stop-color:#7C00FF"/>
				<stop  offset="0.4951" style="stop-color:#1C78FF"/>
				<stop  offset="0.6675" style="stop-color:#7C00FF"/>
				<stop  offset="1" style="stop-color:#7D04D3"/>
			</radialGradient>
			<path class="st52" d="M614.3,348.8c-22,14-47.5,18.8-73.1,19.6c-0.1,0-0.1-0.1,0-0.1c25.3-1.5,49.4-10.8,71.8-21.9
				C614.6,345.6,615.8,347.8,614.3,348.8z"/>
		</g>
		<g class="st53">
			<path class="st54" d="M166.1,276.2c4.8,9.3,1.9,17.3-2.9,8c-15-29.1-22.7-67.5-11.8-98c10-28.1,38.4-48.4,65.5-59.8
				c27.3-11.6,56.4-16.5,84.4-26.3c12-4.2,26-11.7,41-20.3c7.5-5.4,15.4-10.3,23.3-14.8c9.7-5.6,19.6-10.8,29.7-15.5
				c30.8-16.2,61.6-27.9,85.9-19.8c2,0.7,1.8,1.2,0.1,1.6c3,1.2,6,2.5,8.9,4.1c17.5,9.5,34,25.5,44.2,42.5
				c8.5,14.2,20.9,35.2,15.8,52.2c-0.1,0.3-0.4,0.3-0.6,0.2c-8.2-7-12.6-17.2-18.5-26.1c-6.4-9.4-14.4-17.5-22.5-25.5
				c-8.2-8.1-17.5-15.4-27.8-20.6c-10.9-5.5-21.3-4.9-32.7-1.6c-23.5,6.7-46.3,15.9-68,26.9c-14.4,7.3-28.2,15.5-42.2,23.4
				c-4.9,2.9-9.9,5.6-15,8.1c-2.6,1.3-5.2,2.6-7.8,3.9c-0.9,0.4-1.7,0.6-2.5,0.6c-1.3,0.5-2.6,1-3.9,1.5
				c-26.2,9.5-37.6,11.6-63.6,21.8c-26.2,10.2-63.2,28.5-71.7,56C165.5,223.8,153.7,252.2,166.1,276.2z"/>
			<path class="st54" d="M665.2,404.5c-6.9,7.4-15.6,12.3-24.6,16.8c-9.2,4.6-18.2,9.8-27.6,13.9c-0.4,0.2-0.8-0.3-0.5-0.6
				c8.1-7.4,16.9-13.7,23.6-22.5c5.8-7.6,11.5-16.7,14.8-25.6c6.3-16.9,6.5-33.9-7.1-47.2c-13.6-13.3-34.4-17.1-52.1-21.8
				c-20-5.2-40-9.9-60.2-14.1c-10.6-2.2-21-5.1-30.9-9.6c-9-4.1-16.4-10-23.9-16.5c-15.2-13.2-35.6-19.1-53.1-28.7
				c-37.2-20.5-73.5-42.4-114.9-53.7c-17.1-4.6-34.6-8.5-52.4-8.4c-8.4,0-16.6,1-24.7,3.5c-7.5,2.3-13.7,6.1-21.5,7.1
				c-5.2,0.7-8.6-3.7-6.4-8.6c8.2-18.3,37-20.9,54.6-20.7c22.3,0.2,44.1,5.8,65.4,11.8c23.1,6.5,45.3,14.4,66.9,24.8
				c21.3,10.2,40.8,23.7,62.1,33.8c9.7,4.6,19.8,8.3,28.7,14.3c8.8,6,15.8,14.2,25.2,19.3c19.2,10.6,43.6,12.7,64.9,16.2
				c23.7,4,47.9,5.4,70.1,15.2c18.5,8.2,36,23.6,40.6,44.1C687.2,368.5,679.9,389,665.2,404.5z"/>
		</g>
		<g class="st55">
			<path class="st56" d="M375.1,154.6c-0.4,2.9-0.8,5.7-1.2,8.6c-1,4.3-3,8.1-6,11.2c-2.3,3.5-5.4,6.2-9.2,8.2
				c-3.7,2.2-7.6,3.5-11.8,3.6c-4.2,0.9-8.5,0.7-12.7-0.7c-5.6-1.6-10.4-4.5-14.5-8.6c-1.6-2.2-3.3-4.4-4.9-6.6
				c-2.8-5-4.2-10.3-4.2-15.9c0.4-2.9,0.8-5.7,1.2-8.6c1-4.3,3-8.1,6-11.2c2.3-3.5,5.4-6.2,9.2-8.2c3.7-2.2,7.6-3.4,11.8-3.6
				c4.2-0.9,8.5-0.7,12.7,0.7c5.6,1.6,10.4,4.5,14.5,8.6c1.6,2.2,3.3,4.4,4.9,6.6C373.7,143.6,375.1,149,375.1,154.6z"/>
			<path class="st56" d="M422.9,122.7c20.7,5.8,12.4,35.3-8.2,29.5C393.9,146.4,402.2,116.9,422.9,122.7z"/>
			<path class="st56" d="M435.9,183.5c-0.4,2.5-0.7,5-1,7.4c-0.9,3.8-2.6,7-5.2,9.7c-2,3-4.7,5.4-8,7.1c-3.2,1.9-6.6,3-10.2,3.1
				c-3.7,0.8-7.4,0.6-11-0.6c-4.9-1.4-9.1-3.9-12.6-7.5c-1.4-1.9-2.9-3.8-4.3-5.7c-2.4-4.3-3.6-8.9-3.6-13.8c0.4-2.5,0.7-5,1-7.4
				c0.9-3.8,2.6-7,5.2-9.7c2-3,4.7-5.4,8-7.1c3.2-1.9,6.6-3,10.2-3.1c3.7-0.8,7.4-0.6,11,0.6c4.9,1.4,9.1,3.9,12.6,7.5
				c1.4,1.9,2.9,3.8,4.3,5.7C434.7,173.9,435.9,178.5,435.9,183.5z"/>
			<path class="st56" d="M486.3,246.1c0,2.5-0.7,4.8-1.9,6.9c-1.2,2-2.9,3.7-5,4.8c-3.1,1.6-6.9,2.4-10.3,1.2
				c-3.4-1.1-6.4-3.2-8.2-6.4c-1.7-3-2.2-7-1.2-10.3c1-3.5,3.4-6.3,6.4-8.2c2.1-1.2,4.3-1.8,6.7-1.8c1.9-0.1,3.6,0.3,5.3,1.2
				c0.7,0.1,1.3,0.4,1.8,0.8c1.6,0.9,2.8,2,3.7,3.5c1.1,1.3,1.9,2.8,2.3,4.5C486,243.8,486.1,245,486.3,246.1z"/>
			<path class="st56" d="M493.1,168c-21.3-5.9-12-38.9,9.2-33C523.6,140.9,514.3,173.9,493.1,168z"/>
			<path class="st56" d="M513.2,85c1.6,1.8,2.7,3.9,3.2,6.4c0.2,1.6,0.4,3.2,0.6,4.8c-0.2,1.7-0.5,3.3-0.7,5
				c-0.1,0.2-0.1,0.3-0.2,0.5c-0.9,3.2-2.5,5.9-4.9,8.2c-1.2,0.9-2.5,1.8-3.7,2.8c-2.1,1.3-4.3,1.9-6.6,2c-2.4,0.5-4.8,0.4-7.2-0.4
				l-0.5-0.1c-2.5-0.6-4.7-1.8-6.5-3.5c-1.4-0.8-2.5-2-3.3-3.4c-1.6-1.8-2.7-3.9-3.2-6.4c-0.2-1.6-0.4-3.2-0.6-4.8
				c0.2-1.7,0.5-3.3,0.7-5c0.7-1.5,1.3-3.1,2-4.6c1-1.3,2-2.5,3-3.8l3.8-2.9c2.1-1.3,4.4-2,6.8-2.1c1.6-0.4,3.3-0.4,4.9,0
				c1.7,0,3.3,0.5,4.8,1.3c1.6,0.5,3,1.3,4.2,2.5C511.2,82.4,512.3,83.6,513.2,85z"/>
			<path class="st56" d="M472,223.4c-3.3,0.7-6.6,0.5-9.8-0.5c-6.5-1.8-11.5-6.2-15-11.8c-2.1-3.8-3.2-7.9-3.2-12.3
				c0.3-2.2,0.6-4.4,0.9-6.6c0.8-3.3,2.4-6.2,4.7-8.7c1.8-2.7,4.2-4.8,7.1-6.4c2.8-1.7,5.9-2.7,9.1-2.8c3.3-0.7,6.6-0.5,9.8,0.5
				c6.5,1.8,11.5,6.2,15,11.8c2.1,3.8,3.2,7.9,3.2,12.3l-0.9,6.6c-0.8,3.3-2.4,6.2-4.7,8.7c-1.8,2.7-4.2,4.8-7.1,6.4
				C478.3,222.3,475.2,223.3,472,223.4z"/>
			<path class="st56" d="M453.8,150.8c-31.8-8.9-17.9-58.2,13.8-49.3C499.4,110.4,485.6,159.7,453.8,150.8z"/>
			<path class="st56" d="M400.8,129.5c-3.7,2.3-7.6,3.5-11.9,3.6c-4.3,0.9-8.5,0.7-12.8-0.7c-5.6-1.6-10.5-4.5-14.6-8.7
				c-1.6-2.2-3.3-4.4-5-6.7c-2.8-5-4.2-10.3-4.2-16.1l1.2-8.6c1.1-4.4,3.1-8.1,6.1-11.3c2.4-3.5,5.5-6.3,9.3-8.3
				c3.7-2.3,7.6-3.5,11.9-3.7c4.3-0.9,8.5-0.7,12.8,0.7c5.6,1.6,10.5,4.5,14.6,8.7c1.6,2.2,3.3,4.4,5,6.7c2.8,5,4.2,10.3,4.2,16.1
				l-1.2,8.6c-1.1,4.4-3.1,8.1-6.1,11.3C407.7,124.8,404.6,127.5,400.8,129.5z"/>
			<path class="st56" d="M414.4,52.5c0.3-2.1,0.6-4.1,0.9-6.2c0.7-3.1,2.2-5.8,4.3-8c1.7-2.5,3.9-4.5,6.6-5.9
				c2.6-1.6,5.4-2.5,8.5-2.6c3-0.7,6.1-0.5,9.1,0.5c4,1.1,7.5,3.2,10.4,6.2c1.2,1.6,2.4,3.2,3.5,4.8c2,3.6,3,7.4,3,11.4l-0.9,6.2
				c-0.7,3.1-2.2,5.8-4.3,8c-1.7,2.5-3.9,4.5-6.6,5.9c-2.6,1.6-5.4,2.5-8.5,2.6c-3,0.6-6.1,0.5-9.1-0.5c-4-1.1-7.5-3.2-10.4-6.2
				c-1.2-1.6-2.4-3.2-3.5-4.7C415.4,60.4,414.4,56.6,414.4,52.5z"/>
			<path class="st56" d="M282.8,138.6c-22.4-6.3-12.6-41,9.7-34.7C314.9,110.1,305.2,144.8,282.8,138.6z"/>
			<path class="st56" d="M214.1,172.4c-21.8-6.1-12.3-39.9,9.5-33.9C245.4,144.7,235.9,178.5,214.1,172.4z"/>
			<path class="st56" d="M303,183.1c-1.7,7.4-6.2,13.5-12,17.9c-13.8-1.2-27.5-0.8-41.1,1.4c-11.8-8.2-17.2-23.3-13.8-37.9
				c4.2-18.3,25.3-29,42.8-24.1C297.6,145.6,307.2,164.7,303,183.1z"/>
			<path class="st56" d="M204.5,216.5c-9.2,5-16.7,12.4-20.1,24.2c0,0.2-0.1,0.3-0.1,0.5c-4.4,1.1-9,1.2-13.6-0.1
				c-13.9-3.9-22.4-19-18.5-32.9c0.2-0.7,0.4-1.3,0.7-1.9c1.1-0.8,2-1.8,2.8-3c1.6-1.7,2.6-3.6,3.2-5.9c0-0.2,0-0.4,0.1-0.6
				c6.7-6.7,16.7-9.8,26.2-7.1C197,193.1,204.9,204.6,204.5,216.5z"/>
			<path class="st56" d="M157.5,167.8c-0.2-0.4-0.4-0.7-0.5-1.1c6.2-10.2,14.1-18.5,23.2-25.5c4.2,1.6,7.4,4.5,9.8,8.3
				c1.6,2.9,2.4,5.9,2.4,9.2c-0.2,1.6-0.5,3.3-0.7,4.9c-0.6,2.5-1.8,4.6-3.5,6.5c-1.4,2-3.1,3.6-5.3,4.7c-2.1,1.3-4.4,2-6.8,2.1
				c-2.5,0.5-4.9,0.4-7.3-0.4C163.8,175.2,160.1,171.9,157.5,167.8z"/>
			<path class="st56" d="M234.8,203.4c-0.1,0.6-0.2,1.3-0.3,1.9c-7.1,1.7-13.9,3.7-19.5,6.7c-0.4,0.1-0.9,0.3-1.3,0.5
				c-0.7-0.7-1.3-1.5-1.8-2.4c-1-1.9-1.5-3.8-1.5-5.9c0-4.1,2.3-8.6,6.1-10.4c0.4-0.2,0.7-0.4,1.1-0.5c1.3-0.8,2.7-1.2,4.2-1.3
				c1-0.3,2-0.2,3,0c1.1,0,2,0.3,3,0.8c1,0.3,1.9,0.8,2.6,1.6c1.9,1.6,3.4,3.6,4,6.1C234.5,201.4,234.7,202.4,234.8,203.4z"/>
			<path class="st56" d="M223.4,122.3c-0.6-1.1-1.1-2.2-1.5-3.4c12.1-4.7,24.7-8.7,37.3-12.6c1.5-0.5,3-0.9,4.4-1.4
				c0.7,2.1,1,4.3,1,6.6c-0.3,1.9-0.6,3.9-0.8,5.8c-0.7,2.9-2.1,5.5-4.1,7.7c-1.6,2.4-3.7,4.3-6.3,5.6c-2.5,1.5-5.2,2.4-8,2.5
				c-2.9,0.6-5.8,0.5-8.7-0.5c-3.8-1.1-7.1-3.1-9.9-5.9C225.7,125.3,224.6,123.8,223.4,122.3z"/>
			<path class="st56" d="M192.5,136.2c-1.2-0.3-2.3-0.8-3.3-1.4c7.3-4.6,15.2-8.6,23.4-12.1c-0.1,0.8-0.2,1.6-0.4,2.4
				c-0.5,2.1-1.5,4-3,5.6c-1.2,1.7-2.7,3.1-4.6,4.1C201.1,136.8,196.5,137.4,192.5,136.2z"/>
			<path class="st56" d="M144.3,209.6c-0.3,0.1-0.6,0.1-0.9,0.2c0.4-4.5,1-8.9,2-13.3c1.4-6.7,3.3-12.7,5.7-18.4
				c1.1,0.9,2.3,1.8,3.4,2.7c0.9,1.2,1.8,2.3,2.6,3.5c0,0.1,0.1,0.1,0.1,0.2c1.5,2.6,2.2,5.4,2.2,8.4c-0.2,1.3-0.4,2.6-0.5,3.9
				c0,0.2,0,0.4-0.1,0.6c-0.5,2.3-1.6,4.2-3.2,5.9c-0.8,1.2-1.7,2.1-2.8,3c-0.6,0.5-1.3,0.9-2,1.3c-0.1,0-0.1,0.1-0.2,0.1
				C148.6,208.9,146.5,209.6,144.3,209.6z"/>
			<path class="st56" d="M183.3,314.4c-0.3,0.5-0.7,0.9-1,1.3c-6.6-7.8-12.5-15.8-17.5-23.9c-1.4-2.2-2.7-4.5-4-6.8
				c1.7-0.8,3.4-1.2,5.3-1.2c2.5-0.5,5-0.4,7.5,0.4c5,1.4,8.8,4.7,11.5,9c1.6,2.9,2.5,6.1,2.5,9.5c-0.2,1.7-0.5,3.4-0.7,5.1
				C186.3,310.3,185.1,312.5,183.3,314.4z"/>
			<path class="st56" d="M235.8,335.8c0.9,0.6,1.7,1.1,2.6,1.6c0,0.1,0.1,0.2,0.1,0.3c1.6,2.1,2.9,4.5,4.2,6.7
				c2.1,3.7,4.3,7.6,7.9,10.6c2.8,2.2,5.5,4.2,8.2,5.9c-0.9,4.3-2.9,8.4-5.8,11.6c-6-3.4-12-7.2-18-11c-5.6-3.6-11.1-7.5-16.3-11.5
				C221.4,342.7,227.4,336.6,235.8,335.8z"/>
			<path class="st56" d="M324.7,92.2c-4.3-1.2-7.6-4-10-7.7c10.1-5.5,19.8-11.4,29.4-17.3c0,0.1,0.1,0.1,0.1,0.2
				c2.4,3.9,2.6,8.7,1.6,13c-0.5,2.3-1.6,4.3-3.2,5.9c-1.2,1.9-2.9,3.3-4.9,4.3c-1.9,1.2-4,1.8-6.2,1.9
				C329.2,93.1,327,93,324.7,92.2z"/>
			<path class="st56" d="M482.5,58.1l0.7-5.1c0.6-2.6,1.8-4.8,3.6-6.7c1.4-2.1,3.2-3.7,5.5-4.9c2.2-1.3,4.5-2.1,7-2.2
				c2.5-0.5,5-0.4,7.5,0.4c5,1.4,8.8,4.7,11.5,9c1.6,2.9,2.5,6.1,2.5,9.5l-0.7,5.1c-0.6,2.6-1.8,4.8-3.6,6.7
				c-1.4,2.1-3.2,3.7-5.5,4.9c-2.2,1.3-4.5,2.1-7,2.2c-2.5,0.5-5,0.4-7.5-0.4c-5-1.4-8.8-4.7-11.5-9
				C483.3,64.6,482.5,61.5,482.5,58.1z"/>
			<path class="st56" d="M380,62c-5.2-1.5-9.2-4.8-12.1-9.1c3-1.7,6-3.4,9-5c9.6-5.1,19.5-8.8,29.4-11.7c0.9,3.6,0.7,7.5-0.1,11.1
				c-0.7,2.8-2,5.3-4,7.4c-1.5,2.3-3.5,4.1-6,5.4c-2.4,1.5-5,2.3-7.7,2.4C385.5,63,382.8,62.8,380,62z"/>
			<path class="st56" d="M542.4,83.8c1-0.2,2.1-0.4,3.1-0.4c1.2,2.7,2.3,5.3,3.4,8c2.8,6.7,5.8,13.6,9,19.9
				c3.2,6.2,6.3,12.4,9.5,18.6c0.3,0.6,0.6,1.1,0.9,1.7c-2.1,2.8-4.6,5.1-7.8,6.7c-3.3,2-6.9,3.1-10.7,3.3
				c-3.9,0.8-7.7,0.6-11.6-0.6c-5.1-1.4-9.5-4.1-13.2-7.9c-1.5-2-3-4-4.5-6c-2.5-4.5-3.8-9.3-3.8-14.5l1.1-7.8
				c0.9-3.9,2.8-7.3,5.5-10.2c2.1-3.2,4.9-5.7,8.4-7.5C535,85.1,538.6,84,542.4,83.8z"/>
			<path class="st56" d="M518.9,223.9c-0.6,2.8-2.9,5.5-5.4,6.8c-2.5,1.4-5.8,1.8-8.6,1c-3-0.8-5.2-2.8-6.8-5.4
				c-1.6-2.6-1.7-5.8-1-8.6c0.6-2.8,2.9-5.5,5.4-6.8c2.5-1.4,5.8-1.8,8.6-1c3,0.8,5.2,2.8,6.8,5.4
				C519.4,217.9,519.5,221,518.9,223.9z"/>
			<path class="st56" d="M509.1,179.5c0.3-2.3,0.7-4.7,1-7c0.9-3.6,2.5-6.6,4.9-9.2c1.9-2.9,4.4-5.1,7.6-6.7c3-1.8,6.2-2.8,9.7-3
				c3.5-0.8,7-0.6,10.4,0.6c4.6,1.3,8.6,3.7,11.9,7.1c1.3,1.8,2.7,3.6,4,5.4c2.3,4.1,3.4,8.4,3.4,13.1c-0.3,2.3-0.7,4.7-1,7
				c-0.8,3.6-2.5,6.6-4.9,9.2c-1.9,2.9-4.4,5.1-7.6,6.7c-3,1.8-6.2,2.8-9.7,3c-3.5,0.8-7,0.6-10.4-0.6c-4.6-1.3-8.6-3.7-11.9-7.1
				c-1.4-1.8-2.7-3.6-4-5.4C510.3,188.6,509.1,184.2,509.1,179.5z"/>
			<path class="st56" d="M525.8,54.6c0.1-0.4,0.2-0.7,0.3-1.1c3.3,3.3,6.6,6.8,9.7,10.4c2.7,4.5,5,9.2,7.3,14.1
				c-1.5,0-3-0.2-4.5-0.7c-4.8-1.4-8.5-4.6-11.1-8.7c-1.6-2.8-2.4-5.9-2.4-9.1C525.3,57.8,525.6,56.2,525.8,54.6z"/>
			<path class="st56" d="M451.7,27c16.8-1.4,32.2,0.7,45.5,6.3c-6.8,7.8-17.8,11.7-28.2,8.8C461.1,39.8,454.9,34.1,451.7,27z"/>
			<path class="st56" d="M441.4,274.9c-1.1-0.9-2.3-1.9-3.4-2.8c-5.4-4.5-10.9-9.1-16.4-13.4c-12-9.4-23.9-17.6-35.7-24.7
				c0.4-0.5,0.8-1,1.3-1.5c2.5-3.8,5.8-6.7,9.9-8.8c3.9-2.4,8.2-3.7,12.7-3.9c4.6-1,9.1-0.7,13.7,0.7c6,1.7,11.2,4.8,15.6,9.3
				c1.8,2.4,3.5,4.8,5.3,7.1c3,5.3,4.5,11.1,4.5,17.2c-0.4,3.1-0.9,6.1-1.3,9.2C446.4,267.7,444.4,271.6,441.4,274.9z"/>
			<path class="st56" d="M375.1,227.8c-15.1-8.2-30.2-14.6-45.1-19.2c1.8-6,5.9-11.2,11.4-14.3c7.6-4.3,17.1-4.1,24.6,0.4
				c3.7,2.2,6.6,5.2,8.7,9c2.1,3.8,3.1,7.8,3.1,12.1c0,0.3,0.1,0.6,0.1,0.8C377.9,220.5,376.9,224.3,375.1,227.8z"/>
			<path class="st56" d="M321.8,118.6c-5-1.4-7.6-6.6-6.5-11.5c0.5-2.3,2.4-4.5,4.4-5.6c2.1-1.2,4.8-1.5,7.1-0.9
				c5,1.4,7.6,6.6,6.5,11.5c-0.5,2.3-2.4,4.5-4.4,5.6C326.8,118.9,324.1,119.2,321.8,118.6z"/>
			<path class="st56" d="M155.3,268.8c-0.2,1.1-0.6,2-1.1,3c-3.6-8.2-6.3-16.5-8.2-24.8c3.1,1.7,5.6,4.3,7.5,7.4
				c1.6,2.9,2.5,6.1,2.5,9.4C155.7,265.4,155.5,267.1,155.3,268.8z"/>
			<path class="st56" d="M517,311.4c-1.2,1.8-2.6,3.3-4.3,4.7c-4.2-0.9-8.3-2-12.3-3.4c-6.3-2.1-12.4-4.9-18.2-8.1
				c-3-1.6-5.9-3.4-8.7-5.2c-1.4-0.9-3.1-1.8-4.4-2.9c-0.7-0.7-1.5-1.2-2.3-1.8c0-0.3,0-0.5,0-0.8c0.3-2.5,0.7-5,1-7.5
				c0.9-3.8,2.7-7.1,5.3-9.8c2.1-3.1,4.7-5.5,8.1-7.2c3.2-2,6.6-3,10.3-3.2c3.7-0.8,7.4-0.6,11.1,0.6c4.9,1.4,9.2,3.9,12.7,7.6
				c1.4,1.9,2.9,3.9,4.3,5.8c2.4,4.3,3.6,9,3.6,14c-0.4,2.5-0.7,5-1.1,7.5C521.3,305.3,519.6,308.6,517,311.4z"/>
			<path class="st56" d="M572.5,269.2c-2.4,3.6-5.6,6.5-9.6,8.5c-3.8,2.3-7.9,3.6-12.3,3.8c-4.4,0.9-8.8,0.7-13.2-0.7
				c-5.8-1.7-10.9-4.6-15.1-9l-5.1-6.9c-2.9-5.2-4.3-10.7-4.3-16.6c0.4-3,0.8-5.9,1.2-8.9c1.1-4.5,3.2-8.4,6.3-11.7
				c2.4-3.6,5.6-6.5,9.6-8.5c3.8-2.3,7.9-3.6,12.3-3.8c4.4-0.9,8.8-0.7,13.2,0.7c5.8,1.6,10.9,4.6,15.1,9l5.1,6.9
				c2.9,5.2,4.3,10.7,4.3,16.6l-1.2,8.9C577.7,262,575.6,266,572.5,269.2z"/>
			<path class="st56" d="M589.4,177.6c0.7-0.4,1.5-0.8,2.2-1.2c8.5,15.8,17.5,31.5,27.3,46.6c-0.9,0.7-1.9,1.3-2.9,1.9
				c-3.1,1.9-6.4,2.9-9.9,3.1c-3.6,0.8-7.1,0.6-10.7-0.6c-4.7-1.3-8.8-3.8-12.2-7.3c-1.4-1.9-2.8-3.7-4.1-5.6
				c-2.3-4.2-3.5-8.6-3.5-13.4c0.3-2.4,0.7-4.8,1-7.2c0.9-3.6,2.6-6.8,5.1-9.4C583.5,181.6,586.1,179.3,589.4,177.6z"/>
			<path class="st56" d="M570.4,140.7c0.5-0.7,1-1.3,1.5-1.9c6,11.7,12.1,23.5,18.4,35.3c-0.4,0-0.7,0.1-1.1,0.1
				c-2.8,0.6-5.5,0.4-8.2-0.4c-3.6-1-6.8-2.9-9.4-5.6c-1.1-1.4-2.1-2.9-3.2-4.3c-1.8-3.2-2.7-6.7-2.7-10.3c0.3-1.9,0.5-3.7,0.8-5.6
				C567.2,145.2,568.5,142.8,570.4,140.7z"/>
			<path class="st56" d="M634.8,245.7c3.2,4.2,6.6,8.3,9.9,12.4c0.2,1,0.3,2,0.4,3c0,0.5,0.1,1,0.1,1.5c0,3.4-0.9,6.6-2.7,9.6
				c-3.4,5.6-9.6,9.1-16.1,9.1c-6.7,0-12.9-3.7-16.2-9.5c-1.6-2.9-2.4-5.9-2.4-9.2c0-3.4,0.9-6.6,2.7-9.6c1-1.3,2-2.6,3.1-3.9
				c1.7-1.8,3.7-3,6-3.7c2.2-1.1,4.5-1.6,7-1.5c0.8,0,1.7,0.1,2.5,0.3C631.1,244.3,633,244.8,634.8,245.7z"/>
			<path class="st56" d="M598,303.8c-0.2,1.6-0.5,3.2-0.7,4.9c-0.6,2.5-1.7,4.6-3.4,6.4c-1.3,2-3.1,3.5-5.2,4.6
				c-2.1,1.3-4.3,1.9-6.7,2c-2.4,0.5-4.8,0.4-7.2-0.4c-4.8-1.3-8.4-4.5-11-8.6c-1.6-2.8-2.3-5.8-2.3-9c0.2-1.6,0.4-3.2,0.7-4.9
				c0.6-2.5,1.7-4.6,3.4-6.4c1.3-2,3.1-3.5,5.2-4.6c2.1-1.3,4.3-1.9,6.7-2c2.4-0.5,4.8-0.4,7.2,0.4c4.8,1.3,8.4,4.5,11,8.6
				C597.2,297.5,598,300.5,598,303.8z"/>
			<path class="st56" d="M558.1,318.5c0.5,0.8,0.8,1.7,1.2,2.6c-11.3-0.6-22.8-1.2-34-2.8c0.5-0.8,1-1.5,1.7-2.2
				c1.4-2,3.2-3.6,5.4-4.8c2.2-1.3,4.5-2,6.9-2.1c2.5-0.5,5-0.4,7.5,0.4C551.7,311,555.5,314.3,558.1,318.5z"/>
			<path class="st56" d="M643.2,304.9c1.5,5.5-0.2,11.9-4.4,15.8l-0.1,0.1c-2.1,2-4.5,3.4-7.3,4.1c-1.4,0.2-2.8,0.4-4.2,0.5
				c-1.5-0.2-2.9-0.4-4.4-0.6c-2.2-0.5-4.1-1.6-5.7-3.1c-1.2-0.8-2.2-1.8-2.9-3c-1.4-1.6-2.4-3.5-2.8-5.6c-0.2-1.4-0.4-2.8-0.5-4.2
				l0.6-4.4c0.5-2.2,1.5-4.1,3.1-5.7c0.8-1.2,1.8-2.2,3-2.9c1.6-1.4,3.5-2.4,5.6-2.8c1.4-0.2,2.8-0.4,4.2-0.5l4.4,0.6
				c2.2,0.5,4.1,1.6,5.7,3.1c1.2,0.8,2.2,1.8,2.9,3c1.4,1.6,2.4,3.5,2.8,5.6L643.2,304.9z"/>
			<path class="st56" d="M658.8,279.4c0.4-0.6,0.9-1.2,1.4-1.8c9,11.7,17.2,23.9,22.6,37.1c-1.2,0.3-2.4,0.6-3.7,0.6
				c-3,0.6-5.9,0.5-8.8-0.5c-3.9-1.1-7.3-3.1-10.1-6l-3.4-4.6c-1.9-3.4-2.9-7.1-2.9-11.1c0.3-2,0.5-4,0.8-6
				C655.4,284.2,656.8,281.6,658.8,279.4z"/>
			<path class="st56" d="M655.3,369.7c-1.8,0.2-3.7,0-5.5-0.4c0.5-2.5,0.7-5,0.8-7.5c0.1-6.7-1.4-15.5-8.3-21.6
				c2.5,1.4,4.9,3.1,6.8,5.3C655.3,352.5,656.8,361,655.3,369.7z"/>
			<path class="st56" d="M666.4,366.6c-2.5,1.5-5.2,2.4-8,2.6c0.6-5.8-0.1-11.4-2.2-16.5c-3.8-9.1-11.9-15.7-23.3-19.1
				c0.2-0.3,0.3-0.7,0.5-1c0.3-0.8,3.4-4.5,4-5.1c1.6-1.4,3.2-2.7,5-3.7c1.9-0.8,3.8-1.6,5.7-2.3c3.8-1.2,8.9-1,12.7,0.1
				c2.5,0.6,4.8,1.7,6.7,3.1c1.5,0.9,2.7,1.9,3.9,3.1c0.1,0.1,0.2,0.2,0.3,0.3c1.1,1.1,2,2.4,2.9,3.7c0.8,1,1.4,2.1,1.8,3.3
				c0.3,0.7,0.6,1.4,0.8,2.1c1.1,2.5,1.6,5.2,1.5,8.1c-0.3,2.2-0.6,4.3-0.9,6.5c0,0,0,0.1,0,0.1c-1.2,4.2-3.4,7.9-6.5,10.9
				C669.8,364.1,668.1,365.3,666.4,366.6z"/>
			<path class="st56" d="M635.9,402.5c0.2-1.8,0.5-3.5,0.7-5.2c3-3.4,5.7-7.5,7.9-12c0.8-0.6,1.5-1.1,2.4-1.5
				c1.4-0.9,2.9-1.5,4.5-1.9c-3.3,7.3-8.2,14.3-13.4,20.1c-0.6,0.7-1.3,1.4-2,2C635.9,403.5,635.9,403,635.9,402.5z"/>
			<path class="st56" d="M638.6,413.2c-1-1.7-1.7-3.5-2.1-5.4c4.2-3.9,8.1-8.2,11.5-13c3.2-4.5,5.7-9,7.4-13.5
				c2.6-0.5,5.2-0.3,7.8,0.5c3.7,1.1,7,3,9.7,5.8c1.1,1.5,2.2,2.9,3.3,4.4c0.6,1,1,2,1.4,3c-6.3,10.7-15.2,20-26.9,28
				c-3.4-1.1-6.3-2.9-8.8-5.5C640.9,416.1,639.8,414.6,638.6,413.2z"/>
			<path class="st56" d="M595.8,429.3c-1.1-0.6-2.1-1.4-3-2.2c6.9-3.3,13.3-7.2,19.1-11.6c3.3-1.7,6.5-3.6,9.4-5.7
				c0.5,2,0.6,4,0.4,6.1C613.4,421.5,604.4,425.8,595.8,429.3z"/>
			<path class="st56" d="M599.5,430.8c-0.1,0-0.1,0-0.1,0c7.2-2.9,14.5-6.6,21.5-11c-0.6,1.9-1.6,3.6-3,5.1c-1.2,1.9-2.9,3.4-5,4.4
				c-2,1.2-4.1,1.9-6.3,2c-2.3,0.5-4.6,0.4-6.8-0.4L599.5,430.8z"/>
			<path class="st56" d="M627.3,432.4c1.4,0.4,2.8,1,4,1.7c-7.4,3.5-15.5,6.7-24.4,9.6c-0.6,0.2-1.1,0.3-1.6,0.5
				c0.6-2.1,1.7-4,3.2-5.6c1.3-1.9,3-3.5,5.2-4.6c2-1.3,4.2-1.9,6.6-2C622.5,431.5,624.9,431.6,627.3,432.4z"/>
			<path class="st56" d="M687,348.8c0.8-0.5,1.6-0.9,2.4-1.3c0,0.1,0,0.3,0,0.4c-0.1,15.8-3.1,29.6-9,41.7c-1.2-1.6-2.4-3.2-3.6-4.8
				c-2.3-4.1-3.4-8.4-3.4-13.1c0.3-2.3,0.7-4.7,1-7c0.8-3.5,2.5-6.6,4.9-9.2C681.4,352.6,683.9,350.4,687,348.8z"/>
			<path class="st56" d="M590.3,246.9c-1.3-2-1.3-4.5-0.8-6.8c0.5-2.2,2.3-4.3,4.2-5.4c2-1.1,4.6-1.4,6.8-0.8
				c2.3,0.7,4.1,2.2,5.4,4.2s1.3,4.5,0.8,6.8c-0.5,2.2-2.3,4.3-4.2,5.4c-2,1.1-4.6,1.4-6.8,0.8C593.3,250.5,591.5,249,590.3,246.9z"
				/>
			<path class="st56" d="M559.9,438.1c0.4-0.1,0.7-0.2,1.1-0.2c3.3-0.7,7-0.7,11,0.5c7,1.9,11.5,6.1,13.9,11.1
				c-13.4,3-27.4,4.8-41.5,5.5C546.4,447.2,551.9,440.3,559.9,438.1z"/>
			<path class="st56" d="M506.2,446.1c-0.5-0.3-1-0.7-1.4-1.1c9.7,0.7,19.5-0.7,28.7-4.2c0,0,0.1,0,0.1,0c-0.1,0.1-0.1,0.3-0.2,0.4
				c-1,1.2-2,2.5-3,3.7c-1.3,0.9-2.5,1.9-3.8,2.8c-0.1,0-0.1,0.1-0.2,0.1c-2.8,1.6-5.8,2.4-9,2.4c-1.6-0.2-3.2-0.4-4.8-0.7
				C510.1,448.9,507.9,447.8,506.2,446.1z"/>
			<path class="st56" d="M446,436.5c0.2-0.1,0.4-0.3,0.6-0.4c0.5,0.1,1.1,0.1,1.6,0.2l0.1-0.7l0-0.2c3.1,1.5,6.4,2.7,9.8,3.7
				c8.7,2.4,18.1,3.1,26.9,1.8c0.4,0.5,0.7,0.9,1.1,1.4c1.8,2.9,2.7,6,2.9,9.4c0,0.2,0.1,0.4,0.1,0.5c-15.9-2.4-31.6-6.1-46.8-11.1
				C443.6,439.6,444.8,438,446,436.5z"/>
			<path class="st56" d="M267.4,365.6c3.7,3.9,8.4,7.1,13.9,9.4c3,4.6,7.5,7.9,13.1,9.5c1.9,0.5,3.9,0.9,6,1
				c4.1,0.3,8.2-0.2,12.2-1.4c-3.1,2.5-6.7,4.3-10.5,5.4c-8.4-0.5-16.6-2.4-24.6-5.3C271.9,379.6,268.2,372.8,267.4,365.6z"/>
			<path class="st56" d="M195.6,306.2c0.8-2.8,2.2-5.2,4.1-7.3c6.1,10.6,14.5,20.3,24.6,28.6c-1.5,1-3.2,1.8-5,2.2
				c-1.6,0.2-3.2,0.4-4.8,0.6l-0.7,0c-6.8-0.2-13-3.7-16.4-9.6c-1.3-2.2-2-4.5-2.1-6.9C194.7,311.1,194.8,308.7,195.6,306.2z"/>
			<path class="st56" d="M177.7,247.9c1.6-1,3.4-1.6,5.2-1.9c-0.9,3.5-1.4,7-0.3,10.5c0.1,2,1.2,4.1,2.3,6.1
				c1,5.8,3.2,10.8,5.4,15.9c0.5,1.2,1.1,2.4,1.6,3.7c-0.9,0.2-1.8,0.4-2.8,0.4c-2.5,0.5-4.9,0.4-7.4-0.4c-4.9-1.4-8.6-4.6-11.3-8.8
				c-1.6-2.9-2.4-5.9-2.4-9.2c0.2-1.7,0.5-3.3,0.7-5c0.6-2.5,1.8-4.7,3.5-6.5C173.7,250.6,175.5,249.1,177.7,247.9z"/>
			<path class="st56" d="M146.6,236.5c-0.6,0.9-1.3,1.7-2.1,2.4c-1.2-7.3-1.6-14.6-1.5-21.8c1.5,0.7,1.9,1.1,3.7,2.6
				c1.1,1.1,1.9,2.4,2.4,3.9c0.7,1.4,1,2.9,1,4.5c-0.1,2.2-0.7,4.2-1.7,6.1C147.9,235.1,147.3,235.9,146.6,236.5z"/>
			<path class="st56" d="M444.8,101.5c-1,1.5-2.3,2.6-3.9,3.4c-3,1.7-7,2.2-10.3,1.2c-3.5-1-6.3-3.3-8.2-6.4
				c-1.9-3.1-2-6.9-1.2-10.3c0.4-1.8,1.3-3.4,2.5-4.7c1-1.5,2.3-2.6,3.9-3.4c3-1.7,7-2.2,10.3-1.2c3.5,1,6.3,3.3,8.2,6.4
				c1.9,3.1,2,6.9,1.2,10.3C446.9,98.6,446.1,100.2,444.8,101.5z"/>
			<path class="st56" d="M326.6,197.7c1.9,3.1,2.1,6.8,1.3,10.3c-9.1-2.7-18.1-4.6-27.1-5.9c0.1-0.4,0.1-0.9,0.2-1.3
				c0.4-1.9,1.3-3.5,2.6-4.8c1-1.5,2.3-2.7,4-3.5c3.1-1.8,7.1-2.2,10.6-1.3C321.8,192.2,324.6,194.6,326.6,197.7z"/>
		</g>
		
			<radialGradient id="SVGID_52_" cx="54.7554" cy="-297.2073" r="182.933" gradientTransform="matrix(-0.9509 -0.3096 0.3096 -0.9509 552.7256 66.2192)" gradientUnits="userSpaceOnUse">
			<stop  offset="3.070000e-02" style="stop-color:#7C00FF"/>
			<stop  offset="0.4951" style="stop-color:#1C78FF"/>
			<stop  offset="0.6675" style="stop-color:#7C00FF"/>
			<stop  offset="1" style="stop-color:#7D04D3"/>
		</radialGradient>
		<path class="st57" d="M184.4,240.7c-0.2,0.6-0.4,1.2-0.5,1.8c-1.3,4.4-2.8,9.3-1.2,13.9c0.1,2,1.2,4.1,2.3,6.1
			c1,5.8,3.2,10.8,5.4,15.9c1.1,2.4,2.2,4.9,3.2,7.6c7.9,20.5,23.7,38.5,44.9,51.3c0,0.1,0.1,0.2,0.1,0.3c1.6,2.1,2.9,4.5,4.2,6.7
			c2.1,3.7,4.3,7.6,7.9,10.6c5.6,4.6,11.2,8.1,16.7,10.6c3.7,3.9,8.4,7.1,13.9,9.5c3,4.6,7.5,7.9,13.1,9.5c1.9,0.5,3.9,0.9,6,1
			c5.5,0.4,11.2-0.7,16.3-2.8c1.8-0.8,3.5-1.7,5.2-2.8c-2.4,2.5-5,4.9-7.9,6.9c-0.9,0.6,0,1.8,0.8,1.6c0.7-0.1,1.3-0.3,1.9-0.5
			c-0.3,2,1.9,3.8,3.9,2.2c6.6-5,12.8-11.7,18.5-18.6c0.5-0.1,0.9-0.3,1.3-0.7c6.9-7,13.5-15.7,19-24c2.3-3.5,3.9-7.3,5.6-11.1
			c4.6-10.1,11.1-14.2,22.8-10c6.5,2.3,10.7,8,16.5,11.5c4.9,3,10.5,4.5,15.4,7.5c5.1,3.1,8.9,7.2,10.5,11.9c-0.9,6-2.8,12.4-5,18.6
			c-3.8,7.2-8.6,14-12.3,21.1c-4.7,9-7.8,18.8-9.7,28.8c-0.4,1.8,2.3,3.6,3.3,1.6c0.4-0.7,0.7-1.5,1.1-2.2c0,4,3.2,5.7,6.8,6.7
			c4,1.1,8.3,1.1,11.2,1l0-0.5c2,1.4,4.1,2.4,6,3c0.2,0.1,0.4,0.1,0.5,0.2c3.1,0.9,6.2,0.8,9.1,0.8c2.3,0,4.7-0.1,7.1,0.4l0.1-0.7
			l0-0.2c3.1,1.5,6.4,2.7,9.8,3.7c8.8,2.5,18.4,3.1,27.3,1.8c1.8,0.7,3.7,1.3,5.5,1.8c14.1,3.9,28.9,3.3,42.4-1.9
			c28.1,0.2,57.5-9.4,78.5-25.2c6.2-3.1,11.7-7,16.4-11.5l0.1,0.2c12-7,21.9-26,22.1-42.4c0.1-7.6-1.8-17.8-11.3-23.7
			c-22.4-13.9-50.8-15.4-78.4-16.9c-20.6-1.1-41.9-2.2-60.6-8.5c-6.3-2.1-12.4-4.9-18.2-8.1c-3-1.6-5.9-3.4-8.7-5.2
			c-1.4-0.9-3.1-1.8-4.4-2.9c-2.1-1.9-4.6-3.2-6.9-4.9c-2.7-2-5.4-4.1-8.1-6.2c-5.4-4.3-10.7-8.7-16.1-13.2
			c-5.4-4.5-10.9-9.1-16.4-13.4c-60.9-47.7-120.7-66.3-177.8-55.3c-10.2,2-20.7,4.4-28.9,8.7C201.2,216.7,189,224.7,184.4,240.7z
			 M251.7,207.2c-0.3,5.2,1.3,12.9,2.5,18.7c0.3,1.5,0.6,3,0.8,4.1c7.8,42.6,38.4,77,79.7,89.8c0.7,0.2,1.4,0.4,2.1,0.6
			c7.9,2.2,16.2,3.2,24.4,3c-0.7,0.2-1.3,0.3-2,0.5c-3.4,1.1-6.7,2.3-10,3.5c-1.1,0.2-2.2,0.4-3.1,0.5c-24.8,3.4-47.2-1.1-68.5-13.5
			c-19.6-11.5-47.2-49.2-49.7-59.8c-0.5-2.1-1-4.2-1.6-6.4c-2.2-8.6-4.2-16.6-4.5-26.4c-0.1-2.6,0.5-5.1,1.1-7.9
			c0-0.1,0-0.2,0.1-0.4C232.4,210.6,241.9,208.4,251.7,207.2z M359.6,227.9c-5.5,6.3-4.1,24.6-2.9,30.8c4.2,22.3,13,41.9,25.5,57.6
			c-1.5-0.4-3-0.9-4.5-1.3c-4.2-1.1-8.5-2.3-12.3-4.3c-30-16.3-47.6-33.1-58.8-56.3c-3.4-7.1-4.8-14.7-6.2-22.1
			c-1-5.4-2-11-3.8-16.4c-0.1-0.3-0.3-0.4-0.6-0.5l-0.3,0c-0.3,0-0.5,0.1-0.7,0.4c-5.2,9.8,4.5,32.5,7.5,39.3
			c12.7,27.7,37.2,51.1,63.9,61.1c0.3,0.1,0.5,0.2,0.8,0.3c-1.6,0.1-3.3,0.1-5,0.2c-8.5,0.3-17.4,0.7-26.2-1.8
			c-36.9-10.3-62.9-36.5-75.3-75.7c-2.2-7-2.6-14.8-3-22.4c-0.2-3.5-0.4-6.9-0.7-10.1c18.6-1.7,37.9,0,57.9,5
			C329.5,215.3,344.3,220.7,359.6,227.9z M410.7,319.4c-0.1,3,0.5,9.4,2.6,14.4c-9.8-8.2-18.8-19-22.3-33.5c-0.9-3.7-1.5-7.8-2-11.9
			c-0.8-6.1-1.7-12.4-3.8-17.7c-0.1-0.2-0.3-0.4-0.6-0.4l-0.5,0c-0.2,0-0.4,0-0.5,0.2c-3.7,3.5-1.6,11.2-0.1,16.9
			c0.4,1.6,0.8,3,1,4.1c2.5,14.5,8.4,26.5,18.2,36.9c-0.3-0.2-0.6-0.5-1-0.7c-2-1.5-3.9-3.1-5.9-4.5c-2.6-2.3-5.1-4.7-7.4-7.1
			c-4.6-4.8-8.7-10-12.3-15.6c-6.8-10.6-12-23-14.4-35.5c-0.1-0.6-0.2-1.2-0.3-1.7c-1.9-11.1-1.6-22.7,1.1-33.6
			c-0.1,0.3,10.2,5.1,11.2,5.6c4.3,2.3,8.6,4.7,12.8,7.2c-0.1-0.1-1.5,6.6-1.6,7.1c-0.2,2-1.1,5.2,0.5,6.9c0.6,0.6,1.7,0.8,2.3,0.1
			c0.6-0.8,0.4-3.3,0.5-4.3c0.2-1.8,0.5-3.7,0.7-5.5c0-0.2,0.3-1.2,0.5-2c0.1-0.2,0.1-0.3,0.1-0.5c6.5,3.9,13.2,8.2,19.9,12.7
			c4.8,3.2,9.5,6.8,14.1,10.4c-0.6,1.7-1.3,3.4-1.9,5C415.9,288.2,411.5,299.7,410.7,319.4z M462.9,298.9c-0.8,1.5-1.7,3.2-2.8,5.4
			c-0.9,1.7-1.7,3.3-2,3.7c-8.4,10.9-18.9,22.7-33.5,27.1c-1.5,0.4-2.7,0.3-3.8-0.5c-3.6-2.6-4.5-11.2-4.4-15.8
			c0.1-14.8,3.9-27,7.8-39.9c0.9-3,1.8-6,2.7-9.1c4.1,3.3,8.2,6.7,12.2,10.1C446.9,286.3,454.7,292.9,462.9,298.9z M496.8,317.8
			c-33.8,25.5-59.1,25.5-72.5,22.5c14.9-1.8,31.5-18.2,38-30c0.4-0.7,0.9-1.5,1.4-2.4c1.1-1.8,2.4-3.9,3.4-6
			C476.4,308.3,486.2,314,496.8,317.8z M635,340.9c-20.4,15.1-46.8,25.1-76.5,28.9c-28.3,3.6-58.2,1.3-84.1-6.6
			c-5.6-1.7-11.2-3.8-16.6-6c24.5,3.6,49.6-0.2,65.3-3.8c17.1-3.8,33.6-8.2,46.3-19.2l-0.9-1l-0.9-1l-0.4-0.6
			c-20.7,13.8-64.6,33.5-130.9,16.5c-0.6-0.3-1.3-0.6-2-1c-0.3-0.3-0.6-0.6-0.9-0.9c23.7,2.4,52.4-13.8,67.3-27.1
			c1.7,0.6,3.4,1.1,5.1,1.5c-4.4,2.3-8.2,5.6-11.9,8.8c-2.5,2.1-5,4.3-7.7,6.1c-5.4,3.7-11.2,6.7-17.3,8.8c-3,1-6.1,1.8-9.1,2.5
			c-1.6,0.4-3.3,0.7-4.9,1c-0.8,0.1-1.7,0.1-2.4,0.5c-0.2,0.1-1.6,1.4-1.4,1.5c2.6,1.6,5.8,0.6,8.6,0c2.6-0.5,5.1-1.1,7.7-1.8
			c11.5-3.4,20.7-10.5,29.9-17.8c3-2.4,6.1-4.9,9.7-7.7c0.3-0.2,0.3-0.6,0.2-0.9l-0.4-0.7c21.1,5.8,42.8,7.1,63.9,8.4
			c7.8,0.5,15.8,0.9,23.7,1.6l0.2,0C606.9,332.1,623.4,333.5,635,340.9z M568.6,421.9c-22.7-0.2-47.5-7.3-71.7-20.7
			c-17.9-9.9-33.9-22.5-46.4-36.2c8.3,5.5,16.8,10.5,25.8,14.2c7.3,3,14.6,5.5,21.9,7.5c21.8,6.1,43.1,7.8,62.6,5
			c3.7-0.5,7.3-1.2,10.9-2c11.9-2.8,23.3-7.5,33.8-13.8c5.3-3.2,10.3-6.8,15-10.8c2.4-2,4.8-4.2,7.1-6.4c2.2-2.1,4.6-4.4,6.2-7
			c0.3-0.5,0.5-1,0.2-1.5c-0.3-0.5-1.1-0.5-1.7-0.4c-1,0.3-1.9,0.7-2.8,1.3c-4.6,3.4-8.7,7.6-13.3,11.1c-4.4,3.3-8.9,6.5-13.6,9.3
			c-8.9,5.3-18.4,9.7-28.4,12.6c-9.8,2.9-19.9,4.5-30.1,4.8c-10.8,0.3-21.6-0.8-32.1-3c-11.7-2.4-23.2-6.1-34.3-10.6
			c-12.1-4.9-23.3-12.5-34.1-19.9c-1.1-0.7-2.2-1.5-3.3-2.2c0.7,0.2,1.4,0.5,2.2,0.7c9.9,4.8,20.2,9.4,31,12.7c1,0.3,2,0.6,3,0.9
			c24.9,7,54.9,9.1,82.8,5.8c22.7-2.7,54.5-10.2,78-30.6c0.8,0.6,1.6,1.2,2.3,1.9c4.4,4.1,6.6,9.9,6.5,17.2
			c-0.2,10.2-5.1,21.9-11.2,30.8C618.6,411.9,595.7,422,568.6,421.9z M476.7,416.8c-11.8-10.5-18.8-26-25.6-41
			c-1.6-3.5-3.1-7-4.7-10.3c19.9,25.7,49.9,45.1,82,54.1c14.2,4,28.8,5.9,43.1,5.4c9.5-0.3,18.3-1.7,26.3-4
			c-6.8,3.8-13.1,6.7-19.1,9C549,441,501,438.3,476.7,416.8z M446.5,396.8c-2-5.3-2.1-12-2.2-18.4c0-3.2-0.1-6.5-0.4-9.7
			c0.5,1.3,1,2.6,1.6,3.9c7,17.4,14.2,35.4,28,47.6c9.1,8,19.9,13.5,31.6,16.8c6.6,1.8,13.5,3,20.5,3.5
			C489.7,445.5,458.6,428.7,446.5,396.8z M438.8,422.9c-5.5-5.7-8.1-13-7.8-21.8c0.2-6.6,2.7-13.2,5.1-19.6c1.4-3.7,2.8-7.4,3.7-11
			c0.1,2.6,0.1,5.3,0.1,7.9c0,6.9-0.1,14,2.1,19.8c6.5,16.9,19.3,30.9,35.6,39.2C463.4,436.2,447.9,432.5,438.8,422.9z M417.3,415.7
			c-1.1-2.2-1.8-4.8-1.9-7.3c0-0.1,0-0.1,0-0.1c2.9-6.1,5.6-12.4,8.1-18.6c1.5-3.7,2.7-7.5,3.9-11.2c0-0.1,0.1-0.1,0.1-0.2
			c0-0.1,0.1-0.1,0.1-0.2c3.3-5.5,7.6-10.5,8.9-16c-0.2,5.9-2.8,12.2-5.6,18.6c-2.8,6.6-5.7,13.4-5.9,20c-0.4,11.2,4.1,21,13.1,28.4
			c1.1,0.9,2.3,1.8,3.5,2.6C429.8,430.5,422,425.4,417.3,415.7z M409.4,420.7c0.9-1.8,1.8-3.5,2.6-5.3c1.2,5.1,5.7,10,9.5,13.4
			c-0.5-0.5-3-0.4-3.8-0.5c-1.3-0.2-2.6-0.6-3.8-1.1c-2.1-0.9-4.2-2.5-4.5-5C409.4,421.7,409.4,421.2,409.4,420.7z M292,378.1
			c3.1,0.9,6.9,0.7,10,0.6c3.6-0.1,7.3-0.7,10.8-1.6c3.8-1,7.5-2.4,11-4.2c1.5-0.7,3.2-1.4,4.5-2.4c1.6-1.3,3-3,4.3-4.5
			c0.7-0.8,1.5-1.7,2.2-2.5c-0.1,1.1-0.2,2.2-0.1,3.2c-0.1,0.2-0.3,0.4-0.4,0.6c-0.8-0.2-1.6,0-2.3,0.8c-0.2,0.2-0.3,0.4-0.5,0.6
			l0,0c0,0,0,0,0,0c-1.2,1.4-2.4,2.9-3.6,4.3c-0.9,0.4-2.7,1.6-3.2,1.8c-1.5,0.5-2.9,1.3-4.4,2c-3.1,1.4-6.4,2.5-9.9,3.1
			c-3.1,0.6-6.3,0.7-9.5,0.4C297.7,380,295,379,292,378.1z M277.7,369.2c22.6,5.5,43.6-4.7,62.2-18.5c-1,1.6-1.9,3.4-2.7,5.1
			c-2.3,2.7-4.8,5.3-7.6,7.2C311.4,375.3,295.7,377.3,277.7,369.2z M244.7,340.9c0.2,0.1,0.4,0.2,0.5,0.3c8,4.2,16.5,7.5,25.1,9.9
			c16.7,4.7,33.9,5.9,49.8,3.4c2-0.3,6.1-1.1,11-2.5c-19,12.8-39.5,20-64.4,7.7c-5.4-2.7-12.2-6.3-16.3-10.4c-1.6-1.6-2.8-3.5-4-5.6
			C245.9,342.8,245.3,341.9,244.7,340.9z M193.6,277.1c6.4,9.2,14.7,18,24.4,25.8c19.3,15.4,37.7,28.9,59.9,35.1
			c8.4,2.4,17.4,3.7,27.2,3.6c16.3-0.1,31.7-5,46.5-9.9c1.2-0.4,2.4-0.8,3.5-1.1c-1.9,2.2-3.8,4.4-5.6,6.7c-1.3,1.4-2.8,2.8-4.5,4.1
			c-6.4,4.8-17.6,7.8-25.9,9.1c-47.9,7.2-100.1-20.2-121.6-63.8C196.1,283.5,194.8,280.3,193.6,277.1z M189.8,240.7
			c2.5-6.2,6.4-11.5,11.4-15.9c1.5-1.3,3.2-2.5,4.9-3.7c0.9-0.6,1.8-1.2,2.8-1.8c0.6-0.3,2.2-1.6,2.8-1.5c0.1,0,0.2,0,0.3-0.1
			c1.7-0.7,3.5-1.4,5.2-2.1c-1,5.3,0.2,13.1,0.9,18c0.2,1.1,0.3,2,0.4,2.7c3.9,32.4,29.8,63.8,52.3,79.3c9.5,6.6,19.9,11.6,30,14.4
			c0.3,0.1,0.6,0.2,0.9,0.2c9.8,2.6,20.5,3.6,31.8,3c-4.4,1.4-8.9,2.5-13.8,3.2c-24.5,3.5-49.1-2.6-77.4-19.3
			c-13-7.7-24.5-18.1-34.5-29.3c-3.7-4.1-6.9-9.1-10.9-12.9c-4-3.8-7.8-8-9.4-13.4C185.4,254.9,187.2,247.3,189.8,240.7z"/>
		<g>
			
				<radialGradient id="SVGID_53_" cx="2984.5591" cy="-1623.1647" r="1.2731" gradientTransform="matrix(-0.7431 -0.6697 0.672 -0.7657 3578.5933 1178.7748)" gradientUnits="userSpaceOnUse">
				<stop  offset="0" style="stop-color:#CCFAFA"/>
				<stop  offset="0.3994" style="stop-color:#81F2F2"/>
				<stop  offset="1" style="stop-color:#4E7BFB"/>
			</radialGradient>
			<path class="st58" d="M270.3,424.7c-0.3-1.2-0.5-2.4-0.5-3.6C269.8,422.3,270,423.5,270.3,424.7z"/>
			
				<linearGradient id="SVGID_54_" gradientUnits="userSpaceOnUse" x1="2921.7336" y1="-1616.7917" x2="2921.7336" y2="-1486.4161" gradientTransform="matrix(-0.7469 -0.6648 0.5796 -0.6512 3467.9114 1317.1935)">
				<stop  offset="0" style="stop-color:#FEFBC1"/>
				<stop  offset="0.3645" style="stop-color:#FF53FB"/>
				<stop  offset="0.7217" style="stop-color:#A93CFF"/>
				<stop  offset="1" style="stop-color:#6900CD"/>
			</linearGradient>
			<path class="st59" d="M400.6,442.1c3.3-10.1,6.9-20.4,10.4-30.4c6.9-19.5,14-39.6,18.7-59.6c0-0.1,0-0.1,0.1-0.1
				c-0.7-1.8-1.6-3.5-2.6-5.2c-0.8-1.4-1.7-2.8-2.9-3.9c-3.2-2.9-7-3.4-10.9-4.6c-6.4-1.9-15.5-7.8-21.6-11.7
				c-1.2-0.8-2.2-1.4-3.1-2c-0.3-0.1-0.6-0.2-0.9-0.3c-0.1,0-0.2,0-0.2-0.1c-0.1,0-0.1-0.1-0.2-0.1c-1.3-0.5-2.6-1-3.9-1.5
				c-1.5-0.6-3.1-1.2-4.6-1.7c-0.2,0.4-0.8,0.8-1.5,1.5c-0.1,0.1-0.2,0.2-0.3,0.2c-1.2,1.5-2.7,3.5-3.7,5.7
				c-0.8,1.7-1.5,3.4-2.2,5.1c-1.9,4.4-3.9,9-6.6,13.3c-8,12.7-18.3,23.6-28.2,33.5c-0.6,0.6-1.3,1.4-2.1,2.4
				c-2.6,3.1-6.1,7.1-9.5,7.9c0.8,2.4,1.4,5.4,1.8,7.7c0.3,0.8,0.5,1.5,0.7,2.2c0.6,2,1.3,4.1,3.4,7.8c3.6,6.4,10,13,18.1,18.7
				c6.3,4.4,15.4,8.1,23.8,9.8c2.3,0.5,5.4,0.8,8.6,1.3C388.2,439,396.2,440,400.6,442.1z"/>
			
				<radialGradient id="SVGID_55_" cx="2915.97" cy="-1506.842" r="396.7988" gradientTransform="matrix(-0.7431 -0.6697 0.672 -0.7657 3578.5933 1178.7748)" gradientUnits="userSpaceOnUse">
				<stop  offset="0" style="stop-color:#FBA559"/>
				<stop  offset="0.3152" style="stop-color:#F97ACF"/>
				<stop  offset="0.6429" style="stop-color:#A42CDC"/>
				<stop  offset="1" style="stop-color:#00FFFF"/>
			</radialGradient>
			<path class="st60" d="M172.5,517.5c-5.1,3.1-10.3,6.1-15.6,8.8c-4.4,2.3-9.4,4.1-13.3,7.4c-7.6,6.6-16.8,11-25.5,16.2
				c-15.7,9.4-32.4,18.6-46.3,30.7c-15.6,13.5-31.7,27.5-35,49.1c-4.6,30.1,8.2,48.5,19.8,58.6c20.7,18.1,54.6,23.9,84.2,14.5
				c26.3-8.4,79.6-39.6,120.8-75.2c49.9-43,87.4-92.9,107.1-124.4c-1.1-2.7-0.6-5.7-0.2-8.6c0.5-3.4,1-6.6-0.9-8.8
				c-0.5-0.6-1-0.9-1.5-0.9c-1.4-0.1-3,1.6-4.8,3.4c-2.5,2.5-5.4,5.4-8.9,4.8c-5.9-1-6.3-6.7-6.6-10c-0.1-1-0.2-2.4-0.4-2.6
				c-3.9-0.8-7.7,1.9-11.8,4.7c-6,4.2-12.8,9-21.4,3.2c-0.8-0.5-1.6-1.1-2.3-1.8c-6.8-6.1-12.2-18-7.3-27.1c0.5-0.9,1.9-2.4,3.5-4.2
				c1.8-2,5.2-5.7,5.1-6.5c-1-2-4.5-1.1-7.8-0.4c-2.8,0.7-5.4,1.3-7.1,0.5c-2.1-0.9-3.3-2-3.7-3.4c-0.5-2,0.9-4,2.2-5.7
				c1.5-2,2.1-3.1,1.3-3.8c-1.5-1.4-5.1-1-8.6-0.6c-3.2,0.4-6.6,0.7-8.9-0.1c-0.2-0.1-0.4-0.2-0.5-0.2
				c-7.3,10.9-18.2,20.1-27.7,28.9c-12.3,11.4-25,21.3-39.3,30c-9.2,5.6-18.4,11.3-27.6,16.9c-1,0.6-2.1,1.3-3.1,1.9
				C177.9,514.3,175.2,515.9,172.5,517.5z"/>
			
				<linearGradient id="SVGID_56_" gradientUnits="userSpaceOnUse" x1="2915.5286" y1="-1691.4712" x2="2915.5286" y2="-1625.5107" gradientTransform="matrix(-0.7469 -0.6648 0.5796 -0.6512 3467.9114 1317.1935)">
				<stop  offset="0" style="stop-color:#FEFBC1"/>
				<stop  offset="0.3645" style="stop-color:#FF53FB"/>
				<stop  offset="0.7217" style="stop-color:#A93CFF"/>
				<stop  offset="1" style="stop-color:#6900CD"/>
			</linearGradient>
			<path class="st61" d="M380.5,505c3.2-0.2,6.1-1.7,7.6-4c3.3-5,4.4-9.8,5.1-14.7c-0.5,0.5-1,1-1.5,1.5c-1.9,1.6-2.7,1.8-4.9,2.2
				c-3.3,0.6-5.5,0.2-6.9-1c-2-1.9-1.6-5.3-1.2-9c0.4-4,0.9-8.1-1.5-10.6c-0.3-0.3-0.6-0.4-0.9-0.4c-1.1,0-2.5,1.4-3.9,2.9
				c-1.6,1.6-3.3,3.3-5,3.3c-6.5-0.1-7.7-3.1-8.9-6.3c-0.8-2.1-1.6-4.2-3.9-6c-1.3-1-4.8,2.3-6.5,3.9c-0.6,0.5-1,1-1.3,1.2
				c-6.8,5.2-18.8,9-25.9,2.5c-0.6-0.5-1.1-1.1-1.6-1.7c-5.3-6.8-2.4-12.1,0.4-17.1c1.6-3,3.3-6,3.6-9.5c0.1-1-2.6-1.2-4.9-1.4
				c-3.2-0.2-6.9-0.5-8.2-2.7c-1.4-2.2,0.3-5.2,1.7-7.5c0.5-0.9,1.3-2.2,1.2-2.5c0,0,0,0,0,0c-1.8-1.6-5.3-0.9-9-0.2
				c-4.3,0.9-9.2,1.9-12.9-0.7c-2.4-1.7-3.9-4.6-4.7-9c-1.1-6.2,4.1-7.8,8.6-9.3c3.7-1.2,6.9-2.2,7-5.2c-0.3-0.1-1.1-0.3-1.8-0.4
				c-2.4-0.4-6-1.1-7.1-4c-0.6-1.8-0.3-4,1-6.4c0.4-0.7,0.9-1.4,1.4-2.1c-1.8,0.3-3.1,0.9-3.8,1.8c-1.3,1.5-1,3.9-0.7,6.3
				c0.3,2.4,0.6,4.9-0.5,6.9c-1.7,3.1-5,4.3-8.2,5.4c-4.8,1.7-8.9,3.2-7.8,10.4c0.1,0.4,0.1,0.8,0.1,1.3c0.1,1.5,0.3,3.5,1.1,4.4
				c3,3.2,7.2,3.5,11.4,3.8c3.8,0.3,7.7,0.6,10.5,3.1c2.2,2.1,0.6,4.6-0.8,6.7c-1.4,2.2-2,3.3-1,4.2c2.2,1.9,5.1,1,8.2,0
				c3.4-1.1,6.9-2.2,9.7,0.6c3.5,3.5-1,8.5-4.3,12.1c-1.1,1.2-2.1,2.3-2.6,3.2c-3,4.8,0.1,16.4,3.5,19.7c9.8,9.5,15.8,5,22.2,0.2
				c4.2-3.2,8.6-6.5,14-4.7c3.6,1.3,3.6,4.5,3.5,7.3c0,3-0.1,5.6,3.5,6.3c2.3,0.5,4.2-1.9,6.3-4.5c2.4-3,5.2-6.5,8.8-4
				c4.4,3,3.8,7.5,3.1,11.8c-0.4,3-0.9,5.9,0.4,8.2l0.9,0.4c-0.1,0.2-0.2,0.4-0.3,0.6c0,0,0,0,0,0.1
				C374.3,504.1,377.3,505.2,380.5,505z"/>
			
				<radialGradient id="SVGID_57_" cx="2917.8623" cy="-1587.637" r="50.7584" gradientTransform="matrix(-0.7431 -0.6697 0.672 -0.7657 3578.5933 1178.7748)" gradientUnits="userSpaceOnUse">
				<stop  offset="0" style="stop-color:#CCFAFA"/>
				<stop  offset="0.3994" style="stop-color:#81F2F2"/>
				<stop  offset="1" style="stop-color:#4E7BFB"/>
			</radialGradient>
			<path class="st62" d="M395.1,463.3c0-2.7,0.9-14.1,4.2-16.9c0,0,0,0,0,0c-0.2-0.1-0.5-0.3-0.8-0.5c-0.6-0.4-1.4-1-2-1
				c-3.5-0.1-6.8-0.6-10.3-1.2c-1-0.2-1.9-0.3-2.9-0.5c-12.9-1.9-24.2-5.6-35.5-11.6c-7.2-3.8-14.6-10.9-19.1-18.5
				c-0.2-0.3-0.4-0.6-0.6-0.9c-0.5-0.7-1-1.5-1.4-2.4c-1.1-2.9-2.6-7.6-3.8-11.8c-0.3-1.2-0.7-2.3-1-3.2c-0.6-1.7-1.4-3.7-1.7-4.1
				c-1.9-0.2-17.2-0.3-18.2-0.1c-0.9,0.3-2,2.1-2.4,2.8l-0.1,0.2c-2.2,3.7-2.2,4.8-2,5.1c0.3,0.5,1.6,0.4,2.8,0.3
				c1.9-0.1,3.9-0.3,5.1,1.1c0.8,1,1,2.5,0.6,4.7c-0.8,4.1-4.8,5.8-8.4,7.2c-3.9,1.6-7.2,3-6.6,7c1.1,6.8,6.5,5.8,12.8,4.7
				c4.8-0.8,9.7-1.7,12.5,1.5c3.1,3.5-0.3,6.7-2.1,8.5c-0.4,0.4-1,1-1.1,1.2c0.4,1.9,2.6,1.9,6.1,1.7c3.7-0.2,8.3-0.5,8.7,4.5
				c0.3,3.5-1.7,7-3.6,10.5c-2.8,5.1-5.4,9.9-1.2,14.4c7,7.5,13.8,2.6,20.4-2c4.3-3,8.3-5.9,12.2-5c0.9,0.2,1.7,0.6,2.2,1.1
				c1.5,1.3,2.1,3.5,2.6,5.4c0.6,2.3,1.2,4.5,3.1,5.1c3.3,1.1,6.2-0.5,8.7-2c2.5-1.4,4.9-2.7,7.1-1c1.9,1.4,2,5.5,2.2,9.8
				c0.2,4.2,0.4,8.9,2.3,9.7c1.1,0.5,2.8-0.2,5.1-2c6-4.7,6-14.4,6.1-21.5V463.3z"/>
			<g>
				
					<linearGradient id="SVGID_58_" gradientUnits="userSpaceOnUse" x1="92.5403" y1="-583.1329" x2="219.4087" y2="-583.1329" gradientTransform="matrix(-0.9167 -0.348 0.2315 -0.8632 622.293 -11.3561)">
					<stop  offset="5.740000e-02" style="stop-color:#7C00FF"/>
					<stop  offset="0.6651" style="stop-color:#410086"/>
					<stop  offset="1" style="stop-color:#7C00FF"/>
				</linearGradient>
				<path class="st63" d="M294.1,392.7c-1.3,2.4-1.6,4.6-1,6.4c1.1,3,4.7,3.6,7.1,4c0.7,0.1,1.5,0.3,1.8,0.4c-0.1,3-3.3,4.1-7,5.2
					c-4.6,1.5-9.7,3.1-8.6,9.3c0.8,4.4,2.3,7.4,4.7,9c3.6,2.5,8.5,1.5,12.9,0.7c3.7-0.7,7.2-1.4,9,0.2c0,0,0,0,0,0
					c0.1,0.3-0.7,1.6-1.2,2.5c-1.4,2.4-3.1,5.3-1.7,7.5c1.4,2.2,5,2.4,8.2,2.7c2.3,0.2,5,0.4,4.9,1.4c-0.2,3.5-1.9,6.6-3.6,9.5
					c-2.8,5.1-5.7,10.4-0.4,17.1c0.5,0.6,1,1.2,1.6,1.7c7.1,6.4,19.1,2.7,25.9-2.5c0.3-0.2,0.8-0.7,1.3-1.2c1.7-1.6,5.2-4.9,6.5-3.9
					c2.3,1.8,3.1,3.9,3.9,6c1.2,3.2,2.4,6.3,8.9,6.3c1.7,0,3.3-1.7,5-3.3c1.4-1.4,2.9-2.9,3.9-2.9c0.3,0,0.6,0.1,0.9,0.4
					c2.4,2.5,1.9,6.6,1.5,10.6c-0.4,3.7-0.8,7.2,1.2,9c1.3,1.2,3.6,1.6,6.9,1c2.2-0.4,3-0.6,4.9-2.2c7.2-6.1,7.3-16.7,7.3-24.4
					c0-4.6,0.3-8.2,1.9-11.9c0.1-0.2,0.4-0.7,0.6-1.2c1.2-2.1,2.8-4.9,1.5-6.4c-3-3.4-13.1-4.7-22.1-5.8c-3.2-0.4-6.3-0.8-8.6-1.3
					c-8.4-1.6-17.6-5.4-23.8-9.8c-8.1-5.7-14.5-12.3-18.1-18.7c-2.1-3.7-2.7-5.8-3.4-7.8c-0.2-0.7-0.5-1.4-0.7-2.2
					c-0.6-3.8-2-10-3.7-11.2c-2.6-1.7-5.8-0.8-8.5-0.1c-1.4,0.4-2.8,0.8-4,0.8c-1.1,0-2.2-0.4-3.4-1c-1.6-0.7-3.2-1.4-5.1-1
					C299,386.6,295.8,389.4,294.1,392.7z M381.5,477.7c-0.2-4.3-0.3-8.3-2.2-9.8c-2.2-1.7-4.6-0.4-7.1,1c-2.5,1.4-5.4,3-8.7,2
					c-1.9-0.6-2.5-2.8-3.1-5.1c-0.5-2-1.1-4.1-2.6-5.4c-0.6-0.5-1.3-0.9-2.2-1.1c-3.8-0.9-7.9,2-12.2,5c-6.6,4.7-13.3,9.5-20.4,2
					c-4.3-4.5-1.6-9.4,1.2-14.4c1.9-3.4,3.8-6.9,3.6-10.5c-0.4-5.1-5-4.8-8.7-4.5c-3.5,0.2-5.6,0.2-6.1-1.7c0.1-0.2,0.7-0.8,1.1-1.2
					c1.8-1.7,5.2-4.9,2.1-8.5c-2.8-3.2-7.7-2.3-12.5-1.5c-6.2,1.1-11.6,2-12.8-4.7c-0.7-3.9,2.7-5.4,6.6-7c3.5-1.5,7.6-3.2,8.4-7.2
					c0.4-2.2,0.2-3.7-0.6-4.7c-1.2-1.4-3.3-1.2-5.1-1.1c-1.2,0.1-2.5,0.2-2.8-0.3c-0.2-0.4-0.2-1.5,2-5.1l0.1-0.2
					c0.5-0.8,1.6-2.5,2.4-2.8c0.9-0.2,16.2-0.1,18.2,0.1c0.3,0.4,1.1,2.4,1.7,4.1c0.3,1,0.6,2.1,1,3.2c1.3,4.2,2.7,8.9,3.8,11.8
					c0.4,0.9,0.9,1.6,1.4,2.4c0.2,0.3,0.4,0.6,0.6,0.9c4.6,7.5,11.9,14.6,19.1,18.5c11.3,6,22.6,9.7,35.5,11.6c1,0.1,2,0.3,2.9,0.5
					c3.5,0.6,6.8,1.1,10.3,1.2c0.6,0,1.4,0.6,2,1c0.3,0.2,0.6,0.4,0.8,0.5c0,0,0,0,0,0c-3.4,2.7-4.2,14.2-4.2,16.9v0.6
					c0,7.1-0.1,16.8-6.1,21.5c-2.3,1.8-4.1,2.5-5.1,2C381.9,486.5,381.7,481.8,381.5,477.7z"/>
				
					<linearGradient id="SVGID_59_" gradientUnits="userSpaceOnUse" x1="2905.2634" y1="-1663.1228" x2="2920.1423" y2="-1663.1228" gradientTransform="matrix(-0.7469 -0.6648 0.5796 -0.6512 3467.9114 1317.1935)">
					<stop  offset="5.740000e-02" style="stop-color:#7C00FF"/>
					<stop  offset="0.6651" style="stop-color:#410086"/>
					<stop  offset="1" style="stop-color:#7C00FF"/>
				</linearGradient>
				<path class="st64" d="M336.4,466.1c0.3-0.1,0.4-0.4,0.4-0.7c0-0.3-0.3-0.5-0.6-0.5h-0.3c-4-0.1-10.6-0.1-11.2-4.7l-0.6,0.1l0,0
					l-1.5,0l0,0l-0.6-0.1c-0.5,2.1,0,3.9,1.4,5.1c0,0,0.1,0.1,0.1,0.1C326.6,468,333.6,467.3,336.4,466.1z"/>
				
					<linearGradient id="SVGID_60_" gradientUnits="userSpaceOnUse" x1="2877.2805" y1="-1635.1597" x2="2884.6355" y2="-1635.1597" gradientTransform="matrix(-0.7469 -0.6648 0.5796 -0.6512 3467.9114 1317.1935)">
					<stop  offset="5.740000e-02" style="stop-color:#7C00FF"/>
					<stop  offset="0.6651" style="stop-color:#410086"/>
					<stop  offset="1" style="stop-color:#7C00FF"/>
				</linearGradient>
				<path class="st65" d="M373.1,467c0.2-0.2,0.3-0.5,0.2-0.8l-0.1-0.2c-0.1-0.3-0.4-0.4-0.7-0.3c-0.4,0.1-0.9,0.3-1.3,0.4
					c-2.5,0.8-4.6,1.5-6.6-0.4c0,0,0,0-0.1,0l-0.4,0.5l0,0l0,0l-0.4,0.5c0,0,0,0,0,0l0,0l-0.5,0.4c0.2,0.3,0.5,0.5,0.7,0.7
					C366.1,469.8,369.4,469.5,373.1,467z"/>
				
					<linearGradient id="SVGID_61_" gradientUnits="userSpaceOnUse" x1="2855.3708" y1="-1635.8325" x2="2861.2061" y2="-1635.8325" gradientTransform="matrix(-0.7469 -0.6648 0.5796 -0.6512 3467.9114 1317.1935)">
					<stop  offset="5.740000e-02" style="stop-color:#7C00FF"/>
					<stop  offset="0.6651" style="stop-color:#410086"/>
					<stop  offset="1" style="stop-color:#7C00FF"/>
				</linearGradient>
				<path class="st66" d="M382.9,480.9l-0.6-0.1c-0.1,0.9,0.2,1.7,0.8,2.3c0.2,0.2,0.4,0.3,0.6,0.4c1.3,0.7,3.1,0.6,4.1-0.2
					c0.2-0.1,0.3-0.4,0.2-0.6c-0.1-0.2-0.3-0.5-0.5-0.6c-0.5-0.1-1-0.1-1.4-0.1c-1.6,0-2-0.2-2-1.1l-0.6,0l0,0v0L382.9,480.9
					L382.9,480.9L382.9,480.9z"/>
			</g>
			<g>
				
					<linearGradient id="SVGID_62_" gradientUnits="userSpaceOnUse" x1="2839.5066" y1="-1656.8646" x2="2991.5317" y2="-1656.8646" gradientTransform="matrix(-0.7469 -0.6648 0.5796 -0.6512 3467.9114 1317.1935)">
					<stop  offset="5.740000e-02" style="stop-color:#7C00FF"/>
					<stop  offset="0.6651" style="stop-color:#410086"/>
					<stop  offset="1" style="stop-color:#7C00FF"/>
				</linearGradient>
				<path class="st67" d="M275.8,410.4c-4,2-6.2,5.9-6.1,10.7c0.2,6.1,4.1,12.2,9,14.1c2.3,0.9,5.6,0.5,8.9,0.1
					c3.5-0.4,7.1-0.8,8.6,0.6c0.7,0.7,0.1,1.8-1.3,3.8c-1.3,1.8-2.7,3.7-2.2,5.7c0.4,1.4,1.6,2.5,3.7,3.4c1.7,0.8,4.3,0.1,7.1-0.5
					c3.4-0.8,6.8-1.6,7.8,0.4c0.1,0.8-3.3,4.5-5.1,6.5c-1.6,1.8-3.1,3.4-3.5,4.2c-4.9,9.1,0.5,21,7.3,27.1c0.8,0.7,1.5,1.3,2.3,1.8
					c8.6,5.8,15.4,1.1,21.4-3.2c4-2.9,7.8-5.5,11.7-4.7c0.3,0.1,0.4,1.6,0.4,2.6c0.2,3.4,0.6,9,6.6,10c3.4,0.6,6.3-2.3,8.9-4.8
					c1.8-1.8,3.4-3.4,4.8-3.4c0.5,0,1,0.3,1.5,0.9c1.9,2.2,1.4,5.4,0.9,8.8c-0.7,4.8-1.5,10.2,4.9,13.2c5.5,2.6,10.4,2.3,14.5-1
					c8.6-7,11.3-25.9,9.2-35.3c-0.1-0.3-0.3-0.5-0.5-0.5l-0.2,0c-0.3,0-0.6,0.2-0.6,0.4c-1.2,4-1.7,7.9-2.2,11.6
					c-0.7,6.1-1.5,11.9-5.5,18c-1.5,2.3-4.4,3.8-7.6,4c-3.2,0.2-6.2-0.9-7.9-2.8c-2.1-2.5-1.6-5.8-1.1-9.2c0.6-4.3,1.3-8.8-3.1-11.8
					c-3.6-2.5-6.4,1-8.8,4c-2,2.6-4,5-6.3,4.5c-3.6-0.8-3.6-3.4-3.5-6.3c0-2.8,0.1-6-3.5-7.3c-5.3-1.9-9.7,1.5-14,4.7
					c-6.4,4.8-12.4,9.4-22.2-0.2c-3.4-3.3-6.5-15-3.5-19.7c0.5-0.8,1.5-2,2.6-3.2c3.3-3.6,7.8-8.6,4.3-12.1
					c-2.8-2.8-6.3-1.7-9.7-0.6c-3,1-5.9,1.9-8.2,0c-1-0.9-0.4-2,1-4.2c1.3-2.1,3-4.7,0.8-6.7c-2.7-2.5-6.7-2.8-10.5-3.1
					c-4.1-0.3-8.4-0.6-11.4-3.8c-0.8-0.9-1-2.9-1.1-4.4c0-0.5-0.1-0.9-0.1-1.3c-1-7.1,3.1-8.6,7.8-10.4c3.2-1.2,6.5-2.4,8.2-5.4
					c1.1-2,0.8-4.5,0.5-6.9c-0.3-2.5-0.6-4.8,0.7-6.3c1.1-1.3,3.2-2,6.6-2.1l0-0.6l0-2l0,0l0-0.6c-4.3-0.3-7.3,0.5-9,2.4
					c-2.4,2.6-1.9,6.8-1.5,10.5c0.3,2.7,0.6,5.2-0.3,6.4c-1.2,1.5-4.3,2.2-7,2.7C278.6,409.5,277,409.8,275.8,410.4z"/>
				
					<linearGradient id="SVGID_63_" gradientUnits="userSpaceOnUse" x1="2877.4089" y1="-1658.5612" x2="2887.7766" y2="-1658.5612" gradientTransform="matrix(-0.7469 -0.6648 0.5796 -0.6512 3467.9114 1317.1935)">
					<stop  offset="5.740000e-02" style="stop-color:#7C00FF"/>
					<stop  offset="0.6651" style="stop-color:#410086"/>
					<stop  offset="1" style="stop-color:#7C00FF"/>
				</linearGradient>
				<path class="st68" d="M356,485.8c0.3,0,0.5-0.3,0.5-0.5l0-0.4c0-0.3-0.2-0.6-0.5-0.6c-2.2-0.5-2.5-2.3-2.8-5.1
					c-0.1-1.3-0.3-2.7-0.8-3.9l-0.5,0.2l0,0l0,0l-0.5,0.2c0,0.1,0.1,0.2,0.1,0.2l0,0l-0.6,0.2c0.2,0.8,0.3,1.7,0.3,2.8
					c0.2,2.2,0.3,4.7,1.8,6c0,0,0.1,0.1,0.1,0.1C353.8,485.7,354.8,485.9,356,485.8z"/>
				
					<linearGradient id="SVGID_64_" gradientUnits="userSpaceOnUse" x1="2899.9207" y1="-1680.0842" x2="2916.7139" y2="-1680.0842" gradientTransform="matrix(-0.7469 -0.6648 0.5796 -0.6512 3467.9114 1317.1935)">
					<stop  offset="5.740000e-02" style="stop-color:#7C00FF"/>
					<stop  offset="0.6651" style="stop-color:#410086"/>
					<stop  offset="1" style="stop-color:#7C00FF"/>
				</linearGradient>
				<path class="st69" d="M333.1,477.9l-0.3-0.5l0,0l-0.2-0.3c0,0,0,0,0,0l-0.3-0.5v0l0,0l-0.3-0.5c-6.8,4.2-13.9,8.6-20.1,1.4
					c-0.2-0.2-0.6-0.3-0.8-0.1c-0.2,0.2-0.3,0.6-0.1,0.8c0.8,1.1,1.5,1.9,2.3,2.7C319.3,486.3,326.3,482.7,333.1,477.9z"/>
				
					<linearGradient id="SVGID_65_" gradientUnits="userSpaceOnUse" x1="2970.9578" y1="-1665.3918" x2="2983.0947" y2="-1665.3918" gradientTransform="matrix(-0.7469 -0.6648 0.5796 -0.6512 3467.9114 1317.1935)">
					<stop  offset="5.740000e-02" style="stop-color:#7C00FF"/>
					<stop  offset="0.6651" style="stop-color:#410086"/>
					<stop  offset="1" style="stop-color:#7C00FF"/>
				</linearGradient>
				<path class="st70" d="M282.7,427.6l0.1-0.3c0.1-0.3,0-0.6-0.2-0.7c-0.7-0.5-1.3-0.9-1.9-1.2c-1.1-0.7-2.4-1.3-2.8-2.7
					c-0.5-1.8,0.3-3.8,0.4-5.6c0-0.6-0.3-1.2-0.9-1.3c-0.4,0-0.8,0.3-1,0.6c-1.3,2.2-1.5,6.6-0.1,8.8c0.2,0.3,0.5,0.6,0.8,0.9
					c1.1,1,2.7,1.6,4.9,1.9C282.3,428,282.6,427.9,282.7,427.6z"/>
				
					<linearGradient id="SVGID_66_" gradientUnits="userSpaceOnUse" x1="2844.8567" y1="-1654.7607" x2="2857.2546" y2="-1654.7607" gradientTransform="matrix(-0.7469 -0.6648 0.5796 -0.6512 3467.9114 1317.1935)">
					<stop  offset="5.740000e-02" style="stop-color:#7C00FF"/>
					<stop  offset="0.6651" style="stop-color:#410086"/>
					<stop  offset="1" style="stop-color:#7C00FF"/>
				</linearGradient>
				<path class="st71" d="M373.1,498.1l-1.2,0.3c0.4,1.5,1,2.6,1.9,3.5c0.6,0.6,1.4,1,2.2,1.2c3.6,1.1,8.5-0.8,11.1-3.2
					c0.2-0.2,0.3-0.6,0.1-0.8l-0.1-0.1c-0.2-0.2-0.5-0.3-0.7-0.2c-2.1,1-7,3.3-10.1,2c-1.2-0.5-2-1.5-2.5-2.9l-0.6,0.2l0,0
					L373.1,498.1C373.1,498.1,373.1,498.1,373.1,498.1z"/>
			</g>
			<g>
				
					<linearGradient id="SVGID_67_" gradientUnits="userSpaceOnUse" x1="2961.7317" y1="-1552.4463" x2="2974.0349" y2="-1552.4463" gradientTransform="matrix(-0.7469 -0.6648 0.5796 -0.6512 3467.9114 1317.1935)">
					<stop  offset="5.740000e-02" style="stop-color:#7C00FF"/>
					<stop  offset="0.6651" style="stop-color:#410086"/>
					<stop  offset="1" style="stop-color:#7C00FF"/>
				</linearGradient>
				<path class="st72" d="M372.4,322.5l-0.3,0.5c-2.5,3.4-4.2,7.4-5.8,11.3c-1.2,2.8-2.4,5.7-3.9,8.3c-6.6,11.6-15.4,22.5-28.5,35.3
					c-1.1,1.1-2.2,2.3-3.3,3.5c-2.3,2.5-4.7,5.2-7.6,7l0.3,0.5l0.1,1.3l0,0.6c3.8,0.1,7.8-4.6,10.8-8.1c0.8-1,1.5-1.8,2.1-2.4
					c9.9-9.9,20.2-20.8,28.2-33.5c2.7-4.3,4.7-8.9,6.6-13.3c0.7-1.7,1.5-3.4,2.2-5.1c1-2.1,2.5-4.2,3.7-5.7c0,0,0.1-0.1,0.3-0.2
					c1.3-1.1,1.8-1.6,1.6-2.2c0,0,0-0.1-0.1-0.2l0.2-0.5c0.1-0.2,0-0.5-0.2-0.7c-0.6-0.4-1.2-0.6-1.9-0.5
					C375.1,318.7,373.5,321,372.4,322.5z"/>
				
					<linearGradient id="SVGID_68_" gradientUnits="userSpaceOnUse" x1="2870.0137" y1="-1539.5044" x2="2911.4343" y2="-1539.5044" gradientTransform="matrix(-0.7469 -0.6648 0.5796 -0.6512 3467.9114 1317.1935)">
					<stop  offset="5.740000e-02" style="stop-color:#7C00FF"/>
					<stop  offset="0.6651" style="stop-color:#410086"/>
					<stop  offset="1" style="stop-color:#7C00FF"/>
				</linearGradient>
				<path class="st73" d="M430.2,351.6c-0.2,0-0.5,0.2-0.5,0.5c-4.7,20.1-11.8,40.2-18.7,59.6c-3.7,10.4-7.5,21.1-10.9,31.7l0.6,0.2
					l1.6,0.6l0.5,0.2c5-11.1,8.8-23,12.5-34.5c3-9.4,6.1-19.1,9.9-28.4c0.4-1,0.9-2.1,1.4-3.3c3.4-7.9,8.5-19.7,5.6-26.4
					c-0.1-0.2-0.3-0.4-0.6-0.4L430.2,351.6z"/>
				
					<linearGradient id="SVGID_69_" gradientUnits="userSpaceOnUse" x1="2952.7083" y1="-1554.2621" x2="2966.0867" y2="-1554.2621" gradientTransform="matrix(-0.7469 -0.6648 0.5796 -0.6512 3467.9114 1317.1935)">
					<stop  offset="5.740000e-02" style="stop-color:#7C00FF"/>
					<stop  offset="0.6651" style="stop-color:#410086"/>
					<stop  offset="1" style="stop-color:#7C00FF"/>
				</linearGradient>
				<path class="st74" d="M341.9,384.5c-3.1,2.9-6.4,5.9-9,9.3c-0.2,0.2-0.2,0.5,0,0.8l0.2,0.3c0,0,0,0.1,0.1,0.1
					c0.2,0.2,0.4,0.2,0.6,0.1c3.4-1.6,6.8-5.3,9.6-8.3c0.4-0.4,0.8-0.8,1.1-1.2c15.2-16.3,31.7-35.5,35.6-56.7l-0.6-0.1l-0.6-0.2
					c0,0,0,0,0,0l-0.6-0.2h0l0,0l-0.6-0.2c-5.2,16.7-15.4,34.2-28.7,49.3C346.8,379.9,344.3,382.2,341.9,384.5z"/>
			</g>
			<g>
				
					<linearGradient id="SVGID_70_" gradientUnits="userSpaceOnUse" x1="2845.5557" y1="-1865.1683" x2="3034.2378" y2="-1865.1683" gradientTransform="matrix(-0.7469 -0.6648 0.5796 -0.6512 3467.9114 1317.1935)">
					<stop  offset="5.740000e-02" style="stop-color:#7C00FF"/>
					<stop  offset="0.6651" style="stop-color:#410086"/>
					<stop  offset="1" style="stop-color:#7C00FF"/>
				</linearGradient>
				<path class="st75" d="M50.9,593c-13.2,16.1-20.1,39-18.1,59.7c1.5,15.2,7.5,28,17.7,37.1c0.8,0.7,1.5,1.3,2.4,2
					c20.5,16.3,51.4,20.4,73.1,17.3c53.4-7.8,138-72.5,165.4-102.6c18.4-20.1,71.1-80.8,81.5-105l-1.1-0.5c0,0-0.8-0.3-0.8-0.3
					l-0.5-0.3C350.1,533.6,308.4,588,256,632.7c-39.5,33.6-89.7,62-115.1,70.1c-29.7,9.4-63.5,3.6-84.2-14.5
					c-11.6-10.1-24.4-28.5-19.8-58.6c3.3-21.6,19.5-35.6,35-49.1c11.3-9.8,24.5-17.5,37.1-25.2c15.8-9.7,32-18.9,48.2-27.9
					c10.4-5.8,20.2-12.4,30.7-18c19.1-10.3,35.9-21.7,52.2-36.1c12.6-11.1,26-22.6,36.4-36c0.8-1.1,1.6-2.1,2.3-3.3
					c0.1-0.2,0.1-0.6-0.1-0.8l-0.9-0.9c-0.2-0.2-0.6-0.2-0.8,0c-1.4,1.3-2.6,2.6-4,3.9c-10,10-20,20.1-30.3,29.8
					c-4,3.8-23.8,18.8-29.5,22.3c-40.9,25.2-82.4,49.1-123.5,73.8C78.2,569.2,61.6,580,50.9,593z"/>
				
					<linearGradient id="SVGID_71_" gradientUnits="userSpaceOnUse" x1="2959.283" y1="-1860.3693" x2="3019.2334" y2="-1860.3693" gradientTransform="matrix(-0.7469 -0.6648 0.5796 -0.6512 3467.9114 1317.1935)">
					<stop  offset="0" style="stop-color:#FFFFFF"/>
					<stop  offset="0.6555" style="stop-color:#53F2F2"/>
					<stop  offset="1" style="stop-color:#4DB4F8"/>
				</linearGradient>
				<path class="st76" d="M200.3,513.4c16-9.8,31.4-20.5,46.2-32c7-5.4,13.3-12,19.6-18.3c4.6-4.6,9.5-9.3,13.1-14.7
					c0.2-0.2,0.1-0.5,0-0.8l-0.4-0.4c-0.1-0.1-0.3-0.2-0.4-0.2c-0.2,0-0.3,0.1-0.4,0.2c-29.8,31.4-66.4,55.8-103.8,76.8
					c-27.8,15.6-55.2,32.3-80.6,51.7c-12.6,9.6-24.9,19.9-35.5,31.8c-8.1,9-16,19.5-19,31.6l0.6,0.1c0,0,1.2,0.3,1.2,0.3
					c6.7-25.2,32.4-44.9,51.9-59.8c24.8-19,51.6-35.3,78.7-50.5c8.2-4.6,16.7-8.8,24.8-13.5C197.6,515,198.9,514.2,200.3,513.4z"/>
			</g>
			<path class="st77" d="M414.8,358.7c-6.5,21.4-14.4,42.3-23.6,62.7c-3.9,8.6,8.9,14.9,12.8,6.3c9.7-21.5,18-43.7,24.9-66.3
				C431.6,352.4,417.6,349.7,414.8,358.7z"/>
			<path class="st77" d="M49.6,639c-0.8-0.7-1.8-1.3-2.9-1.5c-2.3-0.4-4.6,1.3-5.7,3.5c-5.7,11.5,3.6,28,10.4,36.6
				c7.4,9.5,17.6,17.2,29,21c20.9,6.8,50.8,1.7,71.4-4.8s41.1-25.2,58.6-37.9c18.1-13.1,73.8-54.3,88.8-70.9
				c6.2-6.9,43-47.8,48-55.6c2.9-4.5,5.5-9.2,7.9-14c1.7-3.4,2.8-9.4,5.2-12.3c-18.9,22.4-68.4,79.1-90.1,98.6
				c-26,23.3-96.1,64.7-129.3,73.6c-14.7,4-30.1,6.7-45.1,4.3c-15-2.4-29.6-10.6-36.6-24.1c-2.3-4.3-3.8-9.2-6.6-13.1
				C51.8,641.2,50.8,640,49.6,639z"/>
		</g>
	</g>
</g>
</svg>
