<?xml version="1.0" encoding="utf-8"?>
<!-- Generator: Adobe Illustrator 25.2.1, SVG Export Plug-In . SVG Version: 6.00 Build 0)  -->
<svg version="1.1" id="Layer_1" xmlns="http://www.w3.org/2000/svg" xmlns:xlink="http://www.w3.org/1999/xlink" x="0px" y="0px"
	 viewBox="0 0 502 519" style="enable-background:new 0 0 502 519;" xml:space="preserve">
<style type="text/css">
	.st0{fill:url(#SVGID_1_);}
	.st1{fill:url(#SVGID_2_);}
	.st2{fill:url(#SVGID_3_);}
	.st3{fill:url(#SVGID_4_);}
	.st4{fill:url(#SVGID_5_);}
	.st5{fill:url(#SVGID_6_);}
	.st6{fill:url(#SVGID_7_);}
	.st7{fill:url(#SVGID_8_);}
	.st8{fill:url(#SVGID_9_);}
	.st9{fill:url(#SVGID_10_);}
	.st10{fill:url(#SVGID_11_);}
	.st11{fill:url(#SVGID_12_);}
	.st12{fill:url(#SVGID_13_);}
	.st13{fill:url(#SVGID_14_);}
	.st14{fill:url(#SVGID_15_);}
	.st15{fill:url(#SVGID_16_);}
	.st16{fill:url(#SVGID_17_);}
	.st17{fill:url(#SVGID_18_);}
	.st18{fill:url(#SVGID_19_);}
	.st19{fill:url(#SVGID_20_);}
	.st20{fill:url(#SVGID_21_);}
	.st21{fill:url(#SVGID_22_);}
	.st22{fill:url(#SVGID_23_);}
	.st23{fill:url(#SVGID_24_);}
	.st24{fill:url(#SVGID_25_);}
	.st25{fill:url(#SVGID_26_);}
	.st26{fill:url(#SVGID_27_);}
	.st27{fill:url(#SVGID_28_);}
	.st28{fill:url(#SVGID_29_);}
	.st29{fill:url(#SVGID_30_);}
	.st30{fill:url(#SVGID_31_);}
	.st31{fill:url(#SVGID_32_);}
	.st32{fill:url(#SVGID_33_);}
	.st33{fill:url(#SVGID_34_);}
	.st34{fill:url(#SVGID_35_);}
	.st35{fill:url(#SVGID_36_);}
	.st36{fill:url(#SVGID_37_);}
	.st37{fill:url(#SVGID_38_);}
	.st38{fill:url(#SVGID_39_);}
	.st39{fill:url(#SVGID_40_);}
	.st40{fill:url(#SVGID_41_);}
	.st41{fill:url(#SVGID_42_);}
	.st42{fill:url(#SVGID_43_);}
	.st43{fill:url(#SVGID_44_);}
	.st44{fill:url(#SVGID_45_);}
	.st45{fill:url(#SVGID_46_);}
	.st46{fill:url(#SVGID_47_);}
	.st47{fill:url(#SVGID_48_);}
	.st48{fill:url(#SVGID_49_);}
	.st49{fill:url(#SVGID_50_);}
	.st50{fill:url(#SVGID_51_);}
	.st51{fill:url(#SVGID_52_);}
	.st52{fill:url(#SVGID_53_);}
	.st53{fill:url(#SVGID_54_);}
	.st54{fill:url(#SVGID_55_);}
	.st55{fill:url(#SVGID_56_);}
	.st56{fill:url(#SVGID_57_);}
	.st57{opacity:0.36;}
	.st58{fill:#8DFFFC;}
	.st59{fill:#FFF9CC;}
</style>
<g>
	<g>
		
			<radialGradient id="SVGID_1_" cx="363.7744" cy="394.0591" r="61.2612" gradientTransform="matrix(0.9909 -0.1341 -0.1341 -0.9909 -83.0926 739.1921)" gradientUnits="userSpaceOnUse">
			<stop  offset="4.065800e-04" style="stop-color:#00FFFF"/>
			<stop  offset="1" style="stop-color:#4E7BFB"/>
		</radialGradient>
		<path class="st0" d="M246,258.1c-2.5-1.8-5-3.7-7.5-5.5c-1-0.7-2-1.4-3-2.1c-0.9-0.7-1.8-1.3-2.7-2c-5.6-4.3-10.6-9.1-16.8-12.5
			c-0.3-0.2-0.7-0.3-1-0.1c-0.1,0.1-0.2,0.3-0.3,0.4c-2.3,5.2-4.9,10.5-9.3,14.1c-1.4,1.2-3,2.2-4.1,3.7c-1.4,1.8-1.8,4.1-1.9,6.3
			c0,0.5,0,0.9,0.1,1.4c-0.1,0.5-0.2,0.9-0.2,1.4c0,0.7,0.3,1.3,0.6,1.9c0.2,0.4,0.4,0.8,0.6,1.3c1.5,3.4,0,6.5-2.5,8.8
			c-1.5,1.4-2.8,3.1-4.4,4.4c-1.6,1.4-3.3,2.6-5,3.8c-4.9,3.3-10.1,6.1-14.8,9.6c-1.9,1.4-3.8,3-5.1,5.1c-1.3,2-1.9,4.6-1.2,6.9
			c0.8,2.5,3,4.3,5.2,5.9c3.3,2.5,6.6,4.9,9.8,7.4c1,0.8,2.1,1.6,3.4,1.9c3.4,1,6.7-1.3,10.2-1.9c1-0.2,2-0.2,3,0.1
			c1.1,0.3,2.1,1.1,2.9,2c1.7,1.8,2.9,4.1,3.4,6.5c0.4,1.7-0.1,4.5,2.2,4.8c4.4,0.6,7.9-4.9,12.2-5.3c1.9-0.2,4,0.5,5.3,1.9
			c3.5,3.6,1.3,9.9,0.3,14.1c-1.2,5.1-2.8,10.2-4.4,15.2c-0.4,1.3-0.8,2.6-0.7,3.9c0.1,1.3,0.7,2.7,1.9,3.3c0.7,0.3,1.4,0.4,2.2,0.4
			c7.4,0.2,14.7-3.8,18.5-10.1c0.8,1.8,2.1,3.9,4,3.7c0.5,0,1-0.3,1.5-0.5c1.9-1.1,3.1-3.2,3.8-5.3c0.6-2.1,0.8-4.4,0.9-6.6
			c0.2-2.9,0.3-5.8,0.1-8.6c-0.3-4-1.1-8.3,0.9-11.8c1.8,0.6,2.1,3.4,4,4c1,0.3,2.1-0.1,2.8-0.9c0.7-0.8,1-1.8,1.1-2.8
			c0.2-1.5,0.2-3-0.2-4.5c-0.3-1.5-1-3-1.1-4.5c-0.2-3.1,1.6-6,3.4-8.6c0.6-0.9,1.7-1.7,2.5-0.9c0.4,0.4,1,2.4,2.1,1.8
			c0.5-0.2,1.5-2.4,2.3-13.7c0-0.7,0.1-1.2,0.1-1.5c0.5-5.2,3.2-11.2,7.4-16.5c0-0.1,0.1-0.1,0.1-0.2c0.1-0.1,0.3-0.4,0.6-0.5
			c0.1,0,0.2,0,0.3,0c-1.6-0.3-3.5-1.8-5-2.6c-1.7-0.9-3.5-1.9-5.2-2.8c-3.5-1.9-7-3.9-10.5-6c-3.6-2.1-7.1-4.3-10.6-6.5
			C247.3,259,246.7,258.6,246,258.1z"/>
		
			<linearGradient id="SVGID_2_" gradientUnits="userSpaceOnUse" x1="603.6268" y1="853.9229" x2="603.6268" y2="859.0018" gradientTransform="matrix(0.95 0.3125 0.3125 -0.95 -649.7452 1087.3601)">
			<stop  offset="0" style="stop-color:#FEFBC1"/>
			<stop  offset="0.3941" style="stop-color:#FF53FB"/>
			<stop  offset="0.9729" style="stop-color:#A93CFF"/>
		</linearGradient>
		<path class="st1" d="M192.6,460.1c-0.6,1.6-1.3,3.1-2.4,4.6C191.2,463.2,192,461.6,192.6,460.1z"/>
		
			<linearGradient id="SVGID_3_" gradientUnits="userSpaceOnUse" x1="466.33" y1="902.5128" x2="466.33" y2="906.2191" gradientTransform="matrix(0.95 0.3125 0.3125 -0.95 -649.7452 1087.3601)">
			<stop  offset="0" style="stop-color:#FEFBC1"/>
			<stop  offset="0.3941" style="stop-color:#FF53FB"/>
			<stop  offset="0.9729" style="stop-color:#A93CFF"/>
		</linearGradient>
		<path class="st2" d="M75.5,375.8c0-1.2,0.3-2.5,0.7-3.7C75.8,373.3,75.6,374.5,75.5,375.8z"/>
		
			<linearGradient id="SVGID_4_" gradientUnits="userSpaceOnUse" x1="478.042" y1="930.7233" x2="478.042" y2="930.871" gradientTransform="matrix(0.95 0.3125 0.3125 -0.95 -649.7452 1087.3601)">
			<stop  offset="0" style="stop-color:#FEFBC1"/>
			<stop  offset="0.3941" style="stop-color:#FF53FB"/>
			<stop  offset="0.9729" style="stop-color:#A93CFF"/>
		</linearGradient>
		<path class="st3" d="M95.6,352.7c-0.3-0.1-0.5-0.3-0.7-0.4C95.2,352.4,95.4,352.6,95.6,352.7L95.6,352.7z"/>
		
			<linearGradient id="SVGID_5_" gradientUnits="userSpaceOnUse" x1="615.752" y1="923.2877" x2="615.752" y2="927.4221" gradientTransform="matrix(0.95 0.3125 0.3125 -0.95 -649.7452 1087.3601)">
			<stop  offset="0" style="stop-color:#FEFBC1"/>
			<stop  offset="0.3941" style="stop-color:#FF53FB"/>
			<stop  offset="0.9729" style="stop-color:#A93CFF"/>
		</linearGradient>
		<path class="st4" d="M223.6,402.6c0.4-1.3,0.9-2.6,1.6-3.8C224.5,400,224,401.3,223.6,402.6z"/>
		
			<linearGradient id="SVGID_6_" gradientUnits="userSpaceOnUse" x1="630.741" y1="1005.0431" x2="630.741" y2="1006.5908" gradientTransform="matrix(0.95 0.3125 0.3125 -0.95 -649.7452 1087.3601)">
			<stop  offset="0" style="stop-color:#FEFBC1"/>
			<stop  offset="0.3941" style="stop-color:#FF53FB"/>
			<stop  offset="0.9729" style="stop-color:#A93CFF"/>
		</linearGradient>
		<path class="st5" d="M264.2,328.2c-0.2,0.5-0.4,1-0.8,1.4C263.8,329.2,264,328.8,264.2,328.2z"/>
		
			<linearGradient id="SVGID_7_" gradientUnits="userSpaceOnUse" x1="503.8567" y1="971.224" x2="503.8567" y2="973.1336" gradientTransform="matrix(0.95 0.3125 0.3125 -0.95 -649.7452 1087.3601)">
			<stop  offset="0" style="stop-color:#FEFBC1"/>
			<stop  offset="0.3941" style="stop-color:#FF53FB"/>
			<stop  offset="0.9729" style="stop-color:#A93CFF"/>
		</linearGradient>
		<path class="st6" d="M132.6,322.2c0-0.6,0-1.3,0.2-1.9C132.7,320.9,132.6,321.6,132.6,322.2z"/>
		
			<linearGradient id="SVGID_8_" gradientUnits="userSpaceOnUse" x1="622.8873" y1="1003.4731" x2="622.8873" y2="1004.4568" gradientTransform="matrix(0.95 0.3125 0.3125 -0.95 -649.7452 1087.3601)">
			<stop  offset="0" style="stop-color:#FEFBC1"/>
			<stop  offset="0.3941" style="stop-color:#FF53FB"/>
			<stop  offset="0.9729" style="stop-color:#A93CFF"/>
		</linearGradient>
		<path class="st7" d="M255.8,328.3c-0.1-0.2-0.2-0.4-0.3-0.6C255.6,327.8,255.7,328,255.8,328.3c0.1,0.2,0.1,0.4,0.2,0.6
			C255.9,328.6,255.9,328.5,255.8,328.3z"/>
		
			<linearGradient id="SVGID_9_" gradientUnits="userSpaceOnUse" x1="593.6708" y1="848.9548" x2="593.6708" y2="850.0489" gradientTransform="matrix(0.95 0.3125 0.3125 -0.95 -649.7452 1087.3601)">
			<stop  offset="0" style="stop-color:#FEFBC1"/>
			<stop  offset="0.3941" style="stop-color:#FF53FB"/>
			<stop  offset="0.9729" style="stop-color:#A93CFF"/>
		</linearGradient>
		<path class="st8" d="M180.5,466.7c-0.6-0.5-1.2-1-1.6-1.7C179.4,465.6,180,466.2,180.5,466.7z"/>
		
			<linearGradient id="SVGID_10_" gradientUnits="userSpaceOnUse" x1="626.4906" y1="1330.8545" x2="626.4906" y2="1330.9926" gradientTransform="matrix(0.95 0.3125 0.3125 -0.95 -649.7452 1087.3601)">
			<stop  offset="0" style="stop-color:#FEFBC1"/>
			<stop  offset="0.3941" style="stop-color:#FF53FB"/>
			<stop  offset="0.9729" style="stop-color:#A93CFF"/>
		</linearGradient>
		<path class="st9" d="M361.9,18.9c-0.4-0.1-0.7-0.1-1.1-0.2l0,0C361.2,18.7,361.5,18.8,361.9,18.9z"/>
		
			<linearGradient id="SVGID_11_" gradientUnits="userSpaceOnUse" x1="530.8285" y1="1012.37" x2="530.8285" y2="1012.93" gradientTransform="matrix(0.95 0.3125 0.3125 -0.95 -649.7452 1087.3601)">
			<stop  offset="0" style="stop-color:#FEFBC1"/>
			<stop  offset="0.3941" style="stop-color:#FF53FB"/>
			<stop  offset="0.9729" style="stop-color:#A93CFF"/>
		</linearGradient>
		<path class="st10" d="M171.5,291.7c-0.3-0.3-0.6-0.5-0.9-0.9C170.8,291.1,171.1,291.4,171.5,291.7z"/>
		
			<linearGradient id="SVGID_12_" gradientUnits="userSpaceOnUse" x1="616.4366" y1="1323.3304" x2="616.4366" y2="1331.0015" gradientTransform="matrix(0.95 0.3125 0.3125 -0.95 -649.7452 1087.3601)">
			<stop  offset="0" style="stop-color:#FEFBC1"/>
			<stop  offset="0.3941" style="stop-color:#FF53FB"/>
			<stop  offset="0.9729" style="stop-color:#A93CFF"/>
		</linearGradient>
		<path class="st11" d="M362,18.9c-7.4-0.6-15.1-0.4-22.8,0.6C347,18.5,354.7,18.3,362,18.9L362,18.9z"/>
		
			<linearGradient id="SVGID_13_" gradientUnits="userSpaceOnUse" x1="531.3053" y1="1010.8861" x2="531.3053" y2="1012.2286" gradientTransform="matrix(0.95 0.3125 0.3125 -0.95 -649.7452 1087.3601)">
			<stop  offset="0" style="stop-color:#FEFBC1"/>
			<stop  offset="0.3941" style="stop-color:#FF53FB"/>
			<stop  offset="0.9729" style="stop-color:#A93CFF"/>
		</linearGradient>
		<path class="st12" d="M170.5,292.9c0.4-0.3,0.9-0.7,1.3-1l0,0C171.3,292.2,170.9,292.6,170.5,292.9z"/>
		
			<linearGradient id="SVGID_14_" gradientUnits="userSpaceOnUse" x1="481.4606" y1="1116.5688" x2="481.4606" y2="1122.1703" gradientTransform="matrix(0.95 0.3125 0.3125 -0.95 -649.7452 1087.3601)">
			<stop  offset="0" style="stop-color:#FEFBC1"/>
			<stop  offset="0.3941" style="stop-color:#FF53FB"/>
			<stop  offset="0.9729" style="stop-color:#A93CFF"/>
		</linearGradient>
		<path class="st13" d="M154.9,170.6c1.6,2.7,3.3,5.2,5,7.6C158.3,175.8,156.6,173.3,154.9,170.6z"/>
		
			<linearGradient id="SVGID_15_" gradientUnits="userSpaceOnUse" x1="628.8994" y1="978.2807" x2="628.8994" y2="981.6504" gradientTransform="matrix(0.95 0.3125 0.3125 -0.95 -649.7452 1087.3601)">
			<stop  offset="0" style="stop-color:#FEFBC1"/>
			<stop  offset="0.3941" style="stop-color:#FF53FB"/>
			<stop  offset="0.9729" style="stop-color:#A93CFF"/>
		</linearGradient>
		<path class="st14" d="M254.6,351.3c-0.3,1-0.7,2.1-1.3,3.1C253.9,353.4,254.3,352.4,254.6,351.3z"/>
		
			<linearGradient id="SVGID_16_" gradientUnits="userSpaceOnUse" x1="524.4673" y1="855.9014" x2="524.4673" y2="914.6209" gradientTransform="matrix(0.95 0.3125 0.3125 -0.95 -649.7452 1087.3601)">
			<stop  offset="0" style="stop-color:#FEFBC1"/>
			<stop  offset="0.3941" style="stop-color:#FF53FB"/>
			<stop  offset="0.9729" style="stop-color:#A93CFF"/>
		</linearGradient>
		<path class="st15" d="M164.3,395.1c-1.1-3.2-5.2-2.2-10-0.7c-1.8,0.6-3.4,1.1-4.5,1c-4.2-0.3-5.6-3.5-6.7-6.3
			c-1.1-2.7-2.1-5.1-5.2-5.4c-1.9-0.2-3.7,1.4-5.8,3.3c-3.4,3.1-7.6,6.8-14.4,4.6c-0.1,0-0.1,0-0.2-0.1c-1.4-0.5-5.6-3.2-6.5-4
			c-6.1-5.2-7.2-9.3-6.4-13c-0.5,0.6-0.9,1.2-1.4,1.8c-5.1,6.5-10,12.7-4.9,20.8c2.1,3.4,6.3,1.9,10.7,0.3c3.6-1.3,7.4-2.6,10.1-1
			c2.6,1.6,4.7,5.3,3.7,8.5c-0.1,0.2-0.2,0.5-0.6,1.2c-2,3.7-2.2,4.8-2,5.1c1.4,0.1,4.2-1.2,6.9-2.4c5-2.2,10.1-4.5,11.5-1.4
			c2.6,5.8-2.1,12-6.7,17.9c-4.4,5.7-8.6,11.1-5.5,15.4c2.4,3.3,7.5,1.2,11.3-1.1c2.5-1.6,4.9-4.7,7.4-8.1
			c3.6-4.8,7.3-9.7,12.1-10.8c-0.1-0.7-0.2-1.3-0.2-2c0.2-3.5,2.1-6.9,4-10.2C163.5,403.9,166,399.7,164.3,395.1z"/>
		
			<linearGradient id="SVGID_17_" gradientUnits="userSpaceOnUse" x1="489.5643" y1="924.3136" x2="489.5643" y2="933.0948" gradientTransform="matrix(0.95 0.3125 0.3125 -0.95 -649.7452 1087.3601)">
			<stop  offset="0" style="stop-color:#FEFBC1"/>
			<stop  offset="0.3941" style="stop-color:#FF53FB"/>
			<stop  offset="0.9729" style="stop-color:#A93CFF"/>
		</linearGradient>
		<path class="st16" d="M105.5,353.7c-1.4,1-3.7,3.1-5.2,5.2c-0.7,1-0.9,1.6-0.9,1.8l0.1,0c1.1-0.4,7-2.2,9.4,0.2
			c0.4,0.4,0.6,0.8,0.8,1.3c0.4-1.5,0.6-3,0.4-4.7C109.7,354.8,108.1,353.9,105.5,353.7z"/>
		
			<radialGradient id="SVGID_18_" cx="532.2999" cy="861.7933" r="60.958" gradientTransform="matrix(0.95 0.3125 0.3125 -0.95 -649.7452 1087.3601)" gradientUnits="userSpaceOnUse">
			<stop  offset="4.065800e-04" style="stop-color:#00FFFF"/>
			<stop  offset="1" style="stop-color:#4E7BFB"/>
		</radialGradient>
		<path class="st17" d="M172.8,449.4C172.8,449.4,172.8,449.4,172.8,449.4c-1.6-0.7-2.7-1.7-3.3-3.2c-1.5-3.6,0.5-8.9,2.1-12.5
			c0.2-0.4,0.4-0.9,0.7-1.3c0.4-0.7,0.9-1.5,1-2.1c0.1-0.6,0-0.9-0.1-1.1c0,0,0-0.1,0-0.1c-2.5,0.7-5.3,0.5-7.8-0.3
			c-0.5-0.2-1-0.4-1.5-0.6c-2.4-1.1-4.2-2.6-5.4-4.3c-3.9,0.8-7.3,5.4-10.8,10.2c-5.2,7-11,14.9-19.8,12.1c-0.1,0-0.2-0.1-0.2-0.1
			c-2.9-1-4.7-2.4-5.4-4.5c-1.6-4.5,2.4-10.7,6.6-17.2c4-6.1,8.1-12.3,6.7-16.4c0,0,0,0,0,0c-0.6-0.2-4,1.3-6.3,2.3
			c-4.7,2.1-7.9,3.4-9.5,2.7c-2.5-1.3-1.8-3.9-1.1-6.4c0.8-3,1.6-5.8-1.7-7.5c-2.2-1.1-4.8,0.1-7.7,1.3c-3.5,1.6-7.5,3.4-11.5,1.1
			c-3.8-2.2-4.2-6.2-4.2-9.8c-0.1-6.4,1.2-10.9,4.3-14.9c0.7-0.9,1.6-1.9,2.7-3c2.9-3,6.4-6.6,6.3-9.7c-0.1-1.1-0.4-1.8-0.9-2.2
			c-0.2-0.1-0.5-0.2-0.8-0.3l0.3,0.5c0.2,0.2,0.1,0.5,0,0.7c-3.1,4.9-7.6,9.2-11.9,13.5c-2.3,2.3-4.7,4.7-6.9,7.1l0.1,0.1
			c-0.5,0.7-1.1,1.2-1.6,1.6c-10.7,12.9-17,31.2-17.5,50.3c-0.2,6.9,0.3,17.2,3.4,26.6c2.1,6.3,5.4,12.7,9.1,17.6
			c3.5,4.6,17,12.3,23,14.6c15.4,6.1,31.5,2.9,47.7-9.5c12.1-9.3,23.9-23.8,32.7-40.1C179,447.6,174.4,449.9,172.8,449.4z"/>
		
			<linearGradient id="SVGID_19_" gradientUnits="userSpaceOnUse" x1="536.5733" y1="927.7369" x2="536.5733" y2="959.9773" gradientTransform="matrix(0.95 0.3125 0.3125 -0.95 -649.7452 1087.3601)">
			<stop  offset="0" style="stop-color:#FEFBC1"/>
			<stop  offset="0.3941" style="stop-color:#FF53FB"/>
			<stop  offset="0.9729" style="stop-color:#A93CFF"/>
		</linearGradient>
		<path class="st18" d="M130,335.1c-1.6,1.7-2.2,3.1-1.9,4.2c0.5,2.1,4.3,3.4,7.6,4.5c3,1,5.6,1.9,6.3,3.5c1,2.5-0.4,5.2-1.8,7.9
			c-2,3.8-3.1,6.2-0.7,8.3c2.9,2.5,6.7,1.8,10.7,1c3.6-0.7,7.3-1.4,10.2,0.6c2.4,1.7,2.1,5.9,1.9,9.4c-0.1,1.2-0.2,2.9,0,3.4
			c1.3,0,5.3-2.9,8.8-5.5c6-4.4,12.2-9,15.7-8.3c-0.1-2.5-0.8-4.5-2.5-5.7c-3.8-2.6-7.6-0.4-11.9,2.1c-4.4,2.6-9.3,5.5-14.8,2.7
			c-5.1-2.5-5-6.8-4.9-11c0.1-2.9,0.1-6-1.6-8.5c-1.5-2.2-4.2-2.7-7.1-3.3c-1.9-0.4-3.9-0.7-5.5-1.7l0,0c-0.8-0.2-1.4-0.3-2.1-0.5
			c-2-0.7-3.4-1.6-4.1-2.8c-0.3-0.5-0.5-1-0.5-1.6C131.1,334.1,130.5,334.6,130,335.1z"/>
		
			<linearGradient id="SVGID_20_" gradientUnits="userSpaceOnUse" x1="478.2261" y1="897.9122" x2="478.2261" y2="931.8522" gradientTransform="matrix(0.95 0.3125 0.3125 -0.95 -649.7452 1087.3601)">
			<stop  offset="0" style="stop-color:#FEFBC1"/>
			<stop  offset="0.3941" style="stop-color:#FF53FB"/>
			<stop  offset="0.9729" style="stop-color:#A93CFF"/>
		</linearGradient>
		<path class="st19" d="M82.8,382.8c5.8-8.4,12.9-17.1,18.5-20.4c-1.4,0.4-2.6,0.8-3.4,0.3c-0.3-0.2-0.6-0.5-0.7-1.1
			c-0.3-1.5,2.2-5.6,4.7-8.1c-0.1,0-0.3,0-0.4,0c-0.2,0.3-0.6,0.6-1.3,1c-0.4,0.2-0.8,0.5-1,0.6c-1.5,1.2-3.1,2-4.9,2.8l-0.5,0.2
			c-4.1,1.9-8.4,6-11.3,9c-3.3,3.5-3.6,12.1-1.3,14.8C81.3,382.3,81.8,382.9,82.8,382.8z"/>
		
			<linearGradient id="SVGID_21_" gradientUnits="userSpaceOnUse" x1="587.35" y1="867.9354" x2="587.35" y2="911.1364" gradientTransform="matrix(0.95 0.3125 0.3125 -0.95 -649.7452 1087.3601)">
			<stop  offset="0" style="stop-color:#FEFBC1"/>
			<stop  offset="0.3941" style="stop-color:#FF53FB"/>
			<stop  offset="0.9729" style="stop-color:#A93CFF"/>
		</linearGradient>
		<path class="st20" d="M173.3,443.8c0.1,0.4,0.4,0.7,0.9,0.8c3.5,0.9,14-5.6,16.7-8.6c1.7-1.9,3-4.2,3.7-6.3c0-0.1,0.1-0.4,0.2-0.8
			c0.1-0.4,0.2-0.8,0.3-1.2c-0.5-2.6-0.6-5.6-0.8-8.6c-0.4-6.4-0.7-13.1-4.4-14.9c-0.2-0.1-0.3-0.1-0.5,0c-2,0.7-4.8,7.2-7,12.3
			c-2,4.6-3.9,8.9-5.5,10.5c-0.2,0.2-0.4,0.3-0.6,0.5c1.7,3,0.2,6.1-1.2,9.2C173.8,439.2,172.8,441.5,173.3,443.8z"/>
		
			<radialGradient id="SVGID_22_" cx="562.7327" cy="955.4185" r="42.8641" gradientTransform="matrix(0.95 0.3125 0.3125 -0.95 -649.7452 1087.3601)" gradientUnits="userSpaceOnUse">
			<stop  offset="4.065800e-04" style="stop-color:#00FFFF"/>
			<stop  offset="1" style="stop-color:#4E7BFB"/>
		</radialGradient>
		<path class="st21" d="M232,378.4c0.7-2.8,1.4-5.6,2.3-8.2c-2.8,1.5-6,2.1-9.1,2.5c-4.4,0.5-7.9,0.4-10.5-0.5
			c-1.4-0.5-2.6-1.2-3.6-2.1c-3.5-3.3-3.1-8.7-2.8-14c0.3-4.5,0.5-8.7-1.5-11.4c-0.3-0.4-0.5-0.5-0.8-0.6c-0.9-0.1-2.2,1-3.4,2
			c-1.6,1.3-3.2,2.7-4.8,2.4c-0.9-0.2-1.6-0.9-2.2-2c-1.2-2.4,0-4.9,1.2-7.4c0.9-2,1.8-3.8,1.3-5.3c-0.3-0.8-1.1-1.5-2.3-2.1
			c-2.8-1.3-6.6,1.9-10.6,5.3c-5.2,4.4-11.1,9.3-17.4,7.4c-3.3-1-5.3-2.5-6.1-4.5c-1.3-3.3,1.1-7.2,3.5-11c1.8-2.9,3.6-5.9,3.1-7.8
			c-0.1-0.5-0.3-0.6-0.5-0.7c-1.1-0.6-3.8,0.5-6.2,1.4c-3,1.1-5.8,2.2-7.7,1.5l0,0.2c-0.6,0-1.2-0.1-1.6-0.2
			c-0.7-0.2-1.2-0.7-1.4-1.3c0-0.1,0-0.2-0.1-0.3c-0.8,0.4-2,0.9-3.8,1.5c-4.8,1.5-9.9,4.2-11.5,6.8c0,0.2,0,0.4-0.2,0.5
			c-0.1,0.1-0.1,0.1-0.2,0.2c-0.1,0.2-0.1,0.5-0.2,0.7c-0.1,1.2,0.8,2.5,2.7,3.6c0.1-0.1,0.3-0.1,0.4-0.1l0.3,0
			c7.1,0.8,14.4,1.7,17.9,9.9c0.9,2,0.7,4.2,0.5,6.3c-0.3,2.9-0.5,5.4,2.1,7.1c4.5,3,8.6,0.6,13-1.9c4.9-2.8,9.9-5.7,15.6-1
			c5.6,4.7,3.6,10.7,1.8,16.1c-1.1,3.4-2.2,6.5-1.3,9c0.5,0.1,2.5-1.8,3.3-2.7c0.6-0.8,1.3-1.8,1.9-2.9c2.1-3.5,4.8-7.9,10.4-6.3
			c4.6,1.4,5.3,6.9,6.2,12.7c1,7.1,2,14.4,9.7,15l0.2,0c1.8,0.1,4.1,0.3,5.3-0.8C228.4,392.3,230.2,385.3,232,378.4z"/>
		
			<linearGradient id="SVGID_23_" gradientUnits="userSpaceOnUse" x1="596.4739" y1="851.7013" x2="596.4739" y2="882.4791" gradientTransform="matrix(0.95 0.3125 0.3125 -0.95 -649.7452 1087.3601)">
			<stop  offset="0" style="stop-color:#FEFBC1"/>
			<stop  offset="0.3941" style="stop-color:#FF53FB"/>
			<stop  offset="0.9729" style="stop-color:#A93CFF"/>
		</linearGradient>
		<path class="st22" d="M193.9,439.1l0.3-0.6c0.3-0.8,0.6-1.5,1-2.2c-0.9,0.9-2.7,2.4-5,4.1l0.1,0c-2.3,7-5.9,14.1-10.6,20.9
			c0.9,1.8,2.4,3.3,3.9,3.6c1.9,0.4,3.3-1.1,4.1-2.4c2.4-3.9,3-8.2,3.7-12.7C191.9,446.1,192.5,442.4,193.9,439.1z"/>
		
			<radialGradient id="SVGID_24_" cx="518.5635" cy="984.5143" r="12.9389" gradientTransform="matrix(0.95 0.3125 0.3125 -0.95 -649.7452 1087.3601)" gradientUnits="userSpaceOnUse">
			<stop  offset="4.065800e-04" style="stop-color:#00FFFF"/>
			<stop  offset="1" style="stop-color:#4E7BFB"/>
		</radialGradient>
		<path class="st23" d="M153.6,309.6c-4,1.1-8.2,2.3-11.9,4.8c-1.4,0.9-5.9,4.2-5.9,7.3c0,1.1,0.6,2.1,1.8,3
			c2.4-1.9,5.1-3.5,7.6-4.1c3.6-0.9,5.2-1,6-0.8c1.5-2.8,5.8-6.6,10.6-10.8c1.7-1.5,3.3-2.9,3.6-3.3c0.1-0.2,0.2-0.3,0.2-0.5
			c0.1-0.2,0.2-0.5,0.4-0.7C162.2,307.2,157.9,308.4,153.6,309.6z"/>
		
			<linearGradient id="SVGID_25_" gradientUnits="userSpaceOnUse" x1="590.8756" y1="1003.399" x2="590.8756" y2="1059.1764" gradientTransform="matrix(0.95 0.3125 0.3125 -0.95 -649.7452 1087.3601)">
			<stop  offset="0" style="stop-color:#FEFBC1"/>
			<stop  offset="0.3941" style="stop-color:#FF53FB"/>
			<stop  offset="0.9729" style="stop-color:#A93CFF"/>
		</linearGradient>
		<path class="st24" d="M259.7,322.9c-0.4-3.5-0.8-7.1,0-10.5c0.3-1.4,2.6-5.8,4.9-9.8c-0.6,0.9-1.1,1.8-1.4,2.2l-0.3,0.5
			c-1,2.1-2.7,5.7-5.2,6.2c-1.1,0.2-2.2-0.2-3.3-1.1c-3.3-2.9-0.7-7.9,1.9-12.6c2.1-4,4.2-8,3.4-11c-0.5-1.9-1.3-3-2.1-3.2
			c-1.6-0.4-4,1.7-6.4,3.8c-3.3,2.9-7,6.3-10.2,4.1c-3.1-2.1-1.3-6.4,0.3-10.1c1-2.3,2-4.7,1.4-5.7c-0.2-0.4-0.8-0.6-1.6-0.6
			c-3-0.2-5.4,2.6-7.6,5.4c-2.7,3.3-5.6,6.8-9.8,5.1c-7-2.8-5.5-9.2-4.1-14.8c1.1-4.5,2.1-8.7-0.3-11.5c-1.8-2.1-4.8-2.6-8-1.3
			c-2.2,0.8-4.4,2.6-5.5,4.8l0.4,0.3c0.8-0.7,1.5-0.4,1.8-0.2c0.5,0.4,0.9,1.2,1.3,2.3c0.1,0.1,0.1,0.2,0.2,0.3
			c0.4,0.7,0.6,1.4,0.7,2.2c0.3,1.5,0.7,3,0.8,4.5c0.1,2-0.1,3.8-0.6,5.4c-0.1,0.9-0.1,1.6-0.3,1.8c-0.2,0.4-0.4,0.8-0.8,1.3
			l-0.1-0.5c-1.3,2.6-3.2,4.9-5.2,7.4c-4.2,5.3-11.2,14.1-10.3,15.8c1.2,2.3,2.7,3.6,4.5,3.8c5.3,0.7,12.6-7.4,17.5-12.7
			c2.2-2.4,4-5.3,7.6-5.1c2.8,0.1,5.4,1.9,6.5,4.5c1.4,3.4-0.6,7.2-2,10c-0.7,1.4-1.5,2.9-1.3,3.4c0.5,1.2,1.1,1.9,1.9,2.1
			c2.3,0.5,6.1-2.9,9.1-5.6c3.1-2.8,4.8-4.3,6.1-3.7c2.1,0.9,3.5,2.3,4.2,4.3c1.1,3.3,0.1,7-1.1,10.1c-0.6,1.6-1.2,3.2-2.2,4.7
			c-0.8,1.1-1.8,2.3-2,3.8c-0.1,1.2,0.9,2.3,2,2.6c1.2,0.3,2.4-0.1,3.4-0.8c2.1-1.4,4.9-3.3,7.4-1.2c0.6,0.5,1,1.2,1.5,2
			c1.2,2,1.9,2.9,3.4,2.2c-0.1-0.1-0.1-0.2-0.1-0.4C260,325.6,259.9,324.3,259.7,322.9z"/>
		
			<radialGradient id="SVGID_26_" cx="547.5585" cy="921.6317" r="56.8212" gradientTransform="matrix(0.95 0.3125 0.3125 -0.95 -649.7452 1087.3601)" gradientUnits="userSpaceOnUse">
			<stop  offset="4.065800e-04" style="stop-color:#00FFFF"/>
			<stop  offset="1" style="stop-color:#4E7BFB"/>
		</radialGradient>
		<path class="st25" d="M221.6,399.6c-0.2,0-0.4,0.1-0.7,0.1c-2.2,0.1-4.1-0.1-5.8-0.7c-7.9-2.6-9.7-11.9-11-18.5
			c-0.7-3.8-1.4-7.5-3-7.7c-3.5-0.5-5.7,2.9-7.6,5.9c-1.7,2.6-3.2,5-5.5,4.6c-3.9-0.7-3.1-5.7-2.2-11.1c0.1-0.7,0.2-1.4,0.3-2.1
			c-0.4-1.6-1.1-3.3-1.9-3.8c-0.2-0.1-0.4-0.2-0.8,0.1c-2.2,1.3-4.3,3.8-6.4,6.3c-4,4.8-8.6,10.2-15.1,8.7c-0.1,0-0.2-0.1-0.4-0.1
			c-2.8-0.9-2.1-4.3-1.5-7.2c0.6-3,1.2-6.2-1-7.4c-1.3-0.7-4-0.1-6.9,0.5c-4.2,0.9-8.9,1.9-12.5-0.1c-5.4-3-3.2-7.7-1.4-11.8
			c1.1-2.4,2.2-4.9,1.8-6.9c-0.4-1.9-2.4-2.3-5.8-2.7c-2.8-0.3-5.6-0.7-7.1-2.7c-0.9-1.2-1.2-2.8-0.9-4.9c0.2-1.3,0.5-2.9,1.5-4.2
			c-1.7,0.2-3.4,0.1-5,0c-0.9,0-1.8-0.1-2.7-0.1c-9.8-0.1-18.3,0.6-23.7,9.9c-0.8,1.4-1.6,3.9-0.9,5.1c1.3,2.1,4.4,2,7.6,1.9
			c4.4-0.1,9.3-0.3,10.1,5.5c0.6,4-1.1,7.6-2.7,11.1c-2.4,5.1-4.5,9.5,0.3,14.7c2.8,3.1,5.2,5,7.3,5.8c5.1,2,8.1-0.5,11.5-3.3
			c2.4-2,4.9-4.1,8.3-4.6c5.3-0.7,6.7,3.3,7.8,6.5c0.8,2.4,1.6,4.6,3.6,5.1c1.8,0.4,3.7-0.3,5.7-1.1c3-1.2,6.4-2.5,9.9,0.5
			c4.8,4.1,1.7,10.3-1.2,16.4c-2.3,4.7-4.7,9.6-3,13c1,2.1,3.4,3.7,7.5,4.7c8,2,11-5.7,13.9-13.1c2.4-6.2,4.7-12,9.8-10.7
			c5.3,1.4,6.1,9.4,6.8,17.8c0.3,3.3,0.6,6.6,1.3,9.9c0.6,2.8,1.4,6,4,7.7c1.7,1.1,3.9,1.2,6.7,0.3c9-2.9,9-11.9,8.9-21.4
			C219.6,409.9,219.6,404.1,221.6,399.6z"/>
		
			<linearGradient id="SVGID_27_" gradientUnits="userSpaceOnUse" x1="630.4432" y1="1059.458" x2="630.4432" y2="1059.5365" gradientTransform="matrix(0.95 0.3125 0.3125 -0.95 -649.7452 1087.3601)">
			<stop  offset="0" style="stop-color:#FEFBC1"/>
			<stop  offset="0.3941" style="stop-color:#FF53FB"/>
			<stop  offset="0.9729" style="stop-color:#A93CFF"/>
		</linearGradient>
		<path class="st26" d="M280.2,277.8c0,0,0.1,0.1,0.1,0.1C280.3,277.9,280.3,277.8,280.2,277.8L280.2,277.8z"/>
		
			<linearGradient id="SVGID_28_" gradientUnits="userSpaceOnUse" x1="523.8115" y1="978.2077" x2="523.8115" y2="978.2271" gradientTransform="matrix(0.95 0.3125 0.3125 -0.95 -649.7452 1087.3601)">
			<stop  offset="0" style="stop-color:#FEFBC1"/>
			<stop  offset="0.3941" style="stop-color:#FF53FB"/>
			<stop  offset="0.9729" style="stop-color:#A93CFF"/>
		</linearGradient>
		<polygon class="st27" points="153.6,321.7 153.6,321.7 153.6,321.7 153.6,321.7 153.6,321.7 		"/>
		
			<linearGradient id="SVGID_29_" gradientUnits="userSpaceOnUse" x1="568.8371" y1="954.5095" x2="568.8371" y2="996.8752" gradientTransform="matrix(0.95 0.3125 0.3125 -0.95 -649.7452 1087.3601)">
			<stop  offset="0" style="stop-color:#FEFBC1"/>
			<stop  offset="0.3941" style="stop-color:#FF53FB"/>
			<stop  offset="0.9729" style="stop-color:#A93CFF"/>
		</linearGradient>
		<path class="st28" d="M223.7,366.2c-1.3-0.4-2.2-1.1-2.8-1.9c-0.7-0.8-1.1-1.8-1.4-2.9c-1.3-3.6,0.4-9,2.2-14.6
			c2.5-7.6,5-15.5-0.8-18.2c-2.6-1.2-4.6,0.2-6.8,1.6c-2,1.3-4,2.7-6.5,1.8c-2.8-1-2.8-3.9-2.8-6.5c0-2.7,0-5.2-2.6-6.3
			c-3.1-1.2-6,0-9.2,1.4c-3.3,1.4-6.7,2.9-10.4,1.4c-4.1-1.6-5.2-4.8-6.2-7.8c-0.7-1.9-1.3-3.7-2.5-5.1c-0.7-0.8-1.8-1-2.9-1.3
			c-0.8-0.2-1.6-0.4-2.4-0.8c-1.4,2.8-6.1,7-7.1,7.5c-4.5,2.4-8.3,5-8.7,6c0.1,0.1,0.2,0.1,0.4,0.2c0.6,0.3,0.9,0.5,1,0.8
			c0,0,0.1,0,0.1,0c2.1,0.9,4.6-0.6,7-2c2.8-1.7,5.6-3.4,8.1-1.4c3.6,3,1,7.6-1.4,11.7c-1.7,3-3.5,6-2.7,8.1c0.3,1,1.2,1.8,2.7,2.4
			c5.3,2.1,10.1-2,14.7-6c4.8-4.1,9.7-8.4,15.1-5.1c5.3,3.3,3,7.7,1.3,11c-1.3,2.6-2.1,4.2-0.9,5.3c0.9,0.9,2,0.2,3.9-1.5
			c1.5-1.3,3.2-2.8,5.1-2.6c1.1,0.1,2.1,0.7,3,1.9c3.3,4.2,2.6,8.5,2,12.4c-0.8,5.4-1.5,9.6,7.4,12.7c0,0,0,0,0,0
			c1.4,0.5,7.4,0.8,8.6,0.3c2.2-0.8,5-1.8,6.6-3.8c0.3-0.3,0.6-0.7,0.8-1.1c-2.2,1.2-4.7,2.1-6.9,2.5
			C226.6,366.8,225,366.6,223.7,366.2z"/>
		
			<radialGradient id="SVGID_30_" cx="668.6565" cy="1289.6571" r="158.7836" gradientTransform="matrix(0.95 0.3125 0.3125 -0.95 -649.7452 1087.3601)" gradientUnits="userSpaceOnUse">
			<stop  offset="0" style="stop-color:#FD25F0"/>
			<stop  offset="0.2853" style="stop-color:#FF66FF"/>
			<stop  offset="1" style="stop-color:#00D9EA"/>
		</radialGradient>
		<path class="st29" d="M461.1,225.3c-3.4-6.8-7-13.7-9.3-21.1c-5.9-19.2-5.7-40.1-5.5-60.3c0.3-31,0.6-63.1-21.6-89.1
			c-7.8-9.2-29.6-21.9-43.6-26.9c-4.1-1.5-8.1-2.6-11.7-3.3c-37.8-7-65.6,10.1-92.5,26.7c-17.5,10.8-35.6,22-56.4,26.5
			c-7.9,1.7-16.5,2.1-24.7,2.5c-19.6,0.8-38.2,1.6-48.3,20c-10.6,19.4-4.9,47.3,24.6,85.3c14.4,18.6,31.6,35.9,51.4,51.9
			c0,0,0.1,0,0.1,0c0.9,0.5,1.8,1,2.6,1.5c4.5,2.7,8.9,6,13,9.2c3.6,2.7,7.4,5.6,11.2,8c47.6,30.1,94.8,46,140.3,47.3
			c41.5,1.1,67.5-8.4,77.2-28.2C477.1,256.6,469.3,241.4,461.1,225.3z"/>
		
			<linearGradient id="SVGID_31_" gradientUnits="userSpaceOnUse" x1="672.1586" y1="1055.7554" x2="672.1586" y2="1055.9913" gradientTransform="matrix(0.95 0.3125 0.3125 -0.95 -649.7452 1087.3601)">
			<stop  offset="0" style="stop-color:#FEFBC1"/>
			<stop  offset="0.3941" style="stop-color:#FF53FB"/>
			<stop  offset="0.9729" style="stop-color:#A93CFF"/>
		</linearGradient>
		<path class="st30" d="M324.2,296.2c-3.6-1.2-7.3-2.5-10.9-3.8C317,293.8,320.6,295,324.2,296.2z"/>
		
			<linearGradient id="SVGID_32_" gradientUnits="userSpaceOnUse" x1="541.9317" y1="1015.4966" x2="541.9317" y2="1043.4249" gradientTransform="matrix(0.95 0.3125 0.3125 -0.95 -649.7452 1087.3601)">
			<stop  offset="0" style="stop-color:#FEFBC1"/>
			<stop  offset="0.3941" style="stop-color:#FF53FB"/>
			<stop  offset="0.9729" style="stop-color:#A93CFF"/>
		</linearGradient>
		<path class="st31" d="M183.5,277.6c-3,1-5.9,2-6.5,2.5c-3,2.3-5,6.1-4.2,8c0.4,1.1,1.7,1.4,3.1,1.4c2.1-1.1,4.4-2.1,6.6-3.1
			c4.4-2,8.5-3.8,10.8-6c2.5-2.4,4.7-5.7,6.6-8.7c0.6-0.9,1.2-1.8,1.8-2.7c-0.3-0.1-0.6-0.2-0.8-0.4c0,0.2-0.1,0.3-0.1,0.5
			C199.7,272,192.3,274.7,183.5,277.6z"/>
	</g>
	<g>
		<g>
			
				<radialGradient id="SVGID_33_" cx="628.0788" cy="1041.0887" r="13.6973" gradientTransform="matrix(0.95 0.3125 0.3125 -0.95 -649.7452 1087.3601)" gradientUnits="userSpaceOnUse">
				<stop  offset="0" style="stop-color:#7D04D3"/>
				<stop  offset="0.3558" style="stop-color:#FF27AD"/>
				<stop  offset="0.9693" style="stop-color:#7C00FF"/>
			</radialGradient>
			<path class="st32" d="M274.3,298.8c-0.1-2.9-0.1-5.7,0.6-8c0.2-0.5,1-2.1,1.9-3.8c3.1-5.8,4.1-8,3.6-9c-0.1-0.3-0.3-0.4-0.6-0.5
				c-0.2-0.1-0.4-0.3-0.7-0.2c-0.4,0.1-0.5,0.3-0.6,0.5c0,0-0.1,0.1-0.1,0.2c-4.1,5.2-6.8,11.2-7.4,16.5c0,0.3-0.1,0.8-0.1,1.5
				c-0.8,11.3-1.8,13.4-2.3,13.7c-0.9,0.1-1.5-0.6-2.3-1.8c-0.7-1.1-1.8-2.6-3.6-1.5l0.7,1.1c0,0,0.1,0,0.1,0l0.5,0.6l0,0.1
				l-0.5,0.4c0.1,0.1,0.1,0.2,0.3,0.4c0.6,1.1,1.9,3.2,3.7,3.8c0.2,0.1,0.5,0.1,0.8,0.2c1.3,0.1,2.5-0.6,3.6-2.1
				C274.5,307.5,274.4,303.1,274.3,298.8z"/>
			
				<radialGradient id="SVGID_34_" cx="550.6651" cy="1062.9143" r="14.3256" gradientTransform="matrix(0.95 0.3125 0.3125 -0.95 -649.7452 1087.3601)" gradientUnits="userSpaceOnUse">
				<stop  offset="0" style="stop-color:#7D04D3"/>
				<stop  offset="0.3558" style="stop-color:#FF27AD"/>
				<stop  offset="0.9693" style="stop-color:#7C00FF"/>
			</radialGradient>
			<path class="st33" d="M203.7,268.8L203.7,268.8l0.1-0.7c-0.4,0-0.8-0.1-1.2-0.2l0,0l0,0l0.4-0.5c-1.8-1.4-2.8-2.9-2.9-4.6
				c-0.4-3.9,3.2-8.3,7.1-13c4.5-5.5,9.2-11.2,8.3-17.1c0-0.3-0.3-0.5-0.6-0.5L214,232c-0.3-0.1-0.7,0.2-0.7,0.5
				c-1.3,4.8-2.7,9.8-5.9,13.7c-1,1.2-2.3,2.4-3.7,3.6c-2.7,2.4-5.5,4.8-6.3,8.2c-0.8,3.2-0.4,6.4,1.2,8.6c0.9,1.2,2,2.1,3.4,2.5
				c0.6,0.2,1.1,0.3,1.8,0.4L203.7,268.8L203.7,268.8z"/>
		</g>
		
			<radialGradient id="SVGID_35_" cx="533.2198" cy="859.525" r="64.202" gradientTransform="matrix(0.95 0.3125 0.3125 -0.95 -649.7452 1087.3601)" gradientUnits="userSpaceOnUse">
			<stop  offset="0" style="stop-color:#7D04D3"/>
			<stop  offset="0.3558" style="stop-color:#FF27AD"/>
			<stop  offset="0.9693" style="stop-color:#7C00FF"/>
		</radialGradient>
		<path class="st34" d="M189.7,440.1L189.7,440.1L189.7,440.1l-0.6-0.2c-0.1,0.3-0.2,0.6-0.3,0.8l-3.5,2.4l0,0l-0.6-0.3
			c-8.9,17-21.2,32.4-33.7,42c-16.2,12.5-32.3,15.7-47.7,9.5c-6-2.4-19.5-10-23-14.6c-3.7-4.9-7-11.3-9.1-17.6
			c-3.1-9.4-3.6-19.6-3.4-26.6c0.4-19.2,6.9-37.6,17.6-50.4c2.5-3,5.4-5.9,8.2-8.7c4.3-4.2,8.7-8.6,11.9-13.5c0.1-0.2,0.1-0.5,0-0.7
			l-0.4-0.6c-0.2-0.2-0.4-0.3-0.7-0.3c-9.9,1.9-28.2,30.8-31.5,38c-6.6,14.8-9.4,27.9-8.8,41.3c0.7,18,5,31.8,13.2,42.2
			c4.2,5.3,18.3,13.5,24.3,16c0.9,0.4,1.8,0.7,2.7,1c10.6,3.5,22.9,2.3,35.6-3.6c22.2-10.2,43.4-33.7,50.5-55.8L189.7,440.1z"/>
		
			<radialGradient id="SVGID_36_" cx="538.0337" cy="944.5024" r="28.7999" gradientTransform="matrix(0.95 0.3125 0.3125 -0.95 -649.7452 1087.3601)" gradientUnits="userSpaceOnUse">
			<stop  offset="0" style="stop-color:#7D04D3"/>
			<stop  offset="0.3558" style="stop-color:#FF27AD"/>
			<stop  offset="0.9693" style="stop-color:#7C00FF"/>
		</radialGradient>
		<path class="st35" d="M187.8,364.4c-3.2-2.1-10.1,3-16.8,7.9c-3.5,2.6-7.5,5.5-8.8,5.5c-0.2-0.5-0.1-2.1,0-3.4
			c0.3-3.4,0.6-7.7-1.9-9.4c-2.8-2-6.6-1.3-10.2-0.6c-4,0.8-7.9,1.5-10.7-1c-2.4-2.1-1.3-4.5,0.7-8.3c1.4-2.7,2.9-5.4,1.8-7.9
			c-0.7-1.6-3.3-2.4-6.3-3.5c-3.3-1.1-7.1-2.4-7.6-4.5c-0.3-1.1,0.4-2.5,1.9-4.2c0.7-0.7,1.5-1.3,2.4-2c0.9-0.7,1.9-1.3,2.7-2.2
			c0.2-0.2,0.2-0.6,0-0.9l-0.2-0.3c-0.2-0.3-0.6-0.3-0.9-0.2c-0.6,0.4-1.2,0.7-1.8,1c-1.1,0.6-2.3,1.3-3.3,2
			c-1.9,1.5-2.4,3.7-2.7,5.4c-0.3,2.1,0,3.7,0.9,4.9c1.5,2,4.4,2.4,7.1,2.7c3.4,0.4,5.4,0.8,5.8,2.7c0.4,2-0.8,4.5-1.8,6.9
			c-1.9,4.1-4,8.8,1.4,11.8c3.6,2,8.3,1,12.5,0.1c2.9-0.6,5.6-1.2,6.9-0.5c2.2,1.3,1.6,4.4,1,7.4c-0.6,3-1.3,6.3,1.5,7.2
			c0.1,0,0.2,0.1,0.4,0.1c6.5,1.5,11-3.9,15.1-8.7c2.2-2.6,4.2-5,6.4-6.3c0.4-0.2,0.7-0.2,0.8-0.1c1.5,0.9,2.4,5.8,2.4,6.6l0.7,0.1
			c0,0,0,0.1,0,0.1l1.3,0.3C189.8,368.4,189.5,365.5,187.8,364.4z"/>
		<g>
			
				<radialGradient id="SVGID_37_" cx="315.8371" cy="179.9514" r="153.886" gradientTransform="matrix(0.9924 -0.1229 0.1229 0.9924 -30.2792 32.8173)" gradientUnits="userSpaceOnUse">
				<stop  offset="0" style="stop-color:#7D04D3"/>
				<stop  offset="0.3558" style="stop-color:#FF27AD"/>
				<stop  offset="0.9693" style="stop-color:#7C00FF"/>
			</radialGradient>
			<path class="st36" d="M476.3,264.5c1.9-16.6-5.4-30.1-12.4-43.1c-4.4-8.1-8.9-16.4-11.3-25.5c-4.3-16.4-3.2-33.7-2-50.3
				c0.5-7.1,1-14.4,1-21.6c0.2-26.1-8.8-54.2-23-71.7c-9.7-12-26-21.2-41.1-26.9c-5.8-2.6-11.9-4.5-18.2-5.5c-1-0.2-2-0.3-3-0.4
				c-1.9-0.3-3.8-0.6-5.4-0.7c0.4,0.1,0.7,0.1,1.1,0.2c0,0,0.1,0,0.1,0c-23.5-1.9-50.7,4.5-71.1,17.1c-6.2,3.8-12.3,8.1-18.1,12.3
				c-13.8,9.8-28.1,19.9-45.3,24.5c-9.6,2.6-19.9,2.7-30,2.9c-16.2,0.3-33,0.6-46.1,11.1c-25.4,20.3-9.6,66.4,8.7,91.4
				c13.8,18.9,29.9,36.3,48.6,52.6c3.8,4.2,10.7,9.6,17.7,14.5c2.6,2,5.2,3.9,7.8,5.9c1,0.4,1.9,0.9,2.9,1.3c3,1.9,5.7,3.6,7.6,4.9
				l1.4,0.9c26.7,17,52.7,29.7,78.2,38.1c26.1,8.6,51.8,12.7,77.4,12.6C428.6,308.7,472.6,296.5,476.3,264.5z M467.9,275.3
				c-9.7,19.8-35.6,29.3-77.2,28.2c-45.5-1.2-92.7-17.1-140.3-47.3c-3.8-2.4-7.6-5.3-11.2-8c-4.2-3.2-8.5-6.5-13-9.2
				c-0.8-0.5-1.7-1-2.6-1.5c0,0-0.1,0-0.1,0c-19.8-16-37-33.4-51.4-51.9c-29.5-38-35.2-65.9-24.6-85.3c10.1-18.3,28.6-19.1,48.3-20
				c8.2-0.3,16.8-0.7,24.7-2.5c20.8-4.6,38.9-15.7,56.4-26.5c26.9-16.6,54.7-33.7,92.5-26.7c3.6,0.7,7.6,1.8,11.7,3.3
				c14,5.1,35.7,17.8,43.6,26.9c22.2,25.9,21.9,58,21.6,89.1c-0.2,20.2-0.4,41.1,5.5,60.3c2.3,7.3,5.8,14.3,9.3,21.1
				C469.3,241.4,477.1,256.6,467.9,275.3z"/>
			
				<radialGradient id="SVGID_38_" cx="689.5712" cy="1093.6439" r="63.3853" gradientTransform="matrix(0.95 0.3125 0.3125 -0.95 -649.7452 1087.3601)" gradientUnits="userSpaceOnUse">
				<stop  offset="0" style="stop-color:#7D04D3"/>
				<stop  offset="0.3558" style="stop-color:#FF27AD"/>
				<stop  offset="0.9693" style="stop-color:#7C00FF"/>
			</radialGradient>
			<path class="st37" d="M323.7,272.4c29.3,9.6,60.2,13.7,89.3,11.4c4.1-0.3,8.1-1.7,12-3c3.5-1.2,6.7-2.3,10.1-2.7
				c0.2,0,0.3-0.1,0.5-0.3c0.1-0.1,0.1-0.3,0.1-0.5l0-0.1c-0.1-0.3-0.3-0.5-0.7-0.5c-6.6,0-13.2,0.9-19.6,1.7
				c-7.4,1-15.1,1.9-22.9,1.7c-45.9-1.7-92-15.9-129.8-40l-0.3,0.5c0,0-0.1,0-0.1-0.1l-0.4,0.5l0,0l0,0l-0.4,0.5
				C280.3,254.6,301.5,265.1,323.7,272.4z"/>
			
				<radialGradient id="SVGID_39_" cx="790.7421" cy="1123.7456" r="10.9413" gradientTransform="matrix(0.95 0.3125 0.3125 -0.95 -649.7452 1087.3601)" gradientUnits="userSpaceOnUse">
				<stop  offset="0" style="stop-color:#7D04D3"/>
				<stop  offset="0.3558" style="stop-color:#FF27AD"/>
				<stop  offset="0.9693" style="stop-color:#7C00FF"/>
			</radialGradient>
			<path class="st38" d="M442.5,274.4l0.2,0.6l0,0l0.4,2.4l0,0l0,0.7c5.7,0.2,11.9-3.3,15.6-8.8c3.1-4.6,3.9-9.7,2-14
				c-0.2-0.4-0.8-0.5-1.1-0.2c-0.2,0.2-0.2,0.4-0.2,0.7C463,266.6,447.4,272.8,442.5,274.4z"/>
			
				<radialGradient id="SVGID_40_" cx="701.9299" cy="1260.0671" r="57.0959" gradientTransform="matrix(0.95 0.3125 0.3125 -0.95 -649.7452 1087.3601)" gradientUnits="userSpaceOnUse">
				<stop  offset="0" style="stop-color:#7D04D3"/>
				<stop  offset="0.3558" style="stop-color:#FF27AD"/>
				<stop  offset="0.9693" style="stop-color:#7C00FF"/>
			</radialGradient>
			<path class="st39" d="M442.9,168.9c1.3-52,3-123.2-63.5-132.1c-0.3,0-0.7,0.3-0.8,0.6c-0.1,0.3,0.2,0.7,0.5,0.8
				c61.2,17.5,61.3,72.3,61.3,125.2c0,6.6,0,13.4,0.2,19.9l0.7,0l0,0l0,0l0.7,0c0,0,0,0,0,0l0.1,0l0,0l0.7,0
				C442.7,178.7,442.8,173.9,442.9,168.9z"/>
		</g>
		<g>
			
				<radialGradient id="SVGID_41_" cx="589.9175" cy="871.4879" r="19.0617" gradientTransform="matrix(0.95 0.3125 0.3125 -0.95 -649.7452 1087.3601)" gradientUnits="userSpaceOnUse">
				<stop  offset="0" style="stop-color:#7D04D3"/>
				<stop  offset="0.3558" style="stop-color:#FF27AD"/>
				<stop  offset="0.9693" style="stop-color:#7C00FF"/>
			</radialGradient>
			<path class="st40" d="M196.6,442.5c0.2-0.4,0.7-1.3,1.3-2.3c1-1.7,3.2-4.2,2.7-6.4c-0.2-0.9-0.7-1.7-1.1-2.5
				c-1.1-2.3-1.4-5-2.7-7.2c-0.8,1.5-1.7,3.1-2.1,4.8c-0.1,0.4-0.1,0.7-0.2,0.8c-0.7,2.1-2,4.4-3.7,6.3c-2.7,3-13.2,9.5-16.7,8.6
				c-0.5-0.1-0.7-0.4-0.9-0.8c-0.5-2.2,0.6-4.6,1.7-7.1c1.4-3,3-6.6,0.9-9.6c-0.8,0.4-2.5,0.6-2.8,1.6c-0.2,0.5,0.3,1.1,0.2,1.7
				c-0.1,0.6-0.5,1.4-1,2.1c-0.3,0.5-0.5,0.9-0.7,1.3c-1.6,3.6-3.6,8.8-2.1,12.5c0.6,1.5,1.7,2.5,3.2,3.2c0,0,0,0,0.1,0
				c3.3,1.1,19.1-9.8,22.3-13.2c-0.3,0.7-0.6,1.4-1,2.2l-0.3,0.6c-1.4,3.4-2,7.1-2.5,10.6c-0.7,4.6-1.3,8.9-3.7,12.7
				c-0.8,1.3-2.2,2.8-4.1,2.4c-1.5-0.3-2.6-1.5-3.4-2.7c-0.5-0.7-0.9-1.6-1.1-2.4c-0.1-0.8-0.1-1.4-0.9-2c-1.2-1-1.9,0.4-1.7,1.4
				c0.3,1.3,0.6,2.5,1.1,3.7c1,2.1,2.6,4.1,4.8,4.9c0,0,0.1,0,0.1,0c1.6,0.5,4.6,0.7,7.5-3.2c2.9-3.9,3.5-8.3,4.1-12.7
				C194.7,448.7,195.2,445.4,196.6,442.5z"/>
			
				<radialGradient id="SVGID_42_" cx="521.8205" cy="893.6386" r="40.5707" gradientTransform="matrix(0.95 0.3125 0.3125 -0.95 -649.7452 1087.3601)" gradientUnits="userSpaceOnUse">
				<stop  offset="0" style="stop-color:#7D04D3"/>
				<stop  offset="0.3558" style="stop-color:#FF27AD"/>
				<stop  offset="0.9693" style="stop-color:#7C00FF"/>
			</radialGradient>
			<path class="st41" d="M159.8,421.8c0.1,0,0.2,0,0.2,0l0.2-1.3c-6.4-0.9-10.9,5.1-15.3,11c-2.5,3.3-4.9,6.5-7.4,8.1
				c-3.8,2.4-8.9,4.5-11.3,1.1c-3-4.2,1.1-9.6,5.5-15.4c4.6-6,9.3-12.1,6.7-17.9c-1.4-3-6.5-0.8-11.5,1.4c-2.7,1.2-5.5,2.4-6.9,2.4
				c-0.2-0.3,0-1.4,2-5.1c0.4-0.7,0.5-1,0.6-1.2c1-3.2-1.2-6.9-3.7-8.5c-2.7-1.6-6.5-0.3-10.1,1c-4.4,1.6-8.5,3-10.7-0.3
				c-5.1-8.1-0.3-14.2,4.9-20.8c2.6-3.3,5.3-6.7,6.4-10.3c0.7-2.3,0.5-4.1-0.6-5.2c-2.5-2.4-8.3-0.6-9.4-0.2l-0.1,0
				c0-0.2,0.2-0.8,0.9-1.8c2-2.8,5.5-5.7,6.3-5.8c0.2,0,0.4-0.1,0.5-0.3c0.1-0.2,0.1-0.4,0-0.6l-0.2-0.3c-0.1-0.1-0.1-0.2-0.2-0.3
				c-0.6-0.4-1.6-0.6-3.2,0.5c-2.9,1.9-6.7,7.7-6.4,9.6c0.1,0.6,0.5,1,0.7,1.1c0.9,0.5,2.2,0.1,3.7-0.4c1.6-0.5,3.3-1.1,4.2-0.4
				c0.5,0.3,0.8,1.1,0.9,2.2c0.2,3-3.4,6.7-6.3,9.7c-1.1,1.2-2.1,2.1-2.7,3c-3.1,4.1-4.4,8.6-4.3,14.9c0,3.6,0.4,7.7,4.2,9.8
				c3.9,2.3,7.9,0.5,11.5-1.1c2.8-1.3,5.5-2.5,7.7-1.3c3.3,1.7,2.5,4.6,1.7,7.5c-0.7,2.5-1.4,5.1,1.1,6.4c1.6,0.8,4.8-0.5,9.5-2.7
				c2.3-1,5.7-2.5,6.3-2.3c0,0,0,0,0,0c1.4,4.1-2.7,10.4-6.7,16.4c-4.2,6.5-8.3,12.6-6.6,17.2c0.7,2,2.5,3.5,5.4,4.5
				c0.1,0,0.2,0.1,0.2,0.1c8.8,2.8,14.7-5.1,19.8-12.1c3.8-5.1,7.3-9.9,11.5-10.3l-0.1-0.7l0,0L159.8,421.8z"/>
			
				<radialGradient id="SVGID_43_" cx="539.7988" cy="862.8034" r="5.4632" gradientTransform="matrix(0.95 0.3125 0.3125 -0.95 -649.7452 1087.3601)" gradientUnits="userSpaceOnUse">
				<stop  offset="0" style="stop-color:#7D04D3"/>
				<stop  offset="0.3558" style="stop-color:#FF27AD"/>
				<stop  offset="0.9693" style="stop-color:#7C00FF"/>
			</radialGradient>
			<path class="st42" d="M130.1,437.4c-1.1-0.8-1.2-2.9-0.2-5.8c0.1-0.3,0-0.6-0.3-0.8l-0.1-0.1c-0.3-0.2-0.7-0.1-0.9,0.2
				c-3.5,4.9-2.3,7.2-1.3,8.1c0.4,0.4,0.9,0.6,1.4,0.8c2.8,0.9,7.3-0.4,10.5-3.2l-0.4-0.5l0,0l0,0l-0.4-0.5c0,0,0,0,0,0l-0.1-0.1
				l0,0l-0.4-0.5C134.6,437.4,131.5,438.4,130.1,437.4z"/>
			
				<radialGradient id="SVGID_44_" cx="475.171" cy="914.1482" r="15.0341" gradientTransform="matrix(0.95 0.3125 0.3125 -0.95 -649.7452 1087.3601)" gradientUnits="userSpaceOnUse">
				<stop  offset="0" style="stop-color:#7D04D3"/>
				<stop  offset="0.3558" style="stop-color:#FF27AD"/>
				<stop  offset="0.9693" style="stop-color:#7C00FF"/>
			</radialGradient>
			<path class="st43" d="M93.7,358.2l0.5-0.2c1.8-0.8,3.4-1.6,4.9-2.8c0.2-0.2,0.6-0.4,1-0.6c1-0.6,1.5-0.9,1.4-1.5
				c0-0.1-0.1-0.3-0.4-0.5l-0.4-0.8c-0.1-0.2-0.4-0.4-0.6-0.4c-3.5,0.1-9.4,3.5-14.8,8.4c-2.9,2.6-9.6,9.4-9.7,16
				c-0.1,3.5,2.8,8.9,6,10c0,0,0,0,0,0c1.3,0.4,3.3,0.4,5.2-2.2l-0.5-0.4l-0.9-0.7l-0.4-0.5c-2.5,1.8-3.6,0.5-3.9,0.1
				c-2.3-2.7-2.1-11.3,1.3-14.8C85.2,364.1,89.6,360,93.7,358.2z"/>
		</g>
		
			<radialGradient id="SVGID_45_" cx="539.9912" cy="1028.4833" r="14.4844" gradientTransform="matrix(0.95 0.3125 0.3125 -0.95 -649.7452 1087.3601)" gradientUnits="userSpaceOnUse">
			<stop  offset="0" style="stop-color:#7D04D3"/>
			<stop  offset="0.3558" style="stop-color:#FF27AD"/>
			<stop  offset="0.9693" style="stop-color:#7C00FF"/>
		</radialGradient>
		<path class="st44" d="M183.5,277.6c8.8-3,16.2-5.7,17.2-8.5c0.2-0.6,0.2-1.2-0.2-1.8c0-0.1-0.1-0.1-0.2-0.2l-0.6-0.4
			c-0.7-0.4-1.6,0.3-3.9,2.4c-0.8,0.7-1.7,1.6-2.1,1.8c-2.7,1.5-5.6,2.2-8.5,2.9c-4.9,1.2-9.9,2.5-13.6,7.6c-2.4,3.3-2.8,7-1.1,9.4
			c0.6,0.8,1.5,1.4,2.5,1.8c1.6,0.5,3.7,0.4,6-0.4l-0.4-1.3c0,0-0.1,0-0.1,0L178,290l0,0l-0.1-0.7c-2,0.3-4.4,0.3-5.1-1.2
			c-0.8-1.9,1.2-5.7,4.2-8C177.6,279.6,180.5,278.6,183.5,277.6z"/>
		
			<radialGradient id="SVGID_46_" cx="561.4991" cy="963.4344" r="49.4936" gradientTransform="matrix(0.95 0.3125 0.3125 -0.95 -649.7452 1087.3601)" gradientUnits="userSpaceOnUse">
			<stop  offset="0" style="stop-color:#7D04D3"/>
			<stop  offset="0.3558" style="stop-color:#FF27AD"/>
			<stop  offset="0.9693" style="stop-color:#7C00FF"/>
		</radialGradient>
		<path class="st45" d="M240.5,363.4l-1-0.8c0,0,0,0.1-0.1,0.1l-0.5-0.3l-0.5-0.4c-3.1,3.8-4.8,10.2-6.4,16.5
			c-1.8,6.8-3.6,13.9-7.2,17.4c-1.2,1.2-3.5,1-5.3,0.8l-0.2,0c-7.7-0.6-8.7-7.9-9.7-15c-0.8-5.8-1.6-11.3-6.2-12.7
			c-5.6-1.6-8.2,2.8-10.4,6.3c-0.6,1-1.2,2-1.9,2.9c-0.7,0.9-2.7,2.8-3.3,2.7c-0.8-2.5,0.2-5.7,1.3-9c1.8-5.4,3.8-11.4-1.8-16.1
			c-5.7-4.7-10.7-1.8-15.6,1c-4.3,2.5-8.5,4.9-13,1.9c-2.6-1.7-2.3-4.2-2.1-7.1c0.2-2.1,0.4-4.3-0.5-6.3c-3.5-8.2-10.9-9-17.9-9.9
			l-0.3,0c-0.2,0-0.3,0-0.4,0.1c-1.9-1.2-2.8-2.4-2.7-3.6c0.2-3,6.4-6.4,12-8.2c5.5-1.8,5.3-2.7,5.1-3.2c-0.1-0.5-0.4-1.4-6.8,0.2
			c-2.5,0.6-5.2,2.2-7.6,4.1c-1.2-0.9-1.8-1.9-1.8-3c0-3.1,4.5-6.3,5.9-7.3c3.7-2.5,7.9-3.6,11.9-4.8c5.4-1.5,10.9-3.1,15.4-7.6
			c0.2-0.2,0.2-0.5,0.1-0.7c-0.1-0.3-0.4-0.5-0.7-0.4c-1.9,0.1-4,1.6-6,3c-1.2,0.9-2.4,1.7-3.4,2.1c-2.5,1-5.3,1.7-8,2.3
			c-4.8,1.1-9.7,2.3-13.8,5.6c-2.8,2.2-5.2,6-4.5,9.4c0.2,1.1,0.9,2.5,2.6,3.5c-1.7,1.8-3,3.7-3.6,5.4c-0.3,1.2-0.2,2.3,0.3,3.2
			c0.7,1.2,2.1,2.1,4.1,2.8c0.6,0.2,1.3,0.4,2.1,0.5l0,0c1.6,0.9,3.6,1.3,5.5,1.7c2.9,0.5,5.6,1.1,7.1,3.3c1.7,2.5,1.7,5.6,1.6,8.5
			c-0.1,4.2-0.2,8.4,4.9,11c5.4,2.7,10.4-0.2,14.8-2.7c4.3-2.5,8.1-4.7,11.9-2.1c3.6,2.5,2.6,8.7,1.7,14.1
			c-0.9,5.3-1.7,10.4,2.2,11.1c2.2,0.4,3.8-2,5.5-4.6c2-3,4.2-6.4,7.6-5.9c1.6,0.2,2.3,3.8,3,7.7c1.3,6.6,3,15.9,11,18.5
			c1.6,0.5,3.5,0.8,5.8,0.7c7.7-0.4,10.6-10.7,13.5-20.7C236.1,373,237.8,366.9,240.5,363.4z"/>
		<g>
			
				<radialGradient id="SVGID_47_" cx="547.7969" cy="925.3008" r="61.4083" gradientTransform="matrix(0.95 0.3125 0.3125 -0.95 -649.7452 1087.3601)" gradientUnits="userSpaceOnUse">
				<stop  offset="0" style="stop-color:#7D04D3"/>
				<stop  offset="0.3558" style="stop-color:#FF27AD"/>
				<stop  offset="0.9693" style="stop-color:#7C00FF"/>
			</radialGradient>
			<path class="st46" d="M222.9,414.9c-0.3-5.7-0.6-11.1,2.3-16.1l-0.6-0.3l0,0l-0.5-0.5c0,0,0,0,0,0l-0.5-0.4l0,0l0,0l-0.5-0.4
				c-3.5,4.6-3.5,11.6-3.4,18.3c0,9.5,0.1,18.4-8.9,21.4c-2.8,0.9-5.1,0.8-6.7-0.3c-3.9-2.5-4.6-10.2-5.2-17.6
				c-0.8-8.5-1.5-16.4-6.8-17.8c-5.2-1.3-7.4,4.5-9.8,10.7c-2.9,7.4-5.9,15.1-13.9,13.1c-4-1-6.5-2.5-7.5-4.7c-1.6-3.5,0.8-8.3,3-13
				c2.9-6,6-12.3,1.2-16.4c-3.5-3-6.9-1.7-9.9-0.5c-2,0.8-3.9,1.5-5.7,1.1c-2-0.5-2.8-2.7-3.6-5.1c-1.1-3.2-2.5-7.2-7.8-6.5
				c-3.4,0.5-5.9,2.5-8.3,4.6c-3.4,2.9-6.4,5.3-11.5,3.3c-2.1-0.8-4.5-2.7-7.3-5.8c-4.7-5.1-2.7-9.6-0.3-14.7
				c1.6-3.5,3.3-7.1,2.7-11.1c-0.8-5.8-5.8-5.6-10.1-5.5c-3.3,0.1-6.3,0.2-7.6-1.9c-0.7-1.1,0.1-3.6,0.9-5.1
				c5.3-9.3,13.9-10,23.7-9.9c0.9,0,1.8,0.1,2.7,0.1c1.9,0.1,3.8,0.2,5.8-0.1c2.4-0.3,4.7-2.4,6.9-4.3c1.2-1.1,2.4-2.1,3.4-2.7
				c0.3-0.2,0.4-0.6,0.3-0.9l-0.3-0.6c-0.2-0.3-0.6-0.5-0.9-0.3c-1.2,0.6-2.6,1.5-4,2.5c-2.6,1.8-5.6,3.8-8,3.9
				c-2.3,0.1-4.5,0.1-6.7,0c-9.4-0.1-18.4-0.2-24.6,9.9c-1,1.6-3.1,5.7-1.4,8.9c1.6,3.1,5.3,3.1,8.9,3.1c4.6,0,7.5,0.3,7.9,3.9
				c0.5,4.1-1.3,7.5-2.9,10.8c-3,5.7-5.8,11.2,3.9,19.3c0.9,0.8,5,3.5,6.5,4c0.1,0,0.1,0,0.2,0.1c6.8,2.2,11-1.6,14.4-4.6
				c2.1-1.9,3.9-3.5,5.8-3.3c3.1,0.3,4.1,2.7,5.2,5.4c1.2,2.8,2.5,6,6.7,6.3c1.1,0.1,2.7-0.4,4.5-1c4.8-1.5,8.9-2.4,10,0.7
				c1.6,4.6-0.8,8.8-3.4,13.4c-1.9,3.3-3.9,6.7-4,10.2c-0.2,3.9,2.5,7.5,7,9.6c0.5,0.2,1,0.4,1.5,0.6c3.8,1.2,8.4,1.2,11.3-1.7
				c1.6-1.6,3.5-5.9,5.5-10.5c2.3-5.2,5.1-11.6,7-12.3c0.2-0.1,0.4-0.1,0.5,0c3.6,1.8,4,8.5,4.4,14.9c0.3,5.7,0.7,11.6,3.3,14.9
				c3.4,4.2,7.3,6.4,11.4,6.1c4.2-0.2,8.2-3,11.2-7.8C223.5,426.9,223.2,420.8,222.9,414.9z"/>
			
				<radialGradient id="SVGID_48_" cx="510.7817" cy="916.332" r="8.9253" gradientTransform="matrix(0.95 0.3125 0.3125 -0.95 -649.7452 1087.3601)" gradientUnits="userSpaceOnUse">
				<stop  offset="0" style="stop-color:#7D04D3"/>
				<stop  offset="0.3558" style="stop-color:#FF27AD"/>
				<stop  offset="0.9693" style="stop-color:#7C00FF"/>
			</radialGradient>
			<path class="st47" d="M119.2,380c-2.5-1.8-3.3-6.5-2.3-13.7c0.1-0.5-0.5-0.9-1-0.7c-0.2,0.1-0.3,0.2-0.3,0.4
				c-2.1,6.6-2.5,14.7,1.5,17.7c0.5,0.4,1,0.7,1.6,0.9c2.8,0.9,6.6-0.2,11.2-3.4l-0.7-1.1c0,0-0.1,0.1-0.1,0.1l-0.2-0.2l-0.3-0.6
				C124.4,381.2,121.2,381.5,119.2,380z"/>
			
				<radialGradient id="SVGID_49_" cx="489.6696" cy="938.4994" r="8.8864" gradientTransform="matrix(0.95 0.3125 0.3125 -0.95 -649.7452 1087.3601)" gradientUnits="userSpaceOnUse">
				<stop  offset="0" style="stop-color:#7D04D3"/>
				<stop  offset="0.3558" style="stop-color:#FF27AD"/>
				<stop  offset="0.9693" style="stop-color:#7C00FF"/>
			</radialGradient>
			<path class="st48" d="M101.9,339.9l-0.2-0.1c-0.1-0.1-0.3-0.2-0.5-0.1c-0.2,0-0.4,0.1-0.5,0.3c-1.4,2.2-1.8,3.8-1.3,5
				c0.7,1.7,3.1,2.2,5.8,2.7c4.9,0.9,10.5,2,9.7,10.1l0.7,0.1l0.6,0.1l0,0l0.6,0.2c1.3-3.8,1.4-6.6,0.1-8.5
				c-1.8-2.9-6.1-3.2-9.8-3.5c-2.8-0.2-5.4-0.4-6.1-1.7c-0.4-0.7-0.1-2,0.8-3.7C102.2,340.4,102.2,340.1,101.9,339.9z"/>
			
				<radialGradient id="SVGID_50_" cx="541.4359" cy="915.7097" r="4.6394" gradientTransform="matrix(0.95 0.3125 0.3125 -0.95 -649.7452 1087.3601)" gradientUnits="userSpaceOnUse">
				<stop  offset="0" style="stop-color:#7D04D3"/>
				<stop  offset="0.3558" style="stop-color:#FF27AD"/>
				<stop  offset="0.9693" style="stop-color:#7C00FF"/>
			</radialGradient>
			<path class="st49" d="M149.8,390c0.1,0.1,0.2,0.1,0.4,0.1c1.5,0.5,3.3,0,5.5-1.3c0.3-0.2,0.3-0.6,0.2-0.9
				c-0.1-0.3-0.4-0.5-0.7-0.4c-4.9,0.9-5.1,0.2-5.7-2.1c-0.2-0.9-0.6-2-1.2-3.3l-0.6,0.3l-0.8,0.2l-0.7,0.1
				C146.8,385.7,147.5,389,149.8,390z"/>
			
				<radialGradient id="SVGID_51_" cx="568.3535" cy="891.1503" r="6.4642" gradientTransform="matrix(0.95 0.3125 0.3125 -0.95 -649.7452 1087.3601)" gradientUnits="userSpaceOnUse">
				<stop  offset="0" style="stop-color:#7D04D3"/>
				<stop  offset="0.3558" style="stop-color:#FF27AD"/>
				<stop  offset="0.9693" style="stop-color:#7C00FF"/>
			</radialGradient>
			<path class="st50" d="M161.8,413.5c-1.8,4.1-0.6,6.1,0.8,7c0.4,0.3,0.9,0.5,1.3,0.6c4.1,1.3,10.9-0.9,13.5-3.5l-0.5-0.5l0,0l0,0
				l-0.5-0.5c-0.1,0.1-0.1,0.1-0.2,0.2l0,0l-0.3-0.6c-3.1,1.8-8.8,4-11.3,2.3c-1.1-0.8-1.5-2.4-1.2-4.8c0-0.2,0-0.4-0.1-0.5
				c-0.1-0.1-0.3-0.2-0.5-0.3l-0.4,0C162.2,413.1,161.9,413.2,161.8,413.5z"/>
			
				<radialGradient id="SVGID_52_" cx="609.4791" cy="895.4468" r="7.6348" gradientTransform="matrix(0.95 0.3125 0.3125 -0.95 -649.7452 1087.3601)" gradientUnits="userSpaceOnUse">
				<stop  offset="0" style="stop-color:#7D04D3"/>
				<stop  offset="0.3558" style="stop-color:#FF27AD"/>
				<stop  offset="0.9693" style="stop-color:#7C00FF"/>
			</radialGradient>
			<path class="st51" d="M206.3,434.1c1,0.3,1.9,0.3,2.5,0.3c4.2-0.4,8.3-5.2,9.7-11.4c0.1-0.3-0.1-0.7-0.4-0.8l-0.6-0.2
				c-0.2-0.1-0.4-0.1-0.5,0c-0.2,0.1-0.3,0.2-0.3,0.4c-1.6,5.4-4.6,9.1-7.6,9.4c-2.2,0.3-4.5-1.4-6.4-4.7l-0.6,0.3l-0.3,0.1
				c0,0,0,0,0-0.1l-0.6,0.3l0,0l0,0l-0.6,0.3C202.4,431.9,204.5,433.5,206.3,434.1z"/>
		</g>
		
			<radialGradient id="SVGID_53_" cx="190.0784" cy="331.0578" r="42.1243" gradientTransform="matrix(0.9924 -0.1229 0.1229 0.9924 -30.2792 32.8173)" gradientUnits="userSpaceOnUse">
			<stop  offset="0" style="stop-color:#7D04D3"/>
			<stop  offset="0.3558" style="stop-color:#FF27AD"/>
			<stop  offset="0.9693" style="stop-color:#7C00FF"/>
		</radialGradient>
		<path class="st52" d="M245.9,349.6l-0.1-3.9c0.2-0.3,0.3-0.6,0.5-0.9l-0.6-0.4l0,0l0,0l-0.6-0.4c-2.2,3.3-3.4,6.6-4.6,9.7
			c-1.5,3.8-2.9,7.4-5.8,11c-1.6,2-4.4,3-6.6,3.8c-1.3,0.4-7.2,0.1-8.6-0.3c0,0,0,0,0,0c-8.8-3-8.2-7.3-7.4-12.7
			c0.6-3.9,1.3-8.2-2-12.4c-0.9-1.1-1.9-1.8-3-1.9c-1.9-0.2-3.6,1.3-5.1,2.6c-2,1.7-3,2.4-3.9,1.5c-1.1-1-0.4-2.7,0.9-5.3
			c1.7-3.2,4-7.7-1.3-11c-5.3-3.3-10.3,1-15.1,5.1c-4.6,4-9.4,8.1-14.7,6c-1.5-0.6-2.4-1.4-2.7-2.4c-0.7-2.1,1-5.2,2.7-8.1
			c2.3-4.1,5-8.7,1.4-11.7c-2.4-2-5.3-0.3-8.1,1.4c-2.4,1.4-4.9,2.9-7,2c0,0-0.1,0-0.1,0c-0.1-0.3-0.3-0.5-1-0.8
			c-0.1-0.1-0.3-0.1-0.4-0.2c0.5-1,4.2-3.6,8.7-6c1-0.6,7.2-6,7.4-8.6c0-0.5-0.1-1-0.6-1.4l-0.7-0.4c-0.1,0-0.1,0-0.2-0.1
			c-1.2-0.4-1.7,0.6-1.9,1.1c-0.1,0.2-0.1,0.3-0.2,0.5c-0.3,0.4-1.9,1.8-3.6,3.3c-6.7,5.7-12.1,10.7-11.2,13.4
			c0.2,0.6,0.7,1,1.4,1.3c0.4,0.1,1,0.2,1.6,0.2l0-0.2c1.9,0.7,4.7-0.4,7.7-1.5c2.4-0.9,5.1-2,6.2-1.4c0.2,0.1,0.4,0.2,0.5,0.7
			c0.5,2-1.4,5-3.1,7.8c-2.3,3.8-4.7,7.7-3.5,11c0.8,2,2.8,3.5,6.1,4.5c6.3,1.9,12.2-3.1,17.4-7.4c4.1-3.4,7.9-6.6,10.6-5.3
			c1.3,0.6,2,1.3,2.3,2.1c0.5,1.4-0.4,3.3-1.3,5.3c-1.2,2.5-2.4,5-1.2,7.4c0.6,1.2,1.3,1.8,2.2,2c1.6,0.3,3.3-1,4.8-2.4
			c1.2-1,2.5-2.1,3.4-2c0.3,0,0.6,0.2,0.8,0.6c2,2.7,1.8,6.9,1.5,11.4c-0.3,5.3-0.6,10.7,2.8,14c1,0.9,2.2,1.6,3.6,2.1
			c2.6,0.9,6.1,1,10.5,0.5c4.6-0.6,9.8-1.7,12.9-5.7c3-3.9,3.9-6.5,4.9-9.3c0.8-2.2,1.6-4.5,3.6-7.8L245.9,349.6z M153.6,321.7
			C153.6,321.7,153.6,321.7,153.6,321.7L153.6,321.7L153.6,321.7L153.6,321.7L153.6,321.7L153.6,321.7z"/>
		<g>
			
				<radialGradient id="SVGID_54_" cx="578.7336" cy="1004.4413" r="48.4446" gradientTransform="matrix(0.95 0.3125 0.3125 -0.95 -649.7452 1087.3601)" gradientUnits="userSpaceOnUse">
				<stop  offset="0" style="stop-color:#7D04D3"/>
				<stop  offset="0.3558" style="stop-color:#FF27AD"/>
				<stop  offset="0.9693" style="stop-color:#7C00FF"/>
			</radialGradient>
			<path class="st53" d="M254.7,337.9c-0.2-1.8-0.5-3.7-0.6-5.6c0-0.6,0.2-1.7,0.5-2.7c0.4-1.9,0.7-3.1,0.3-3.8
				c-0.1-0.1-0.2-0.2-0.3-0.3l-0.2-0.1c-0.3-0.2-0.6-0.2-0.8-0.1c-0.8,0.3-1.1,1.6-1.1,1.7c-0.9,4.5-0.5,9-0.1,13.6
				c0.2,2-0.2,4.1-0.6,6.1c-0.5,2.3-1.2,4.6-2.4,6.6c-0.6,1.1-2.6,4-4.1,2.5c-0.4-0.4-0.5-1-0.4-1.6c0.1-0.6,0.3-1.1,0.5-1.6
				c0.5-1.3,1.1-2.7,1.3-4.1s0.3-2.9-0.1-4.3c0-0.2-0.1-0.3-0.2-0.4c-0.2-0.2-0.5,0-0.7,0.1c-1.2,0.7-1.8,2-2.3,3.3
				c-0.8,1.8-1.5,3.5-2.3,5.3c-0.6,1.3-1.3,2.4-2.2,3.5c-1.4,1.7-3.1,3.2-5.1,4.2c-1.7,0.9-3.6,1.6-5.5,2.1
				c-2.3,0.7-4.1,0.6-5.2-0.3c-1.7-1.4-1.7-3.9-1.3-5.9c0.5-2.4,1.7-4.6,2.8-6.7c3.8-7.5,8.5-16.7-0.4-22.3c-4.9-3.1-9-0.4-12,1.5
				c-1.7,1.1-3.1,2-3.9,1.5c-1.2-0.7-1-2.6-0.9-4.8c0.2-2.9,0.5-6.6-2.7-8.7c-4-2.6-8-1.2-11.8,0.1c-3.2,1.1-6.3,2.1-9.2,0.8
				c-2.3-1-3.1-3.2-4-5.6c-0.6-1.5-1.2-3.1-2.2-4.3c-1.1-1.3-2.7-1.7-4.3-2.2c-2.6-0.7-4.1-1.3-3.9-3.8c0.2-3.2,2.7-6,6.1-7.2
				c0.9-0.3,1.8-0.6,2.7-0.8c1.9-0.5,3.8-1.1,5.7-2c4.1-2.1,21.5-16.6,23.5-24.6c0.3-1.4,0.2-2.6-0.5-3.5c0-0.1-0.1-0.1-0.1-0.1
				l-1.1-0.9c-0.1-0.1-0.2-0.1-0.4-0.1c-1.3-0.1-1.6,1.7-1.9,3.5c-0.2,0.8-0.4,1.9-0.6,2.2c-0.8,1.1-1.7,2.5-2.6,3.9
				c-1.9,3-4.1,6.4-6.6,8.7c-2.3,2.2-6.5,4.1-10.8,6c-8.8,3.9-18.8,8.4-16.3,17.5c0.8,3.1,3.1,3.6,4.9,4c1.1,0.3,2.2,0.5,2.9,1.3
				c1.3,1.5,1.9,3.2,2.5,5.1c1.1,3.1,2.2,6.2,6.2,7.8c3.7,1.5,7.1,0,10.4-1.4c3.1-1.3,6.1-2.6,9.2-1.4c2.6,1,2.6,3.6,2.6,6.3
				c0,2.6,0,5.5,2.8,6.5c2.5,0.9,4.5-0.5,6.5-1.8c2.1-1.4,4.2-2.8,6.8-1.6c5.8,2.7,3.3,10.6,0.8,18.2c-1.8,5.6-3.5,11-2.2,14.6
				c0.3,1.1,0.7,2,1.4,2.9c0.6,0.7,1.5,1.4,2.8,1.9c1.2,0.4,2.9,0.5,5,0.1c3.6-0.7,8.2-2.6,10.5-5.2c1.3-1.4,2-2.8,2.4-4
				c0.7,1.1,1.6,1.8,2.7,2.2c0.4,0.1,0.8,0.2,1.2,0.2c2.9,0.2,6.1-1.9,7.8-5.1C256.2,348.9,255.5,343.5,254.7,337.9z"/>
			
				<radialGradient id="SVGID_55_" cx="606.6422" cy="968.6376" r="5.0537" gradientTransform="matrix(0.95 0.3125 0.3125 -0.95 -649.7452 1087.3601)" gradientUnits="userSpaceOnUse">
				<stop  offset="0" style="stop-color:#7D04D3"/>
				<stop  offset="0.3558" style="stop-color:#FF27AD"/>
				<stop  offset="0.9693" style="stop-color:#7C00FF"/>
			</radialGradient>
			<path class="st54" d="M226.3,360.6c0.3,0.1,0.6,0.1,0.9,0.2c3.2,0.3,6.6-3.6,8.4-5.9c0.2-0.3,0.2-0.7-0.1-0.9l-0.2-0.2
				c-0.3-0.2-0.7-0.2-0.9,0.1c-1.5,1.7-4.1,4.5-6.4,4.4c-0.9,0-1.8-0.6-2.6-1.6l-0.5,0.4l0,0l-0.3,0c0-0.1-0.1-0.1-0.1-0.2l-0.6,0.3
				l0,0l0,0l-0.6,0.3C224.1,359.2,225.1,360.2,226.3,360.6z"/>
			
				<radialGradient id="SVGID_56_" cx="541.5068" cy="1000.2346" r="7.668" gradientTransform="matrix(0.95 0.3125 0.3125 -0.95 -649.7452 1087.3601)" gradientUnits="userSpaceOnUse">
				<stop  offset="0" style="stop-color:#7D04D3"/>
				<stop  offset="0.3558" style="stop-color:#FF27AD"/>
				<stop  offset="0.9693" style="stop-color:#7C00FF"/>
			</radialGradient>
			<path class="st55" d="M183.9,313.6c0.2-1.1-0.4-2.3-0.8-3.4c-0.4-1.2-0.9-2.4-1.5-3.6c-1.1-2.3-2.4-4.7-4.3-6.5
				c-1.6-1.5-3.7-2.4-5.9-2c-0.2,0-0.3,0.1-0.4,0.3l-0.3,0.5c-0.1,0.1-0.1,0.3-0.1,0.4c0.2,1.5,2.1,2.6,4,3.6c0.9,0.5,1.8,1,2.1,1.3
				c1.7,1.7,2.4,3.8,3.3,6.1c0.3,0.9,0.6,1.7,1,2.6c0.3,0.7,0.5,1.8,1.3,1.9c0.3,0.1,0.7,0,1-0.2c0.3-0.2,0.4-0.6,0.6-1
				C183.8,313.7,183.8,313.6,183.9,313.6z"/>
		</g>
		
			<radialGradient id="SVGID_57_" cx="591.7506" cy="1030.861" r="35.5327" gradientTransform="matrix(0.95 0.3125 0.3125 -0.95 -649.7452 1087.3601)" gradientUnits="userSpaceOnUse">
			<stop  offset="0" style="stop-color:#7D04D3"/>
			<stop  offset="0.3558" style="stop-color:#FF27AD"/>
			<stop  offset="0.9693" style="stop-color:#7C00FF"/>
		</radialGradient>
		<path class="st56" d="M209.3,280.5c0.3-0.5,0.6-1,0.8-1.3c0.7-1.5,0.5-14.7-2.1-16.5c-0.3-0.2-1.1-0.6-1.9,0.3
			c-0.1,0.1-0.1,0.1-0.1,0.2l-0.2,0.4c-0.1,0.1-0.2,0.2-0.2,0.3c-0.2,0.5,0.1,1.3,1,2.8c0.2,0.3,0.3,0.5,0.3,0.7
			c1.5,4.2,1.6,7.4,0.4,10.4c-0.8,1.9-3.4,4.8-6.1,7.9c-5.7,6.5-12.9,14.6-9.5,20.1c2,3.1,4.4,4.8,7.1,4.9c4.6,0.2,8.8-3.4,11.8-6.4
			c1.8-1.8,3.5-3.7,5.1-5.7c1.5-1.9,2.9-4.2,4.9-5.7c1.9-1.5,4.4-0.8,5.6,1.4c1.1,2,0,5-1.1,7.8c-1.2,2.9-2.2,5.7-0.8,7.5
			s3.1,2.8,4.8,2.8c3.3,0.1,6.3-3,8.9-5.7c1.7-1.8,3.5-3.8,4.4-3.2c3,1.9,1,8.6-0.6,14c-0.7,2.2-1.5,4.4-2.1,6.6
			c-0.1,0.4-0.2,0.9-0.2,1.3c0,0.5,0.2,1,0.4,1.4c0.6,1.1,1.7,1.9,2.9,2.1c1.2,0.2,2.3-0.2,3.4-0.7c1.7-0.7,3.3-1.7,5.1-2
			c1.8-0.3,4,0.5,4.5,2.2c0.5,1.6,0.8,2.7,2.7,3.3c0.3,0.1,0.6,0.2,0.9,0.2c1.3,0.1,2.6-0.6,4-2.1c2-2.1,1-5.9,0-9.6
			c-0.7-2.6-1.4-5.4-1-7.2c0.2-0.7,1.3-2.8,2.3-4.8c3.4-6.5,3.8-7.8,3.2-8.4c-0.7-0.7-1.4-1-2.2-0.9c-2,0.2-3.8,3.1-5.4,5.8
			c-0.9,1.5-2.3,3.8-2.9,3.7c-0.1,0-0.2-0.1-0.4-0.4c-1.1-2.1,0.5-5.2,2.3-8.6c2.1-4,4.5-8.6,3.1-13c-1-3.1-2.4-4.9-4.1-5.3
			c-2.8-0.7-5.8,2.1-8.7,4.8c-2.7,2.5-5.5,5-7.4,4.3c-0.5-0.2-0.9-0.5-1.1-0.9c-0.6-1.4,0.7-4,1.9-6.5c1.4-3,2.9-6.1,1.8-8.2
			c-0.6-1-1.7-1.7-3.5-1.9c-4-0.5-6.6,2.4-9.2,5.2c-2,2.2-3.8,4.2-6.2,4.7c-0.6,0.1-1.2,0-1.8-0.4c-1.3-1-2.2-3.3-2.4-5
			c-0.3-2.4,0.4-5,1.1-7.5c1.1-4.1,2.3-8.4-0.8-12.4c-2.6-3.2-6.9-4.1-11.3-2.3c-4,1.6-8,5.7-7.5,10.7c0,0.3,0.3,0.6,0.6,0.6l0.8,0
			c0.2,0,0.4-0.1,0.5-0.2c0.1-0.1,0.2-0.3,0.2-0.5c-0.1-3.6,3.1-6.6,6.1-7.8c3.2-1.3,6.2-0.8,8,1.3c2.4,2.8,1.4,7,0.3,11.5
			c-1.4,5.6-2.9,12,4.1,14.8c4.2,1.7,7-1.8,9.8-5.1c2.3-2.7,4.6-5.6,7.6-5.4c0.8,0.1,1.4,0.3,1.6,0.6c0.6,1-0.4,3.4-1.4,5.7
			c-1.6,3.7-3.4,8-0.3,10.1c3.2,2.2,6.9-1.1,10.2-4.1c2.3-2.1,4.8-4.3,6.4-3.8c0.8,0.3,1.6,1.3,2.1,3.2c0.9,3-1.3,7.1-3.4,11
			c-2.5,4.8-5.1,9.7-1.9,12.6c1.1,1,2.2,1.4,3.3,1.1c2.5-0.5,4.2-4.1,5.2-6.2l0.3-0.5c0.2-0.4,0.8-1.3,1.4-2.2
			c-2.2,4.1-4.5,8.4-4.9,9.8c-0.8,3.4-0.4,7,0,10.5c0.2,1.4,0.3,2.7,0.4,4c0,0.1,0.1,0.3,0.1,0.4c-1.4,0.7-2.2-0.2-3.4-2.2
			c-0.5-0.8-0.9-1.5-1.5-2c-2.5-2.1-5.3-0.2-7.4,1.2c-1,0.7-2.2,1.1-3.4,0.8c-1.2-0.3-2.2-1.4-2-2.6c0.1-1.4,1.2-2.6,2-3.8
			c1-1.4,1.6-3.1,2.2-4.7c1.2-3.1,2.3-6.8,1.1-10.1c-0.7-1.9-2.1-3.4-4.2-4.3c-1.3-0.6-3,0.9-6.1,3.7c-3,2.7-6.7,6.1-9.1,5.6
			c-0.8-0.2-1.4-0.9-1.9-2.1c-0.2-0.5,0.6-2,1.3-3.4c1.5-2.8,3.5-6.7,2-10c-1.1-2.6-3.7-4.4-6.5-4.5c-3.6-0.1-5.4,2.8-7.6,5.1
			c-4.9,5.3-12.2,13.4-17.5,12.7c-1.8-0.2-3.3-1.5-4.5-3.8c-0.9-1.8,6.1-10.6,10.3-15.8c3.8-4.7,7.4-9,6.9-15.4
			c-0.1-1.5-0.4-3-0.8-4.5c-0.2-0.8-0.3-1.5-0.7-2.2c-0.4-0.7-1-1.3-1.8-1.4L209.3,280.5z"/>
	</g>
	<g class="st57">
		<path class="st58" d="M87.5,468.5c-3.8-6.5-6.1-13.4-6.4-20.9c-0.4-8.4,1.4-17.1,3.8-25c2.7-8.9,8.5-17.8,9.5-27
			c0.8-7.5-8.6-8.7-12.6-4.1c-3.5,4.1-5.2,9.9-7.1,15c-2,5.3-3.9,10.7-5.2,16.2c-2.4,9.8-3.1,19.9-1.1,29.8
			c1.7,8.1,5.1,16.7,10.7,22.9c3.9,4.3,10.6,10.9,16.7,7.2c0.1,0,0.1-0.1,0.1-0.2C95.5,476.6,90.3,473.2,87.5,468.5z"/>
		<path class="st58" d="M167.5,382c-2.2-1.6-4.5-2.4-7.2-2.4c-3.1,0-5.5,1.7-7.6-0.9c-1.7-2.1-2.1-4.3-4.5-6.1
			c-2.2-1.6-4.7-2.6-7.3-3.1c-6.6-1.2-12.9,1.5-18.4,4.9c-2.2,1.4-6.3,5.6-4.2,0.8c1.9-4.3,4.9-7.9,6.7-12.2
			c2.4-5.8,2.9-12.3-1-17.5c-1.7-2.4-4.1-4.3-7-5.1c-1.5-0.4-3.1-0.4-4.6-0.3l-1.7,0.3c-0.2,0-0.3,0.1-0.5,0.1
			c-2.1-3.5-8.2-4-9.6,0.8c-1.4,4.7,1,9.4,6,10.4c2.4,0.5,7.2-1.5,8.8,0.8c2.3,3.1-1.9,9-3.3,11.5c-2.9,5-6.4,10.8-5,16.8
			c1.2,5.2,5.7,8.2,10.9,7.4c6-1,10.5-6.4,16.1-8.8c3.1-1.3,7.7-1.9,10.3,1c1.6,1.7,1.6,4.2,3.4,5.8c4.9,4.3,10.1-1,15.5,0.3
			c12.7,3.1,7.2,18.9,3.3,26.5c-0.1,0.3,0.2,0.5,0.4,0.3C172.4,404.2,178.1,390,167.5,382z"/>
		<path class="st58" d="M147.2,325.5c-4.9-1.2-8.7,2.3-8.3,7.3c0.6,8.9,10.9,6.4,14.4,12.3c2.8,4.6,1.5,12.6,7.7,14.7
			c5.4,1.8,9.3-2.1,11.9-6.4c0.4-0.6-0.3-1.4-0.9-1.1c-2.8,1.5-4.2,2.6-6.9,0.7c-2.1-1.5-2-2.6-2.4-4.8c-0.5-2.6-1-5.3-2.2-7.7
			c-0.9-1.9-2.2-3.6-3.9-4.9c-0.7-0.5-7.5-4.2-7.9-3.8C150.5,330.1,150.2,326.2,147.2,325.5z"/>
		<path class="st58" d="M166.7,330.7C166.8,330.7,166.8,330.7,166.7,330.7c-0.1,0-0.4-0.1-0.5-0.1
			C166.4,330.7,166.5,330.7,166.7,330.7C166.7,330.7,166.7,330.7,166.7,330.7C166.7,330.7,166.7,330.7,166.7,330.7z"/>
		<path class="st58" d="M160.5,333.6c-2.5,3.2-0.6,8.8,3.4,9.8c3.4,0.9,6.7,0,8.9-2.8c1.4-1.9,1.9-5,3.8-6.4c0.1,0,0-0.1,0-0.1
			c-1.6-0.1-3,0.2-4.6,0.6c0,0,0,0,0,0c-0.9-2-2.9-3.4-5-3.8c-0.1,0-0.1,0-0.2,0c0,0,0,0-0.1,0c-1.2-0.2-2.4-0.1-3.4,0.5
			C162.1,331.8,161.3,332.6,160.5,333.6z"/>
		<path class="st58" d="M166.9,330.8C166.9,330.8,166.9,330.8,166.9,330.8C167.9,330.9,167.4,330.8,166.9,330.8z"/>
		<path class="st58" d="M186,317.9c2-0.6,2.2-1.7,3.5-3c0.2-0.2,0.1-0.5-0.1-0.6c-0.7-0.3-0.8-1.2-1.2-1.8c-0.6-1-1.6-1.4-2.3-2.3
			c-1.6-2-2-4.7-3.6-6.8c-1-1.2-2.1-2.1-3.3-2.7c-1.1-3.2-5.2-5.5-8.1-2.4c-1.4,1.5-2.5,2.9-2.8,4.9c-0.8,4,2.5,7.8,6.6,6.3
			c0.2,0.1,0.4,0.3,0.7,0.7c0.4,0.7,0.9,1.3,1.3,2c1.2,1.8,2.5,3.4,4.3,4.6C182.5,317.7,184.2,318.4,186,317.9z"/>
		<path class="st58" d="M232.8,363.8c5.4-4.7,11.9-14.6,7.2-21.7c-0.1-0.1-0.3-0.2-0.4,0c-3.9,5.5-5,11.4-11.3,15.1
			C223.2,360.1,228.4,367.6,232.8,363.8z"/>
		<path class="st58" d="M101.9,396.5c3.4,1.1,6.9-0.8,8.1-4.1c1-2.6,0.2-5.8-1.8-7.8c-1.1-1.1-2.3-1.8-3.8-2.1
			c-1.4-0.3-2.9-0.2-4.2,0.6c-1,0.6-1.9,1.3-2.5,2.3c-1.1,1.5-1.2,3.4-1,5.1C97.1,393.2,99.3,395.7,101.9,396.5z"/>
		<path class="st58" d="M149.1,410.4c0.9-5.8-0.4-13.9-7.1-15.3c-2.5-0.5-5,1.2-4.4,4c0.5,2.5,1.9,4.8,2.1,7.3
			c0.4,4.1-2,8.4-3.8,11.9c-3.1,5.9-6.2,11.3-6.5,18.2c-0.1,2.4,2.5,4.2,4.7,3.1c3.8-2,7.3-4.5,7.2-9.1c0-1.1-1-1.7-2-1.3
			c-0.2,0.1-0.5,0.2-0.7,0.3C142.3,423.2,147.9,417.9,149.1,410.4z"/>
		<path class="st58" d="M197.7,400.2c-0.1,0-0.1,0.2,0,0.2c4.3,0.8,5.6,6.9,5.5,10.5c-0.2,5,0.2,10.1,0.4,15.1
			c0.4,10.3,15.8,9,14.1-1.1C216.2,416.4,210.6,393.5,197.7,400.2z"/>
		<path class="st58" d="M199.3,303.2c2.3-2.1,4.6-4.1,6.8-6.2c3-2.7-1.7-7-4.2-3.7c-1.9,2.4-3.7,4.9-5.5,7.3
			C195,302.4,197.6,304.7,199.3,303.2z"/>
		<path class="st59" d="M371,270.4c-9.1-4.1-19.2-6.4-28.8-9.3c-28.8-8.7-53.5-26.1-79-41.6c-18-10.9-32.4-26.5-42.5-45.3
			c-6-11.1-9.4-24-7-36.3c2.2-11.1,8.9-21,17.2-28.7c6.1-5.7,13.1-10.2,20.2-14.6c6.8-4.1,9.5-8.3,16.7-12.3
			c14.6-8.2,28.2-18,42.9-26c9.3-5.1,19-9.4,29.3-11.9c11.2-2.7,21.6-1.6,32.9-1.6c5.7,0,9.9-8.6,3.8-11.7
			c-16.8-8.7-38.1-3.7-55,2.6c-18.9,7-35.6,18.5-52.9,28.7c-13.4,8-27.7,14.5-42.6,19c-15.4,4.7-28.9,5.6-44.5,7.8
			c-7.8,1.1-15.9,3.5-21.4,9.2c-11.3,11.8-9.5,35.3-4.2,49.4c3.7,9.9,11.3,15.7,16.9,24c5.9,8.7,9.1,16.1,17.5,23.2
			c46.8,39.8,99.9,75.7,160.4,86.5c11,2,23.3,2.8,32.4-3.7C379.5,274.8,375.4,272.4,371,270.4z"/>
	</g>
</g>
</svg>
